M48
INCH,TZ
T1C0.0157
T2C0.0394
%
G90
G05
T1
X45400Y-40200
X45400Y-41800
X45400Y-43400
X45400Y-45100
X45400Y-46700
X47100Y-38300
X48700Y-38300
X49042Y-39111
X49100Y-40300
X50038Y-39817
X50138Y-42584
X50200Y-41600
X50400Y-38300
X50531Y-42585
X51581Y-45425
X51600Y-42100
X51600Y-42900
X51965Y-42500
X52000Y-38300
X52122Y-44169
X52400Y-42100
X52400Y-42900
X52700Y-41000
X53354Y-41042
X53500Y-45394
X53599Y-42262
X53600Y-38300
X53600Y-43188
X54508Y-45687
X55300Y-38300
X56900Y-38300
X57800Y-40968
X58600Y-40200
X58600Y-41800
X58600Y-43400
X58600Y-45100
X58600Y-46700
T2
X47500Y-48250
X48500Y-48250
X49500Y-48250
X50500Y-48250
X51500Y-48250
X52500Y-48250
X53500Y-48250
X54500Y-48250
X55500Y-48250
X56500Y-48250
T0
M30
