%TF.GenerationSoftware,KiCad,Pcbnew,(5.99.0-8018-g9a0f685a75)*%
%TF.CreationDate,2021-08-15T15:04:04+09:30*%
%TF.ProjectId,MCP39F521_Breakout,4d435033-3946-4353-9231-5f427265616b,rev?*%
%TF.SameCoordinates,Original*%
%TF.FileFunction,Legend,Bot*%
%TF.FilePolarity,Positive*%
%FSLAX46Y46*%
G04 Gerber Fmt 4.6, Leading zero omitted, Abs format (unit mm)*
G04 Created by KiCad (PCBNEW (5.99.0-8018-g9a0f685a75)) date 2021-08-15 15:04:04*
%MOMM*%
%LPD*%
G01*
G04 APERTURE LIST*
%ADD10C,0.250000*%
%ADD11C,0.200000*%
%ADD12C,0.010000*%
%ADD13C,0.120000*%
G04 APERTURE END LIST*
D10*
X120102380Y-118530761D02*
X120102380Y-119149809D01*
X120483333Y-118816476D01*
X120483333Y-118959333D01*
X120530952Y-119054571D01*
X120578571Y-119102190D01*
X120673809Y-119149809D01*
X120911904Y-119149809D01*
X121007142Y-119102190D01*
X121054761Y-119054571D01*
X121102380Y-118959333D01*
X121102380Y-118673618D01*
X121054761Y-118578380D01*
X121007142Y-118530761D01*
X120102380Y-119435523D02*
X121102380Y-119768857D01*
X120102380Y-120102190D01*
X120102380Y-120340285D02*
X120102380Y-120959333D01*
X120483333Y-120625999D01*
X120483333Y-120768857D01*
X120530952Y-120864095D01*
X120578571Y-120911714D01*
X120673809Y-120959333D01*
X120911904Y-120959333D01*
X121007142Y-120911714D01*
X121054761Y-120864095D01*
X121102380Y-120768857D01*
X121102380Y-120483142D01*
X121054761Y-120387904D01*
X121007142Y-120340285D01*
X138508666Y-104506380D02*
X138508666Y-103506380D01*
X138508666Y-103887333D02*
X138413428Y-103839714D01*
X138222952Y-103839714D01*
X138127714Y-103887333D01*
X138080095Y-103934952D01*
X138032476Y-104030190D01*
X138032476Y-104315904D01*
X138080095Y-104411142D01*
X138127714Y-104458761D01*
X138222952Y-104506380D01*
X138413428Y-104506380D01*
X138508666Y-104458761D01*
X137699142Y-103839714D02*
X137461047Y-104506380D01*
X137222952Y-103839714D02*
X137461047Y-104506380D01*
X137556285Y-104744476D01*
X137603904Y-104792095D01*
X137699142Y-104839714D01*
X136222952Y-103506380D02*
X135651523Y-103506380D01*
X135937238Y-104506380D02*
X135937238Y-103506380D01*
X135318190Y-104506380D02*
X135318190Y-103839714D01*
X135318190Y-103506380D02*
X135365809Y-103554000D01*
X135318190Y-103601619D01*
X135270571Y-103554000D01*
X135318190Y-103506380D01*
X135318190Y-103601619D01*
X134889619Y-104458761D02*
X134794380Y-104506380D01*
X134603904Y-104506380D01*
X134508666Y-104458761D01*
X134461047Y-104363523D01*
X134461047Y-104315904D01*
X134508666Y-104220666D01*
X134603904Y-104173047D01*
X134746761Y-104173047D01*
X134842000Y-104125428D01*
X134889619Y-104030190D01*
X134889619Y-103982571D01*
X134842000Y-103887333D01*
X134746761Y-103839714D01*
X134603904Y-103839714D01*
X134508666Y-103887333D01*
X134032476Y-104506380D02*
X134032476Y-103506380D01*
X133603904Y-104506380D02*
X133603904Y-103982571D01*
X133651523Y-103887333D01*
X133746761Y-103839714D01*
X133889619Y-103839714D01*
X133984857Y-103887333D01*
X134032476Y-103934952D01*
X132699142Y-104506380D02*
X132699142Y-103982571D01*
X132746761Y-103887333D01*
X132842000Y-103839714D01*
X133032476Y-103839714D01*
X133127714Y-103887333D01*
X132699142Y-104458761D02*
X132794380Y-104506380D01*
X133032476Y-104506380D01*
X133127714Y-104458761D01*
X133175333Y-104363523D01*
X133175333Y-104268285D01*
X133127714Y-104173047D01*
X133032476Y-104125428D01*
X132794380Y-104125428D01*
X132699142Y-104077809D01*
X132222952Y-104506380D02*
X132222952Y-103839714D01*
X132222952Y-103934952D02*
X132175333Y-103887333D01*
X132080095Y-103839714D01*
X131937238Y-103839714D01*
X131842000Y-103887333D01*
X131794380Y-103982571D01*
X131794380Y-104506380D01*
X131794380Y-103982571D02*
X131746761Y-103887333D01*
X131651523Y-103839714D01*
X131508666Y-103839714D01*
X131413428Y-103887333D01*
X131365809Y-103982571D01*
X131365809Y-104506380D01*
X130127714Y-104506380D02*
X130127714Y-103506380D01*
X129889619Y-103506380D01*
X129746761Y-103554000D01*
X129651523Y-103649238D01*
X129603904Y-103744476D01*
X129556285Y-103934952D01*
X129556285Y-104077809D01*
X129603904Y-104268285D01*
X129651523Y-104363523D01*
X129746761Y-104458761D01*
X129889619Y-104506380D01*
X130127714Y-104506380D01*
X129127714Y-104506380D02*
X129127714Y-103506380D01*
X128699142Y-104506380D02*
X128699142Y-103982571D01*
X128746761Y-103887333D01*
X128842000Y-103839714D01*
X128984857Y-103839714D01*
X129080095Y-103887333D01*
X129127714Y-103934952D01*
X127794380Y-104506380D02*
X127794380Y-103982571D01*
X127842000Y-103887333D01*
X127937238Y-103839714D01*
X128127714Y-103839714D01*
X128222952Y-103887333D01*
X127794380Y-104458761D02*
X127889619Y-104506380D01*
X128127714Y-104506380D01*
X128222952Y-104458761D01*
X128270571Y-104363523D01*
X128270571Y-104268285D01*
X128222952Y-104173047D01*
X128127714Y-104125428D01*
X127889619Y-104125428D01*
X127794380Y-104077809D01*
X127318190Y-104506380D02*
X127318190Y-103839714D01*
X127318190Y-104030190D02*
X127270571Y-103934952D01*
X127222952Y-103887333D01*
X127127714Y-103839714D01*
X127032476Y-103839714D01*
X140389619Y-106116380D02*
X140389619Y-105116380D01*
X139961047Y-106116380D02*
X139961047Y-105592571D01*
X140008666Y-105497333D01*
X140103904Y-105449714D01*
X140246761Y-105449714D01*
X140342000Y-105497333D01*
X140389619Y-105544952D01*
X139627714Y-105449714D02*
X139246761Y-105449714D01*
X139484857Y-105116380D02*
X139484857Y-105973523D01*
X139437238Y-106068761D01*
X139342000Y-106116380D01*
X139246761Y-106116380D01*
X139056285Y-105449714D02*
X138675333Y-105449714D01*
X138913428Y-105116380D02*
X138913428Y-105973523D01*
X138865809Y-106068761D01*
X138770571Y-106116380D01*
X138675333Y-106116380D01*
X138342000Y-105449714D02*
X138342000Y-106449714D01*
X138342000Y-105497333D02*
X138246761Y-105449714D01*
X138056285Y-105449714D01*
X137961047Y-105497333D01*
X137913428Y-105544952D01*
X137865809Y-105640190D01*
X137865809Y-105925904D01*
X137913428Y-106021142D01*
X137961047Y-106068761D01*
X138056285Y-106116380D01*
X138246761Y-106116380D01*
X138342000Y-106068761D01*
X137437238Y-106021142D02*
X137389619Y-106068761D01*
X137437238Y-106116380D01*
X137484857Y-106068761D01*
X137437238Y-106021142D01*
X137437238Y-106116380D01*
X137437238Y-105497333D02*
X137389619Y-105544952D01*
X137437238Y-105592571D01*
X137484857Y-105544952D01*
X137437238Y-105497333D01*
X137437238Y-105592571D01*
X136246761Y-105068761D02*
X137103904Y-106354476D01*
X135199142Y-105068761D02*
X136056285Y-106354476D01*
X134961047Y-105449714D02*
X134770571Y-106116380D01*
X134580095Y-105640190D01*
X134389619Y-106116380D01*
X134199142Y-105449714D01*
X133818190Y-106116380D02*
X133818190Y-105116380D01*
X133389619Y-106116380D02*
X133389619Y-105592571D01*
X133437238Y-105497333D01*
X133532476Y-105449714D01*
X133675333Y-105449714D01*
X133770571Y-105497333D01*
X133818190Y-105544952D01*
X132484857Y-106116380D02*
X132484857Y-105592571D01*
X132532476Y-105497333D01*
X132627714Y-105449714D01*
X132818190Y-105449714D01*
X132913428Y-105497333D01*
X132484857Y-106068761D02*
X132580095Y-106116380D01*
X132818190Y-106116380D01*
X132913428Y-106068761D01*
X132961047Y-105973523D01*
X132961047Y-105878285D01*
X132913428Y-105783047D01*
X132818190Y-105735428D01*
X132580095Y-105735428D01*
X132484857Y-105687809D01*
X132151523Y-105449714D02*
X131770571Y-105449714D01*
X132008666Y-105116380D02*
X132008666Y-105973523D01*
X131961047Y-106068761D01*
X131865809Y-106116380D01*
X131770571Y-106116380D01*
X131437238Y-105449714D02*
X131437238Y-106116380D01*
X131437238Y-105544952D02*
X131389619Y-105497333D01*
X131294380Y-105449714D01*
X131151523Y-105449714D01*
X131056285Y-105497333D01*
X131008666Y-105592571D01*
X131008666Y-106116380D01*
X130532476Y-106116380D02*
X130532476Y-105449714D01*
X130532476Y-105116380D02*
X130580095Y-105164000D01*
X130532476Y-105211619D01*
X130484857Y-105164000D01*
X130532476Y-105116380D01*
X130532476Y-105211619D01*
X129627714Y-106068761D02*
X129722952Y-106116380D01*
X129913428Y-106116380D01*
X130008666Y-106068761D01*
X130056285Y-106021142D01*
X130103904Y-105925904D01*
X130103904Y-105640190D01*
X130056285Y-105544952D01*
X130008666Y-105497333D01*
X129913428Y-105449714D01*
X129722952Y-105449714D01*
X129627714Y-105497333D01*
X129199142Y-106116380D02*
X129199142Y-105116380D01*
X129103904Y-105735428D02*
X128818190Y-106116380D01*
X128818190Y-105449714D02*
X129199142Y-105830666D01*
X128389619Y-106021142D02*
X128342000Y-106068761D01*
X128389619Y-106116380D01*
X128437238Y-106068761D01*
X128389619Y-106021142D01*
X128389619Y-106116380D01*
X127484857Y-106068761D02*
X127580095Y-106116380D01*
X127770571Y-106116380D01*
X127865809Y-106068761D01*
X127913428Y-106021142D01*
X127961047Y-105925904D01*
X127961047Y-105640190D01*
X127913428Y-105544952D01*
X127865809Y-105497333D01*
X127770571Y-105449714D01*
X127580095Y-105449714D01*
X127484857Y-105497333D01*
X126913428Y-106116380D02*
X127008666Y-106068761D01*
X127056285Y-106021142D01*
X127103904Y-105925904D01*
X127103904Y-105640190D01*
X127056285Y-105544952D01*
X127008666Y-105497333D01*
X126913428Y-105449714D01*
X126770571Y-105449714D01*
X126675333Y-105497333D01*
X126627714Y-105544952D01*
X126580095Y-105640190D01*
X126580095Y-105925904D01*
X126627714Y-106021142D01*
X126675333Y-106068761D01*
X126770571Y-106116380D01*
X126913428Y-106116380D01*
X126151523Y-106116380D02*
X126151523Y-105449714D01*
X126151523Y-105544952D02*
X126103904Y-105497333D01*
X126008666Y-105449714D01*
X125865809Y-105449714D01*
X125770571Y-105497333D01*
X125722952Y-105592571D01*
X125722952Y-106116380D01*
X125722952Y-105592571D02*
X125675333Y-105497333D01*
X125580095Y-105449714D01*
X125437238Y-105449714D01*
X125342000Y-105497333D01*
X125294380Y-105592571D01*
X125294380Y-106116380D01*
X139508666Y-107059714D02*
X139270571Y-107726380D01*
X139032476Y-107059714D01*
X138461047Y-106726380D02*
X138365809Y-106726380D01*
X138270571Y-106774000D01*
X138222952Y-106821619D01*
X138175333Y-106916857D01*
X138127714Y-107107333D01*
X138127714Y-107345428D01*
X138175333Y-107535904D01*
X138222952Y-107631142D01*
X138270571Y-107678761D01*
X138365809Y-107726380D01*
X138461047Y-107726380D01*
X138556285Y-107678761D01*
X138603904Y-107631142D01*
X138651523Y-107535904D01*
X138699142Y-107345428D01*
X138699142Y-107107333D01*
X138651523Y-106916857D01*
X138603904Y-106821619D01*
X138556285Y-106774000D01*
X138461047Y-106726380D01*
X137699142Y-107631142D02*
X137651523Y-107678761D01*
X137699142Y-107726380D01*
X137746761Y-107678761D01*
X137699142Y-107631142D01*
X137699142Y-107726380D01*
X136699142Y-107726380D02*
X137270571Y-107726380D01*
X136984857Y-107726380D02*
X136984857Y-106726380D01*
X137080095Y-106869238D01*
X137175333Y-106964476D01*
X137270571Y-107012095D01*
X135556285Y-106821619D02*
X135508666Y-106774000D01*
X135413428Y-106726380D01*
X135175333Y-106726380D01*
X135080095Y-106774000D01*
X135032476Y-106821619D01*
X134984857Y-106916857D01*
X134984857Y-107012095D01*
X135032476Y-107154952D01*
X135603904Y-107726380D01*
X134984857Y-107726380D01*
X134127714Y-106726380D02*
X134318190Y-106726380D01*
X134413428Y-106774000D01*
X134461047Y-106821619D01*
X134556285Y-106964476D01*
X134603904Y-107154952D01*
X134603904Y-107535904D01*
X134556285Y-107631142D01*
X134508666Y-107678761D01*
X134413428Y-107726380D01*
X134222952Y-107726380D01*
X134127714Y-107678761D01*
X134080095Y-107631142D01*
X134032476Y-107535904D01*
X134032476Y-107297809D01*
X134080095Y-107202571D01*
X134127714Y-107154952D01*
X134222952Y-107107333D01*
X134413428Y-107107333D01*
X134508666Y-107154952D01*
X134556285Y-107202571D01*
X134603904Y-107297809D01*
X132889619Y-106678761D02*
X133746761Y-107964476D01*
X132032476Y-107726380D02*
X132603904Y-107726380D01*
X132318190Y-107726380D02*
X132318190Y-106726380D01*
X132413428Y-106869238D01*
X132508666Y-106964476D01*
X132603904Y-107012095D01*
X131651523Y-106821619D02*
X131603904Y-106774000D01*
X131508666Y-106726380D01*
X131270571Y-106726380D01*
X131175333Y-106774000D01*
X131127714Y-106821619D01*
X131080095Y-106916857D01*
X131080095Y-107012095D01*
X131127714Y-107154952D01*
X131699142Y-107726380D01*
X131080095Y-107726380D01*
X129937238Y-106678761D02*
X130794380Y-107964476D01*
X129651523Y-106821619D02*
X129603904Y-106774000D01*
X129508666Y-106726380D01*
X129270571Y-106726380D01*
X129175333Y-106774000D01*
X129127714Y-106821619D01*
X129080095Y-106916857D01*
X129080095Y-107012095D01*
X129127714Y-107154952D01*
X129699142Y-107726380D01*
X129080095Y-107726380D01*
X128461047Y-106726380D02*
X128365809Y-106726380D01*
X128270571Y-106774000D01*
X128222952Y-106821619D01*
X128175333Y-106916857D01*
X128127714Y-107107333D01*
X128127714Y-107345428D01*
X128175333Y-107535904D01*
X128222952Y-107631142D01*
X128270571Y-107678761D01*
X128365809Y-107726380D01*
X128461047Y-107726380D01*
X128556285Y-107678761D01*
X128603904Y-107631142D01*
X128651523Y-107535904D01*
X128699142Y-107345428D01*
X128699142Y-107107333D01*
X128651523Y-106916857D01*
X128603904Y-106821619D01*
X128556285Y-106774000D01*
X128461047Y-106726380D01*
X127746761Y-106821619D02*
X127699142Y-106774000D01*
X127603904Y-106726380D01*
X127365809Y-106726380D01*
X127270571Y-106774000D01*
X127222952Y-106821619D01*
X127175333Y-106916857D01*
X127175333Y-107012095D01*
X127222952Y-107154952D01*
X127794380Y-107726380D01*
X127175333Y-107726380D01*
X126556285Y-106726380D02*
X126461047Y-106726380D01*
X126365809Y-106774000D01*
X126318190Y-106821619D01*
X126270571Y-106916857D01*
X126222952Y-107107333D01*
X126222952Y-107345428D01*
X126270571Y-107535904D01*
X126318190Y-107631142D01*
X126365809Y-107678761D01*
X126461047Y-107726380D01*
X126556285Y-107726380D01*
X126651523Y-107678761D01*
X126699142Y-107631142D01*
X126746761Y-107535904D01*
X126794380Y-107345428D01*
X126794380Y-107107333D01*
X126746761Y-106916857D01*
X126699142Y-106821619D01*
X126651523Y-106774000D01*
X126556285Y-106726380D01*
X133754761Y-118578380D02*
X133802380Y-118721237D01*
X133802380Y-118959333D01*
X133754761Y-119054571D01*
X133707142Y-119102190D01*
X133611904Y-119149809D01*
X133516666Y-119149809D01*
X133421428Y-119102190D01*
X133373809Y-119054571D01*
X133326190Y-118959333D01*
X133278571Y-118768857D01*
X133230952Y-118673618D01*
X133183333Y-118625999D01*
X133088095Y-118578380D01*
X132992857Y-118578380D01*
X132897619Y-118625999D01*
X132850000Y-118673618D01*
X132802380Y-118768857D01*
X132802380Y-119006952D01*
X132850000Y-119149809D01*
X133707142Y-120149809D02*
X133754761Y-120102190D01*
X133802380Y-119959333D01*
X133802380Y-119864095D01*
X133754761Y-119721237D01*
X133659523Y-119625999D01*
X133564285Y-119578380D01*
X133373809Y-119530761D01*
X133230952Y-119530761D01*
X133040476Y-119578380D01*
X132945238Y-119625999D01*
X132850000Y-119721237D01*
X132802380Y-119864095D01*
X132802380Y-119959333D01*
X132850000Y-120102190D01*
X132897619Y-120149809D01*
X133802380Y-121054571D02*
X133802380Y-120578380D01*
X132802380Y-120578380D01*
X127440000Y-116625999D02*
X127440000Y-117625999D01*
X128722380Y-117435523D02*
X128246190Y-117102189D01*
X128722380Y-116864094D02*
X127722380Y-116864094D01*
X127722380Y-117245046D01*
X127770000Y-117340284D01*
X127817619Y-117387904D01*
X127912857Y-117435523D01*
X128055714Y-117435523D01*
X128150952Y-117387904D01*
X128198571Y-117340284D01*
X128246190Y-117245046D01*
X128246190Y-116864094D01*
X127440000Y-117625999D02*
X127440000Y-118530761D01*
X128198571Y-117864094D02*
X128198571Y-118197427D01*
X128722380Y-118340284D02*
X128722380Y-117864094D01*
X127722380Y-117864094D01*
X127722380Y-118340284D01*
X127440000Y-118530761D02*
X127440000Y-119483142D01*
X128674761Y-118721237D02*
X128722380Y-118864094D01*
X128722380Y-119102189D01*
X128674761Y-119197427D01*
X128627142Y-119245046D01*
X128531904Y-119292665D01*
X128436666Y-119292665D01*
X128341428Y-119245046D01*
X128293809Y-119197427D01*
X128246190Y-119102189D01*
X128198571Y-118911713D01*
X128150952Y-118816475D01*
X128103333Y-118768856D01*
X128008095Y-118721237D01*
X127912857Y-118721237D01*
X127817619Y-118768856D01*
X127770000Y-118816475D01*
X127722380Y-118911713D01*
X127722380Y-119149808D01*
X127770000Y-119292665D01*
X127440000Y-119483142D02*
X127440000Y-120387904D01*
X128198571Y-119721237D02*
X128198571Y-120054570D01*
X128722380Y-120197427D02*
X128722380Y-119721237D01*
X127722380Y-119721237D01*
X127722380Y-120197427D01*
X127440000Y-120387904D02*
X127440000Y-121149808D01*
X127722380Y-120483142D02*
X127722380Y-121054570D01*
X128722380Y-120768856D02*
X127722380Y-120768856D01*
X136294761Y-118530761D02*
X136342380Y-118673618D01*
X136342380Y-118911713D01*
X136294761Y-119006951D01*
X136247142Y-119054570D01*
X136151904Y-119102189D01*
X136056666Y-119102189D01*
X135961428Y-119054570D01*
X135913809Y-119006951D01*
X135866190Y-118911713D01*
X135818571Y-118721237D01*
X135770952Y-118625999D01*
X135723333Y-118578380D01*
X135628095Y-118530761D01*
X135532857Y-118530761D01*
X135437619Y-118578380D01*
X135390000Y-118625999D01*
X135342380Y-118721237D01*
X135342380Y-118959332D01*
X135390000Y-119102189D01*
X136342380Y-119530761D02*
X135342380Y-119530761D01*
X135342380Y-119768856D01*
X135390000Y-119911713D01*
X135485238Y-120006951D01*
X135580476Y-120054570D01*
X135770952Y-120102189D01*
X135913809Y-120102189D01*
X136104285Y-120054570D01*
X136199523Y-120006951D01*
X136294761Y-119911713D01*
X136342380Y-119768856D01*
X136342380Y-119530761D01*
X136056666Y-120483142D02*
X136056666Y-120959332D01*
X136342380Y-120387904D02*
X135342380Y-120721237D01*
X136342380Y-121054570D01*
X122642380Y-119387904D02*
X123642380Y-119721238D01*
X122642380Y-120054571D01*
X123642380Y-120387904D02*
X122642380Y-120387904D01*
X122642380Y-120768857D01*
X122690000Y-120864095D01*
X122737619Y-120911714D01*
X122832857Y-120959333D01*
X122975714Y-120959333D01*
X123070952Y-120911714D01*
X123118571Y-120864095D01*
X123166190Y-120768857D01*
X123166190Y-120387904D01*
X141422380Y-119864094D02*
X140422380Y-119864094D01*
X141422380Y-120340284D02*
X140422380Y-120340284D01*
X141422380Y-120911713D01*
X140422380Y-120911713D01*
X125182380Y-119340285D02*
X126182380Y-119673618D01*
X125182380Y-120006951D01*
X126182380Y-120340285D02*
X125182380Y-120340285D01*
X126182380Y-120911713D01*
X125182380Y-120911713D01*
X130738571Y-116911714D02*
X130738571Y-117245047D01*
X131262380Y-117387904D02*
X131262380Y-116911714D01*
X130262380Y-116911714D01*
X130262380Y-117387904D01*
X130262380Y-117673618D02*
X131262380Y-118006952D01*
X130262380Y-118340285D01*
X130738571Y-118673618D02*
X130738571Y-119006952D01*
X131262380Y-119149809D02*
X131262380Y-118673618D01*
X130262380Y-118673618D01*
X130262380Y-119149809D01*
X131262380Y-119578380D02*
X130262380Y-119578380D01*
X131262380Y-120149809D01*
X130262380Y-120149809D01*
X130262380Y-120483142D02*
X130262380Y-121054571D01*
X131262380Y-120768856D02*
X130262380Y-120768856D01*
X138882380Y-119911714D02*
X137882380Y-119911714D01*
X138882380Y-120387904D02*
X137882380Y-120387904D01*
X137882380Y-120768856D01*
X137930000Y-120864094D01*
X137977619Y-120911714D01*
X138072857Y-120959333D01*
X138215714Y-120959333D01*
X138310952Y-120911714D01*
X138358571Y-120864094D01*
X138406190Y-120768856D01*
X138406190Y-120387904D01*
X143010000Y-117864095D02*
X142962380Y-117768857D01*
X142962380Y-117626000D01*
X143010000Y-117483142D01*
X143105238Y-117387904D01*
X143200476Y-117340285D01*
X143390952Y-117292666D01*
X143533809Y-117292666D01*
X143724285Y-117340285D01*
X143819523Y-117387904D01*
X143914761Y-117483142D01*
X143962380Y-117626000D01*
X143962380Y-117721238D01*
X143914761Y-117864095D01*
X143867142Y-117911714D01*
X143533809Y-117911714D01*
X143533809Y-117721238D01*
X143962380Y-118340285D02*
X142962380Y-118340285D01*
X143962380Y-118911714D01*
X142962380Y-118911714D01*
X143962380Y-119387904D02*
X142962380Y-119387904D01*
X142962380Y-119626000D01*
X143010000Y-119768857D01*
X143105238Y-119864095D01*
X143200476Y-119911714D01*
X143390952Y-119959333D01*
X143533809Y-119959333D01*
X143724285Y-119911714D01*
X143819523Y-119864095D01*
X143914761Y-119768857D01*
X143962380Y-119626000D01*
X143962380Y-119387904D01*
X143962380Y-120387904D02*
X142962380Y-120387904D01*
X142962380Y-120626000D01*
X143010000Y-120768857D01*
X143105238Y-120864095D01*
X143200476Y-120911714D01*
X143390952Y-120959333D01*
X143533809Y-120959333D01*
X143724285Y-120911714D01*
X143819523Y-120864095D01*
X143914761Y-120768857D01*
X143962380Y-120626000D01*
X143962380Y-120387904D01*
D11*
%TO.C,A1*%
X128206428Y-101733333D02*
X127825476Y-101733333D01*
X128282619Y-101961904D02*
X128015952Y-101161904D01*
X127749285Y-101961904D01*
X127063571Y-101961904D02*
X127520714Y-101961904D01*
X127292142Y-101961904D02*
X127292142Y-101161904D01*
X127368333Y-101276190D01*
X127444523Y-101352380D01*
X127520714Y-101390476D01*
%TO.C,TP3*%
X121405523Y-101161904D02*
X120948380Y-101161904D01*
X121176952Y-101961904D02*
X121176952Y-101161904D01*
X120681714Y-101961904D02*
X120681714Y-101161904D01*
X120376952Y-101161904D01*
X120300761Y-101200000D01*
X120262666Y-101238095D01*
X120224571Y-101314285D01*
X120224571Y-101428571D01*
X120262666Y-101504761D01*
X120300761Y-101542857D01*
X120376952Y-101580952D01*
X120681714Y-101580952D01*
X119957904Y-101161904D02*
X119462666Y-101161904D01*
X119729333Y-101466666D01*
X119615047Y-101466666D01*
X119538857Y-101504761D01*
X119500761Y-101542857D01*
X119462666Y-101619047D01*
X119462666Y-101809523D01*
X119500761Y-101885714D01*
X119538857Y-101923809D01*
X119615047Y-101961904D01*
X119843619Y-101961904D01*
X119919809Y-101923809D01*
X119957904Y-101885714D01*
%TO.C,TP2*%
X124453523Y-101161904D02*
X123996380Y-101161904D01*
X124224952Y-101961904D02*
X124224952Y-101161904D01*
X123729714Y-101961904D02*
X123729714Y-101161904D01*
X123424952Y-101161904D01*
X123348761Y-101200000D01*
X123310666Y-101238095D01*
X123272571Y-101314285D01*
X123272571Y-101428571D01*
X123310666Y-101504761D01*
X123348761Y-101542857D01*
X123424952Y-101580952D01*
X123729714Y-101580952D01*
X122967809Y-101238095D02*
X122929714Y-101200000D01*
X122853523Y-101161904D01*
X122663047Y-101161904D01*
X122586857Y-101200000D01*
X122548761Y-101238095D01*
X122510666Y-101314285D01*
X122510666Y-101390476D01*
X122548761Y-101504761D01*
X123005904Y-101961904D01*
X122510666Y-101961904D01*
%TO.C,TP1*%
X145535523Y-104971904D02*
X145078380Y-104971904D01*
X145306952Y-105771904D02*
X145306952Y-104971904D01*
X144811714Y-105771904D02*
X144811714Y-104971904D01*
X144506952Y-104971904D01*
X144430761Y-105010000D01*
X144392666Y-105048095D01*
X144354571Y-105124285D01*
X144354571Y-105238571D01*
X144392666Y-105314761D01*
X144430761Y-105352857D01*
X144506952Y-105390952D01*
X144811714Y-105390952D01*
X143592666Y-105771904D02*
X144049809Y-105771904D01*
X143821238Y-105771904D02*
X143821238Y-104971904D01*
X143897428Y-105086190D01*
X143973619Y-105162380D01*
X144049809Y-105200476D01*
%TO.C,J5*%
X145173666Y-116147904D02*
X145173666Y-116719333D01*
X145211761Y-116833619D01*
X145287952Y-116909809D01*
X145402238Y-116947904D01*
X145478428Y-116947904D01*
X144411761Y-116147904D02*
X144792714Y-116147904D01*
X144830809Y-116528857D01*
X144792714Y-116490761D01*
X144716523Y-116452666D01*
X144526047Y-116452666D01*
X144449857Y-116490761D01*
X144411761Y-116528857D01*
X144373666Y-116605047D01*
X144373666Y-116795523D01*
X144411761Y-116871714D01*
X144449857Y-116909809D01*
X144526047Y-116947904D01*
X144716523Y-116947904D01*
X144792714Y-116909809D01*
X144830809Y-116871714D01*
%TO.C,J2*%
X145173666Y-108781904D02*
X145173666Y-109353333D01*
X145211761Y-109467619D01*
X145287952Y-109543809D01*
X145402238Y-109581904D01*
X145478428Y-109581904D01*
X144830809Y-108858095D02*
X144792714Y-108820000D01*
X144716523Y-108781904D01*
X144526047Y-108781904D01*
X144449857Y-108820000D01*
X144411761Y-108858095D01*
X144373666Y-108934285D01*
X144373666Y-109010476D01*
X144411761Y-109124761D01*
X144868904Y-109581904D01*
X144373666Y-109581904D01*
%TO.C,A0*%
X135826428Y-101733333D02*
X135445476Y-101733333D01*
X135902619Y-101961904D02*
X135635952Y-101161904D01*
X135369285Y-101961904D01*
X134950238Y-101161904D02*
X134874047Y-101161904D01*
X134797857Y-101200000D01*
X134759761Y-101238095D01*
X134721666Y-101314285D01*
X134683571Y-101466666D01*
X134683571Y-101657142D01*
X134721666Y-101809523D01*
X134759761Y-101885714D01*
X134797857Y-101923809D01*
X134874047Y-101961904D01*
X134950238Y-101961904D01*
X135026428Y-101923809D01*
X135064523Y-101885714D01*
X135102619Y-101809523D01*
X135140714Y-101657142D01*
X135140714Y-101466666D01*
X135102619Y-101314285D01*
X135064523Y-101238095D01*
X135026428Y-101200000D01*
X134950238Y-101161904D01*
%TO.C,J4*%
X145173666Y-112591904D02*
X145173666Y-113163333D01*
X145211761Y-113277619D01*
X145287952Y-113353809D01*
X145402238Y-113391904D01*
X145478428Y-113391904D01*
X144449857Y-112858571D02*
X144449857Y-113391904D01*
X144640333Y-112553809D02*
X144830809Y-113125238D01*
X144335571Y-113125238D01*
D12*
%TO.C,LOGO1*%
X132196114Y-115643289D02*
X132191861Y-115702613D01*
X132191861Y-115702613D02*
X132186975Y-115737572D01*
X132186975Y-115737572D02*
X132180205Y-115752820D01*
X132180205Y-115752820D02*
X132170298Y-115753015D01*
X132170298Y-115753015D02*
X132167086Y-115751195D01*
X132167086Y-115751195D02*
X132124356Y-115738015D01*
X132124356Y-115738015D02*
X132068773Y-115738785D01*
X132068773Y-115738785D02*
X132012263Y-115752333D01*
X132012263Y-115752333D02*
X131976918Y-115769861D01*
X131976918Y-115769861D02*
X131940679Y-115797861D01*
X131940679Y-115797861D02*
X131914187Y-115829549D01*
X131914187Y-115829549D02*
X131896001Y-115869813D01*
X131896001Y-115869813D02*
X131884678Y-115923543D01*
X131884678Y-115923543D02*
X131878778Y-115995626D01*
X131878778Y-115995626D02*
X131876857Y-116090951D01*
X131876857Y-116090951D02*
X131876823Y-116109237D01*
X131876823Y-116109237D02*
X131876800Y-116314646D01*
X131876800Y-116314646D02*
X131922509Y-116330580D01*
X131922509Y-116330580D02*
X131954973Y-116341420D01*
X131954973Y-116341420D02*
X131972785Y-116346468D01*
X131972785Y-116346468D02*
X131973309Y-116346514D01*
X131973309Y-116346514D02*
X131975063Y-116332828D01*
X131975063Y-116332828D02*
X131976556Y-116295076D01*
X131976556Y-116295076D02*
X131977674Y-116238224D01*
X131977674Y-116238224D02*
X131978303Y-116167234D01*
X131978303Y-116167234D02*
X131978400Y-116124073D01*
X131978400Y-116124073D02*
X131978602Y-116038973D01*
X131978602Y-116038973D02*
X131979642Y-115977981D01*
X131979642Y-115977981D02*
X131982169Y-115936177D01*
X131982169Y-115936177D02*
X131986836Y-115908642D01*
X131986836Y-115908642D02*
X131994293Y-115890456D01*
X131994293Y-115890456D02*
X132005189Y-115876698D01*
X132005189Y-115876698D02*
X132011993Y-115870073D01*
X132011993Y-115870073D02*
X132058728Y-115843375D01*
X132058728Y-115843375D02*
X132109728Y-115841375D01*
X132109728Y-115841375D02*
X132155999Y-115863955D01*
X132155999Y-115863955D02*
X132164556Y-115872107D01*
X132164556Y-115872107D02*
X132177107Y-115887436D01*
X132177107Y-115887436D02*
X132185812Y-115905618D01*
X132185812Y-115905618D02*
X132191369Y-115931909D01*
X132191369Y-115931909D02*
X132194474Y-115971562D01*
X132194474Y-115971562D02*
X132195824Y-116029832D01*
X132195824Y-116029832D02*
X132196114Y-116110173D01*
X132196114Y-116110173D02*
X132196114Y-116314646D01*
X132196114Y-116314646D02*
X132241823Y-116330580D01*
X132241823Y-116330580D02*
X132274287Y-116341420D01*
X132274287Y-116341420D02*
X132292099Y-116346468D01*
X132292099Y-116346468D02*
X132292623Y-116346514D01*
X132292623Y-116346514D02*
X132293963Y-116332623D01*
X132293963Y-116332623D02*
X132295172Y-116293439D01*
X132295172Y-116293439D02*
X132296199Y-116232700D01*
X132296199Y-116232700D02*
X132296998Y-116154141D01*
X132296998Y-116154141D02*
X132297519Y-116061498D01*
X132297519Y-116061498D02*
X132297714Y-115958509D01*
X132297714Y-115958509D02*
X132297714Y-115561342D01*
X132297714Y-115561342D02*
X132250543Y-115541444D01*
X132250543Y-115541444D02*
X132203371Y-115521547D01*
X132203371Y-115521547D02*
X132196114Y-115643289D01*
X132196114Y-115643289D02*
X132196114Y-115643289D01*
G36*
X132250543Y-115541444D02*
G01*
X132297714Y-115561342D01*
X132297714Y-115958509D01*
X132297519Y-116061498D01*
X132296998Y-116154141D01*
X132296199Y-116232700D01*
X132295172Y-116293439D01*
X132293963Y-116332623D01*
X132292623Y-116346514D01*
X132292099Y-116346468D01*
X132274287Y-116341420D01*
X132241823Y-116330580D01*
X132196114Y-116314646D01*
X132196114Y-116110173D01*
X132195824Y-116029832D01*
X132194474Y-115971562D01*
X132191369Y-115931909D01*
X132185812Y-115905618D01*
X132177107Y-115887436D01*
X132164556Y-115872107D01*
X132155999Y-115863955D01*
X132109728Y-115841375D01*
X132058728Y-115843375D01*
X132011993Y-115870073D01*
X132005189Y-115876698D01*
X131994293Y-115890456D01*
X131986836Y-115908642D01*
X131982169Y-115936177D01*
X131979642Y-115977981D01*
X131978602Y-116038973D01*
X131978400Y-116124073D01*
X131978303Y-116167234D01*
X131977674Y-116238224D01*
X131976556Y-116295076D01*
X131975063Y-116332828D01*
X131973309Y-116346514D01*
X131972785Y-116346468D01*
X131954973Y-116341420D01*
X131922509Y-116330580D01*
X131876800Y-116314646D01*
X131876823Y-116109237D01*
X131876857Y-116090951D01*
X131878778Y-115995626D01*
X131884678Y-115923543D01*
X131896001Y-115869813D01*
X131914187Y-115829549D01*
X131940679Y-115797861D01*
X131976918Y-115769861D01*
X132012263Y-115752333D01*
X132068773Y-115738785D01*
X132124356Y-115738015D01*
X132167086Y-115751195D01*
X132170298Y-115753015D01*
X132180205Y-115752820D01*
X132186975Y-115737572D01*
X132191861Y-115702613D01*
X132196114Y-115643289D01*
X132203371Y-115521547D01*
X132250543Y-115541444D01*
G37*
X132250543Y-115541444D02*
X132297714Y-115561342D01*
X132297714Y-115958509D01*
X132297519Y-116061498D01*
X132296998Y-116154141D01*
X132296199Y-116232700D01*
X132295172Y-116293439D01*
X132293963Y-116332623D01*
X132292623Y-116346514D01*
X132292099Y-116346468D01*
X132274287Y-116341420D01*
X132241823Y-116330580D01*
X132196114Y-116314646D01*
X132196114Y-116110173D01*
X132195824Y-116029832D01*
X132194474Y-115971562D01*
X132191369Y-115931909D01*
X132185812Y-115905618D01*
X132177107Y-115887436D01*
X132164556Y-115872107D01*
X132155999Y-115863955D01*
X132109728Y-115841375D01*
X132058728Y-115843375D01*
X132011993Y-115870073D01*
X132005189Y-115876698D01*
X131994293Y-115890456D01*
X131986836Y-115908642D01*
X131982169Y-115936177D01*
X131979642Y-115977981D01*
X131978602Y-116038973D01*
X131978400Y-116124073D01*
X131978303Y-116167234D01*
X131977674Y-116238224D01*
X131976556Y-116295076D01*
X131975063Y-116332828D01*
X131973309Y-116346514D01*
X131972785Y-116346468D01*
X131954973Y-116341420D01*
X131922509Y-116330580D01*
X131876800Y-116314646D01*
X131876823Y-116109237D01*
X131876857Y-116090951D01*
X131878778Y-115995626D01*
X131884678Y-115923543D01*
X131896001Y-115869813D01*
X131914187Y-115829549D01*
X131940679Y-115797861D01*
X131976918Y-115769861D01*
X132012263Y-115752333D01*
X132068773Y-115738785D01*
X132124356Y-115738015D01*
X132167086Y-115751195D01*
X132170298Y-115753015D01*
X132180205Y-115752820D01*
X132186975Y-115737572D01*
X132191861Y-115702613D01*
X132196114Y-115643289D01*
X132203371Y-115521547D01*
X132250543Y-115541444D01*
X131468090Y-111034348D02*
X131389546Y-111034778D01*
X131389546Y-111034778D02*
X131332702Y-111035942D01*
X131332702Y-111035942D02*
X131293895Y-111038207D01*
X131293895Y-111038207D02*
X131269462Y-111041940D01*
X131269462Y-111041940D02*
X131255738Y-111047506D01*
X131255738Y-111047506D02*
X131249060Y-111055273D01*
X131249060Y-111055273D02*
X131245764Y-111065605D01*
X131245764Y-111065605D02*
X131245444Y-111066943D01*
X131245444Y-111066943D02*
X131240438Y-111091079D01*
X131240438Y-111091079D02*
X131231171Y-111138701D01*
X131231171Y-111138701D02*
X131218608Y-111204741D01*
X131218608Y-111204741D02*
X131203713Y-111284128D01*
X131203713Y-111284128D02*
X131187449Y-111371796D01*
X131187449Y-111371796D02*
X131186881Y-111374875D01*
X131186881Y-111374875D02*
X131170590Y-111460789D01*
X131170590Y-111460789D02*
X131155348Y-111536696D01*
X131155348Y-111536696D02*
X131142139Y-111598045D01*
X131142139Y-111598045D02*
X131131946Y-111640282D01*
X131131946Y-111640282D02*
X131125752Y-111658855D01*
X131125752Y-111658855D02*
X131125457Y-111659184D01*
X131125457Y-111659184D02*
X131107212Y-111668253D01*
X131107212Y-111668253D02*
X131069595Y-111683367D01*
X131069595Y-111683367D02*
X131020729Y-111701262D01*
X131020729Y-111701262D02*
X131020457Y-111701358D01*
X131020457Y-111701358D02*
X130958907Y-111724493D01*
X130958907Y-111724493D02*
X130886343Y-111753965D01*
X130886343Y-111753965D02*
X130817943Y-111783597D01*
X130817943Y-111783597D02*
X130814706Y-111785062D01*
X130814706Y-111785062D02*
X130703298Y-111835626D01*
X130703298Y-111835626D02*
X130456601Y-111667160D01*
X130456601Y-111667160D02*
X130380923Y-111615803D01*
X130380923Y-111615803D02*
X130312369Y-111569889D01*
X130312369Y-111569889D02*
X130254912Y-111532030D01*
X130254912Y-111532030D02*
X130212524Y-111504837D01*
X130212524Y-111504837D02*
X130189175Y-111490921D01*
X130189175Y-111490921D02*
X130186958Y-111489889D01*
X130186958Y-111489889D02*
X130169990Y-111494484D01*
X130169990Y-111494484D02*
X130138299Y-111516655D01*
X130138299Y-111516655D02*
X130090648Y-111557447D01*
X130090648Y-111557447D02*
X130025802Y-111617905D01*
X130025802Y-111617905D02*
X129959603Y-111682227D01*
X129959603Y-111682227D02*
X129895786Y-111745612D01*
X129895786Y-111745612D02*
X129838671Y-111803451D01*
X129838671Y-111803451D02*
X129791695Y-111852175D01*
X129791695Y-111852175D02*
X129758297Y-111888210D01*
X129758297Y-111888210D02*
X129741915Y-111907984D01*
X129741915Y-111907984D02*
X129741306Y-111909002D01*
X129741306Y-111909002D02*
X129739495Y-111922572D01*
X129739495Y-111922572D02*
X129746317Y-111944733D01*
X129746317Y-111944733D02*
X129763460Y-111978478D01*
X129763460Y-111978478D02*
X129792607Y-112026800D01*
X129792607Y-112026800D02*
X129835445Y-112092692D01*
X129835445Y-112092692D02*
X129892552Y-112177517D01*
X129892552Y-112177517D02*
X129943234Y-112252177D01*
X129943234Y-112252177D02*
X129988539Y-112319140D01*
X129988539Y-112319140D02*
X130025850Y-112374516D01*
X130025850Y-112374516D02*
X130052548Y-112414420D01*
X130052548Y-112414420D02*
X130066015Y-112434962D01*
X130066015Y-112434962D02*
X130066863Y-112436356D01*
X130066863Y-112436356D02*
X130065219Y-112456038D01*
X130065219Y-112456038D02*
X130052755Y-112494293D01*
X130052755Y-112494293D02*
X130031952Y-112543889D01*
X130031952Y-112543889D02*
X130024538Y-112559728D01*
X130024538Y-112559728D02*
X129992186Y-112630290D01*
X129992186Y-112630290D02*
X129957672Y-112710353D01*
X129957672Y-112710353D02*
X129929635Y-112779629D01*
X129929635Y-112779629D02*
X129909432Y-112831045D01*
X129909432Y-112831045D02*
X129893385Y-112870119D01*
X129893385Y-112870119D02*
X129884112Y-112890541D01*
X129884112Y-112890541D02*
X129882959Y-112892114D01*
X129882959Y-112892114D02*
X129865904Y-112894721D01*
X129865904Y-112894721D02*
X129825702Y-112901863D01*
X129825702Y-112901863D02*
X129767698Y-112912523D01*
X129767698Y-112912523D02*
X129697237Y-112925685D01*
X129697237Y-112925685D02*
X129619665Y-112940333D01*
X129619665Y-112940333D02*
X129540328Y-112955449D01*
X129540328Y-112955449D02*
X129464569Y-112970018D01*
X129464569Y-112970018D02*
X129397736Y-112983022D01*
X129397736Y-112983022D02*
X129345172Y-112993445D01*
X129345172Y-112993445D02*
X129312224Y-113000270D01*
X129312224Y-113000270D02*
X129304143Y-113002199D01*
X129304143Y-113002199D02*
X129295795Y-113006962D01*
X129295795Y-113006962D02*
X129289494Y-113017718D01*
X129289494Y-113017718D02*
X129284955Y-113038098D01*
X129284955Y-113038098D02*
X129281896Y-113071734D01*
X129281896Y-113071734D02*
X129280033Y-113122255D01*
X129280033Y-113122255D02*
X129279082Y-113193292D01*
X129279082Y-113193292D02*
X129278760Y-113288476D01*
X129278760Y-113288476D02*
X129278743Y-113327492D01*
X129278743Y-113327492D02*
X129278743Y-113644799D01*
X129278743Y-113644799D02*
X129354943Y-113659839D01*
X129354943Y-113659839D02*
X129397337Y-113667995D01*
X129397337Y-113667995D02*
X129460600Y-113679899D01*
X129460600Y-113679899D02*
X129537038Y-113694116D01*
X129537038Y-113694116D02*
X129618957Y-113709210D01*
X129618957Y-113709210D02*
X129641600Y-113713355D01*
X129641600Y-113713355D02*
X129717194Y-113728053D01*
X129717194Y-113728053D02*
X129783047Y-113742505D01*
X129783047Y-113742505D02*
X129833634Y-113755375D01*
X129833634Y-113755375D02*
X129863426Y-113765322D01*
X129863426Y-113765322D02*
X129868388Y-113768287D01*
X129868388Y-113768287D02*
X129880574Y-113789283D01*
X129880574Y-113789283D02*
X129898047Y-113829967D01*
X129898047Y-113829967D02*
X129917423Y-113882322D01*
X129917423Y-113882322D02*
X129921266Y-113893600D01*
X129921266Y-113893600D02*
X129946661Y-113963523D01*
X129946661Y-113963523D02*
X129978183Y-114042418D01*
X129978183Y-114042418D02*
X130009031Y-114113266D01*
X130009031Y-114113266D02*
X130009183Y-114113595D01*
X130009183Y-114113595D02*
X130060553Y-114224733D01*
X130060553Y-114224733D02*
X129891601Y-114473253D01*
X129891601Y-114473253D02*
X129722648Y-114721772D01*
X129722648Y-114721772D02*
X129939571Y-114939058D01*
X129939571Y-114939058D02*
X130005181Y-115003726D01*
X130005181Y-115003726D02*
X130065021Y-115060733D01*
X130065021Y-115060733D02*
X130115733Y-115107033D01*
X130115733Y-115107033D02*
X130153954Y-115139584D01*
X130153954Y-115139584D02*
X130176325Y-115155343D01*
X130176325Y-115155343D02*
X130179534Y-115156343D01*
X130179534Y-115156343D02*
X130198374Y-115148469D01*
X130198374Y-115148469D02*
X130236820Y-115126578D01*
X130236820Y-115126578D02*
X130290670Y-115093267D01*
X130290670Y-115093267D02*
X130355724Y-115051131D01*
X130355724Y-115051131D02*
X130426060Y-115003943D01*
X130426060Y-115003943D02*
X130497445Y-114955810D01*
X130497445Y-114955810D02*
X130561092Y-114913928D01*
X130561092Y-114913928D02*
X130612959Y-114880871D01*
X130612959Y-114880871D02*
X130649005Y-114859218D01*
X130649005Y-114859218D02*
X130665133Y-114851543D01*
X130665133Y-114851543D02*
X130684811Y-114858037D01*
X130684811Y-114858037D02*
X130722125Y-114875150D01*
X130722125Y-114875150D02*
X130769379Y-114899326D01*
X130769379Y-114899326D02*
X130774388Y-114902013D01*
X130774388Y-114902013D02*
X130838023Y-114933927D01*
X130838023Y-114933927D02*
X130881659Y-114949579D01*
X130881659Y-114949579D02*
X130908798Y-114949745D01*
X130908798Y-114949745D02*
X130922943Y-114935204D01*
X130922943Y-114935204D02*
X130923025Y-114935000D01*
X130923025Y-114935000D02*
X130930095Y-114917779D01*
X130930095Y-114917779D02*
X130946958Y-114876899D01*
X130946958Y-114876899D02*
X130972305Y-114815525D01*
X130972305Y-114815525D02*
X131004829Y-114736819D01*
X131004829Y-114736819D02*
X131043222Y-114643947D01*
X131043222Y-114643947D02*
X131086178Y-114540072D01*
X131086178Y-114540072D02*
X131127778Y-114439502D01*
X131127778Y-114439502D02*
X131173496Y-114328516D01*
X131173496Y-114328516D02*
X131215474Y-114225703D01*
X131215474Y-114225703D02*
X131252452Y-114134215D01*
X131252452Y-114134215D02*
X131283173Y-114057201D01*
X131283173Y-114057201D02*
X131306378Y-113997815D01*
X131306378Y-113997815D02*
X131320810Y-113959209D01*
X131320810Y-113959209D02*
X131325257Y-113944800D01*
X131325257Y-113944800D02*
X131314104Y-113928272D01*
X131314104Y-113928272D02*
X131284931Y-113901930D01*
X131284931Y-113901930D02*
X131246029Y-113872887D01*
X131246029Y-113872887D02*
X131135243Y-113781039D01*
X131135243Y-113781039D02*
X131048649Y-113675759D01*
X131048649Y-113675759D02*
X130987284Y-113559266D01*
X130987284Y-113559266D02*
X130952185Y-113433776D01*
X130952185Y-113433776D02*
X130944392Y-113301507D01*
X130944392Y-113301507D02*
X130950057Y-113240457D01*
X130950057Y-113240457D02*
X130980922Y-113113795D01*
X130980922Y-113113795D02*
X131034080Y-113001941D01*
X131034080Y-113001941D02*
X131106233Y-112906001D01*
X131106233Y-112906001D02*
X131194083Y-112827076D01*
X131194083Y-112827076D02*
X131294335Y-112766270D01*
X131294335Y-112766270D02*
X131403690Y-112724687D01*
X131403690Y-112724687D02*
X131518853Y-112703428D01*
X131518853Y-112703428D02*
X131636525Y-112703599D01*
X131636525Y-112703599D02*
X131753410Y-112726301D01*
X131753410Y-112726301D02*
X131866211Y-112772638D01*
X131866211Y-112772638D02*
X131971631Y-112843713D01*
X131971631Y-112843713D02*
X132015632Y-112883911D01*
X132015632Y-112883911D02*
X132100021Y-112987129D01*
X132100021Y-112987129D02*
X132158778Y-113099925D01*
X132158778Y-113099925D02*
X132192296Y-113219010D01*
X132192296Y-113219010D02*
X132200965Y-113341095D01*
X132200965Y-113341095D02*
X132185177Y-113462893D01*
X132185177Y-113462893D02*
X132145322Y-113581116D01*
X132145322Y-113581116D02*
X132081793Y-113692475D01*
X132081793Y-113692475D02*
X131994979Y-113793684D01*
X131994979Y-113793684D02*
X131897971Y-113872887D01*
X131897971Y-113872887D02*
X131857563Y-113903162D01*
X131857563Y-113903162D02*
X131829018Y-113929219D01*
X131829018Y-113929219D02*
X131818743Y-113944825D01*
X131818743Y-113944825D02*
X131824123Y-113961843D01*
X131824123Y-113961843D02*
X131839425Y-114002500D01*
X131839425Y-114002500D02*
X131863388Y-114063642D01*
X131863388Y-114063642D02*
X131894756Y-114142119D01*
X131894756Y-114142119D02*
X131932268Y-114234780D01*
X131932268Y-114234780D02*
X131974667Y-114338472D01*
X131974667Y-114338472D02*
X132016337Y-114439526D01*
X132016337Y-114439526D02*
X132062310Y-114550607D01*
X132062310Y-114550607D02*
X132104893Y-114653541D01*
X132104893Y-114653541D02*
X132142779Y-114745165D01*
X132142779Y-114745165D02*
X132174660Y-114822316D01*
X132174660Y-114822316D02*
X132199229Y-114881831D01*
X132199229Y-114881831D02*
X132215180Y-114920544D01*
X132215180Y-114920544D02*
X132221090Y-114935000D01*
X132221090Y-114935000D02*
X132235052Y-114949685D01*
X132235052Y-114949685D02*
X132262060Y-114949642D01*
X132262060Y-114949642D02*
X132305587Y-114934099D01*
X132305587Y-114934099D02*
X132369110Y-114902284D01*
X132369110Y-114902284D02*
X132369612Y-114902013D01*
X132369612Y-114902013D02*
X132417440Y-114877323D01*
X132417440Y-114877323D02*
X132456103Y-114859338D01*
X132456103Y-114859338D02*
X132477905Y-114851614D01*
X132477905Y-114851614D02*
X132478867Y-114851543D01*
X132478867Y-114851543D02*
X132495279Y-114859378D01*
X132495279Y-114859378D02*
X132531513Y-114881165D01*
X132531513Y-114881165D02*
X132583526Y-114914328D01*
X132583526Y-114914328D02*
X132647275Y-114956291D01*
X132647275Y-114956291D02*
X132717940Y-115003943D01*
X132717940Y-115003943D02*
X132789884Y-115052191D01*
X132789884Y-115052191D02*
X132854726Y-115094151D01*
X132854726Y-115094151D02*
X132908265Y-115127227D01*
X132908265Y-115127227D02*
X132946303Y-115148821D01*
X132946303Y-115148821D02*
X132964467Y-115156343D01*
X132964467Y-115156343D02*
X132981192Y-115146457D01*
X132981192Y-115146457D02*
X133014820Y-115118826D01*
X133014820Y-115118826D02*
X133061990Y-115076495D01*
X133061990Y-115076495D02*
X133119342Y-115022505D01*
X133119342Y-115022505D02*
X133183516Y-114959899D01*
X133183516Y-114959899D02*
X133204503Y-114938983D01*
X133204503Y-114938983D02*
X133421501Y-114721623D01*
X133421501Y-114721623D02*
X133256332Y-114479220D01*
X133256332Y-114479220D02*
X133206136Y-114404781D01*
X133206136Y-114404781D02*
X133162081Y-114337972D01*
X133162081Y-114337972D02*
X133126638Y-114282665D01*
X133126638Y-114282665D02*
X133102281Y-114242729D01*
X133102281Y-114242729D02*
X133091478Y-114222036D01*
X133091478Y-114222036D02*
X133091162Y-114220563D01*
X133091162Y-114220563D02*
X133096857Y-114201058D01*
X133096857Y-114201058D02*
X133112174Y-114161822D01*
X133112174Y-114161822D02*
X133134463Y-114109430D01*
X133134463Y-114109430D02*
X133150107Y-114074355D01*
X133150107Y-114074355D02*
X133179359Y-114007201D01*
X133179359Y-114007201D02*
X133206906Y-113939358D01*
X133206906Y-113939358D02*
X133228263Y-113882034D01*
X133228263Y-113882034D02*
X133234065Y-113864572D01*
X133234065Y-113864572D02*
X133250548Y-113817938D01*
X133250548Y-113817938D02*
X133266660Y-113781905D01*
X133266660Y-113781905D02*
X133275510Y-113768287D01*
X133275510Y-113768287D02*
X133295040Y-113759952D01*
X133295040Y-113759952D02*
X133337666Y-113748137D01*
X133337666Y-113748137D02*
X133397855Y-113734181D01*
X133397855Y-113734181D02*
X133470078Y-113719422D01*
X133470078Y-113719422D02*
X133502400Y-113713355D01*
X133502400Y-113713355D02*
X133584478Y-113698273D01*
X133584478Y-113698273D02*
X133663205Y-113683669D01*
X133663205Y-113683669D02*
X133730891Y-113670980D01*
X133730891Y-113670980D02*
X133779840Y-113661642D01*
X133779840Y-113661642D02*
X133789057Y-113659839D01*
X133789057Y-113659839D02*
X133865257Y-113644799D01*
X133865257Y-113644799D02*
X133865257Y-113327492D01*
X133865257Y-113327492D02*
X133865086Y-113223154D01*
X133865086Y-113223154D02*
X133864384Y-113144213D01*
X133864384Y-113144213D02*
X133862866Y-113087038D01*
X133862866Y-113087038D02*
X133860251Y-113047999D01*
X133860251Y-113047999D02*
X133856254Y-113023465D01*
X133856254Y-113023465D02*
X133850591Y-113009805D01*
X133850591Y-113009805D02*
X133842980Y-113003389D01*
X133842980Y-113003389D02*
X133839857Y-113002199D01*
X133839857Y-113002199D02*
X133821022Y-112997980D01*
X133821022Y-112997980D02*
X133779412Y-112989562D01*
X133779412Y-112989562D02*
X133720370Y-112977961D01*
X133720370Y-112977961D02*
X133649243Y-112964195D01*
X133649243Y-112964195D02*
X133571375Y-112949280D01*
X133571375Y-112949280D02*
X133492113Y-112934232D01*
X133492113Y-112934232D02*
X133416802Y-112920069D01*
X133416802Y-112920069D02*
X133350787Y-112907806D01*
X133350787Y-112907806D02*
X133299413Y-112898461D01*
X133299413Y-112898461D02*
X133268025Y-112893050D01*
X133268025Y-112893050D02*
X133261041Y-112892114D01*
X133261041Y-112892114D02*
X133254715Y-112879596D01*
X133254715Y-112879596D02*
X133240710Y-112846246D01*
X133240710Y-112846246D02*
X133221645Y-112798377D01*
X133221645Y-112798377D02*
X133214366Y-112779629D01*
X133214366Y-112779629D02*
X133185004Y-112707195D01*
X133185004Y-112707195D02*
X133150429Y-112627170D01*
X133150429Y-112627170D02*
X133119463Y-112559728D01*
X133119463Y-112559728D02*
X133096677Y-112508159D01*
X133096677Y-112508159D02*
X133081518Y-112465785D01*
X133081518Y-112465785D02*
X133076458Y-112439834D01*
X133076458Y-112439834D02*
X133077264Y-112436356D01*
X133077264Y-112436356D02*
X133087959Y-112419936D01*
X133087959Y-112419936D02*
X133112380Y-112383417D01*
X133112380Y-112383417D02*
X133147905Y-112330687D01*
X133147905Y-112330687D02*
X133191913Y-112265635D01*
X133191913Y-112265635D02*
X133241783Y-112192151D01*
X133241783Y-112192151D02*
X133251644Y-112177645D01*
X133251644Y-112177645D02*
X133309508Y-112091704D01*
X133309508Y-112091704D02*
X133352044Y-112026261D01*
X133352044Y-112026261D02*
X133380946Y-111978304D01*
X133380946Y-111978304D02*
X133397910Y-111944820D01*
X133397910Y-111944820D02*
X133404633Y-111922795D01*
X133404633Y-111922795D02*
X133402810Y-111909217D01*
X133402810Y-111909217D02*
X133402764Y-111909131D01*
X133402764Y-111909131D02*
X133388414Y-111891297D01*
X133388414Y-111891297D02*
X133356677Y-111856817D01*
X133356677Y-111856817D02*
X133310990Y-111809268D01*
X133310990Y-111809268D02*
X133254796Y-111752222D01*
X133254796Y-111752222D02*
X133191532Y-111689255D01*
X133191532Y-111689255D02*
X133184398Y-111682227D01*
X133184398Y-111682227D02*
X133104670Y-111605020D01*
X133104670Y-111605020D02*
X133043143Y-111548330D01*
X133043143Y-111548330D02*
X132998579Y-111511110D01*
X132998579Y-111511110D02*
X132969743Y-111492315D01*
X132969743Y-111492315D02*
X132957042Y-111489889D01*
X132957042Y-111489889D02*
X132938506Y-111500471D01*
X132938506Y-111500471D02*
X132900039Y-111524916D01*
X132900039Y-111524916D02*
X132845614Y-111560612D01*
X132845614Y-111560612D02*
X132779202Y-111604947D01*
X132779202Y-111604947D02*
X132704775Y-111655311D01*
X132704775Y-111655311D02*
X132687399Y-111667160D01*
X132687399Y-111667160D02*
X132440703Y-111835626D01*
X132440703Y-111835626D02*
X132329294Y-111785062D01*
X132329294Y-111785062D02*
X132261543Y-111755595D01*
X132261543Y-111755595D02*
X132188817Y-111725959D01*
X132188817Y-111725959D02*
X132126297Y-111702330D01*
X132126297Y-111702330D02*
X132123543Y-111701358D01*
X132123543Y-111701358D02*
X132074640Y-111683457D01*
X132074640Y-111683457D02*
X132036943Y-111668320D01*
X132036943Y-111668320D02*
X132018575Y-111659210D01*
X132018575Y-111659210D02*
X132018544Y-111659184D01*
X132018544Y-111659184D02*
X132012715Y-111642717D01*
X132012715Y-111642717D02*
X132002808Y-111602219D01*
X132002808Y-111602219D02*
X131989805Y-111542242D01*
X131989805Y-111542242D02*
X131974691Y-111467340D01*
X131974691Y-111467340D02*
X131958448Y-111382064D01*
X131958448Y-111382064D02*
X131957119Y-111374875D01*
X131957119Y-111374875D02*
X131940825Y-111287014D01*
X131940825Y-111287014D02*
X131925867Y-111207260D01*
X131925867Y-111207260D02*
X131913209Y-111140681D01*
X131913209Y-111140681D02*
X131903814Y-111092347D01*
X131903814Y-111092347D02*
X131898646Y-111067325D01*
X131898646Y-111067325D02*
X131898556Y-111066943D01*
X131898556Y-111066943D02*
X131895411Y-111056299D01*
X131895411Y-111056299D02*
X131889296Y-111048262D01*
X131889296Y-111048262D02*
X131876547Y-111042467D01*
X131876547Y-111042467D02*
X131853500Y-111038547D01*
X131853500Y-111038547D02*
X131816491Y-111036135D01*
X131816491Y-111036135D02*
X131761856Y-111034865D01*
X131761856Y-111034865D02*
X131685933Y-111034371D01*
X131685933Y-111034371D02*
X131585056Y-111034286D01*
X131585056Y-111034286D02*
X131572000Y-111034286D01*
X131572000Y-111034286D02*
X131468090Y-111034348D01*
X131468090Y-111034348D02*
X131468090Y-111034348D01*
G36*
X131685933Y-111034371D02*
G01*
X131761856Y-111034865D01*
X131816491Y-111036135D01*
X131853500Y-111038547D01*
X131876547Y-111042467D01*
X131889296Y-111048262D01*
X131895411Y-111056299D01*
X131898556Y-111066943D01*
X131898646Y-111067325D01*
X131903814Y-111092347D01*
X131913209Y-111140681D01*
X131925867Y-111207260D01*
X131940825Y-111287014D01*
X131957119Y-111374875D01*
X131958448Y-111382064D01*
X131974691Y-111467340D01*
X131989805Y-111542242D01*
X132002808Y-111602219D01*
X132012715Y-111642717D01*
X132018544Y-111659184D01*
X132018575Y-111659210D01*
X132036943Y-111668320D01*
X132074640Y-111683457D01*
X132123543Y-111701358D01*
X132126297Y-111702330D01*
X132188817Y-111725959D01*
X132261543Y-111755595D01*
X132329294Y-111785062D01*
X132440703Y-111835626D01*
X132687399Y-111667160D01*
X132704775Y-111655311D01*
X132779202Y-111604947D01*
X132845614Y-111560612D01*
X132900039Y-111524916D01*
X132938506Y-111500471D01*
X132957042Y-111489889D01*
X132969743Y-111492315D01*
X132998579Y-111511110D01*
X133043143Y-111548330D01*
X133104670Y-111605020D01*
X133184398Y-111682227D01*
X133191532Y-111689255D01*
X133254796Y-111752222D01*
X133310990Y-111809268D01*
X133356677Y-111856817D01*
X133388414Y-111891297D01*
X133402764Y-111909131D01*
X133402810Y-111909217D01*
X133404633Y-111922795D01*
X133397910Y-111944820D01*
X133380946Y-111978304D01*
X133352044Y-112026261D01*
X133309508Y-112091704D01*
X133251644Y-112177645D01*
X133241783Y-112192151D01*
X133191913Y-112265635D01*
X133147905Y-112330687D01*
X133112380Y-112383417D01*
X133087959Y-112419936D01*
X133077264Y-112436356D01*
X133076458Y-112439834D01*
X133081518Y-112465785D01*
X133096677Y-112508159D01*
X133119463Y-112559728D01*
X133150429Y-112627170D01*
X133185004Y-112707195D01*
X133214366Y-112779629D01*
X133221645Y-112798377D01*
X133240710Y-112846246D01*
X133254715Y-112879596D01*
X133261041Y-112892114D01*
X133268025Y-112893050D01*
X133299413Y-112898461D01*
X133350787Y-112907806D01*
X133416802Y-112920069D01*
X133492113Y-112934232D01*
X133571375Y-112949280D01*
X133649243Y-112964195D01*
X133720370Y-112977961D01*
X133779412Y-112989562D01*
X133821022Y-112997980D01*
X133839857Y-113002199D01*
X133842980Y-113003389D01*
X133850591Y-113009805D01*
X133856254Y-113023465D01*
X133860251Y-113047999D01*
X133862866Y-113087038D01*
X133864384Y-113144213D01*
X133865086Y-113223154D01*
X133865257Y-113327492D01*
X133865257Y-113644799D01*
X133789057Y-113659839D01*
X133779840Y-113661642D01*
X133730891Y-113670980D01*
X133663205Y-113683669D01*
X133584478Y-113698273D01*
X133502400Y-113713355D01*
X133470078Y-113719422D01*
X133397855Y-113734181D01*
X133337666Y-113748137D01*
X133295040Y-113759952D01*
X133275510Y-113768287D01*
X133266660Y-113781905D01*
X133250548Y-113817938D01*
X133234065Y-113864572D01*
X133228263Y-113882034D01*
X133206906Y-113939358D01*
X133179359Y-114007201D01*
X133150107Y-114074355D01*
X133134463Y-114109430D01*
X133112174Y-114161822D01*
X133096857Y-114201058D01*
X133091162Y-114220563D01*
X133091478Y-114222036D01*
X133102281Y-114242729D01*
X133126638Y-114282665D01*
X133162081Y-114337972D01*
X133206136Y-114404781D01*
X133256332Y-114479220D01*
X133421501Y-114721623D01*
X133204503Y-114938983D01*
X133183516Y-114959899D01*
X133119342Y-115022505D01*
X133061990Y-115076495D01*
X133014820Y-115118826D01*
X132981192Y-115146457D01*
X132964467Y-115156343D01*
X132946303Y-115148821D01*
X132908265Y-115127227D01*
X132854726Y-115094151D01*
X132789884Y-115052191D01*
X132717940Y-115003943D01*
X132647275Y-114956291D01*
X132583526Y-114914328D01*
X132531513Y-114881165D01*
X132495279Y-114859378D01*
X132478867Y-114851543D01*
X132477905Y-114851614D01*
X132456103Y-114859338D01*
X132417440Y-114877323D01*
X132369612Y-114902013D01*
X132369110Y-114902284D01*
X132305587Y-114934099D01*
X132262060Y-114949642D01*
X132235052Y-114949685D01*
X132221090Y-114935000D01*
X132215180Y-114920544D01*
X132199229Y-114881831D01*
X132174660Y-114822316D01*
X132142779Y-114745165D01*
X132104893Y-114653541D01*
X132062310Y-114550607D01*
X132016337Y-114439526D01*
X131974667Y-114338472D01*
X131932268Y-114234780D01*
X131894756Y-114142119D01*
X131863388Y-114063642D01*
X131839425Y-114002500D01*
X131824123Y-113961843D01*
X131818743Y-113944825D01*
X131829018Y-113929219D01*
X131857563Y-113903162D01*
X131897971Y-113872887D01*
X131994979Y-113793684D01*
X132081793Y-113692475D01*
X132145322Y-113581116D01*
X132185177Y-113462893D01*
X132200965Y-113341095D01*
X132192296Y-113219010D01*
X132158778Y-113099925D01*
X132100021Y-112987129D01*
X132015632Y-112883911D01*
X131971631Y-112843713D01*
X131866211Y-112772638D01*
X131753410Y-112726301D01*
X131636525Y-112703599D01*
X131518853Y-112703428D01*
X131403690Y-112724687D01*
X131294335Y-112766270D01*
X131194083Y-112827076D01*
X131106233Y-112906001D01*
X131034080Y-113001941D01*
X130980922Y-113113795D01*
X130950057Y-113240457D01*
X130944392Y-113301507D01*
X130952185Y-113433776D01*
X130987284Y-113559266D01*
X131048649Y-113675759D01*
X131135243Y-113781039D01*
X131246029Y-113872887D01*
X131284931Y-113901930D01*
X131314104Y-113928272D01*
X131325257Y-113944800D01*
X131320810Y-113959209D01*
X131306378Y-113997815D01*
X131283173Y-114057201D01*
X131252452Y-114134215D01*
X131215474Y-114225703D01*
X131173496Y-114328516D01*
X131127778Y-114439502D01*
X131086178Y-114540072D01*
X131043222Y-114643947D01*
X131004829Y-114736819D01*
X130972305Y-114815525D01*
X130946958Y-114876899D01*
X130930095Y-114917779D01*
X130923025Y-114935000D01*
X130922943Y-114935204D01*
X130908798Y-114949745D01*
X130881659Y-114949579D01*
X130838023Y-114933927D01*
X130774388Y-114902013D01*
X130769379Y-114899326D01*
X130722125Y-114875150D01*
X130684811Y-114858037D01*
X130665133Y-114851543D01*
X130649005Y-114859218D01*
X130612959Y-114880871D01*
X130561092Y-114913928D01*
X130497445Y-114955810D01*
X130426060Y-115003943D01*
X130355724Y-115051131D01*
X130290670Y-115093267D01*
X130236820Y-115126578D01*
X130198374Y-115148469D01*
X130179534Y-115156343D01*
X130176325Y-115155343D01*
X130153954Y-115139584D01*
X130115733Y-115107033D01*
X130065021Y-115060733D01*
X130005181Y-115003726D01*
X129939571Y-114939058D01*
X129722648Y-114721772D01*
X129891601Y-114473253D01*
X130060553Y-114224733D01*
X130009183Y-114113595D01*
X130009031Y-114113266D01*
X129978183Y-114042418D01*
X129946661Y-113963523D01*
X129921266Y-113893600D01*
X129917423Y-113882322D01*
X129898047Y-113829967D01*
X129880574Y-113789283D01*
X129868388Y-113768287D01*
X129863426Y-113765322D01*
X129833634Y-113755375D01*
X129783047Y-113742505D01*
X129717194Y-113728053D01*
X129641600Y-113713355D01*
X129618957Y-113709210D01*
X129537038Y-113694116D01*
X129460600Y-113679899D01*
X129397337Y-113667995D01*
X129354943Y-113659839D01*
X129278743Y-113644799D01*
X129278743Y-113327492D01*
X129278760Y-113288476D01*
X129279082Y-113193292D01*
X129280033Y-113122255D01*
X129281896Y-113071734D01*
X129284955Y-113038098D01*
X129289494Y-113017718D01*
X129295795Y-113006962D01*
X129304143Y-113002199D01*
X129312224Y-113000270D01*
X129345172Y-112993445D01*
X129397736Y-112983022D01*
X129464569Y-112970018D01*
X129540328Y-112955449D01*
X129619665Y-112940333D01*
X129697237Y-112925685D01*
X129767698Y-112912523D01*
X129825702Y-112901863D01*
X129865904Y-112894721D01*
X129882959Y-112892114D01*
X129884112Y-112890541D01*
X129893385Y-112870119D01*
X129909432Y-112831045D01*
X129929635Y-112779629D01*
X129957672Y-112710353D01*
X129992186Y-112630290D01*
X130024538Y-112559728D01*
X130031952Y-112543889D01*
X130052755Y-112494293D01*
X130065219Y-112456038D01*
X130066863Y-112436356D01*
X130066015Y-112434962D01*
X130052548Y-112414420D01*
X130025850Y-112374516D01*
X129988539Y-112319140D01*
X129943234Y-112252177D01*
X129892552Y-112177517D01*
X129835445Y-112092692D01*
X129792607Y-112026800D01*
X129763460Y-111978478D01*
X129746317Y-111944733D01*
X129739495Y-111922572D01*
X129741306Y-111909002D01*
X129741915Y-111907984D01*
X129758297Y-111888210D01*
X129791695Y-111852175D01*
X129838671Y-111803451D01*
X129895786Y-111745612D01*
X129959603Y-111682227D01*
X130025802Y-111617905D01*
X130090648Y-111557447D01*
X130138299Y-111516655D01*
X130169990Y-111494484D01*
X130186958Y-111489889D01*
X130189175Y-111490921D01*
X130212524Y-111504837D01*
X130254912Y-111532030D01*
X130312369Y-111569889D01*
X130380923Y-111615803D01*
X130456601Y-111667160D01*
X130703298Y-111835626D01*
X130814706Y-111785062D01*
X130817943Y-111783597D01*
X130886343Y-111753965D01*
X130958907Y-111724493D01*
X131020457Y-111701358D01*
X131020729Y-111701262D01*
X131069595Y-111683367D01*
X131107212Y-111668253D01*
X131125457Y-111659184D01*
X131125752Y-111658855D01*
X131131946Y-111640282D01*
X131142139Y-111598045D01*
X131155348Y-111536696D01*
X131170590Y-111460789D01*
X131186881Y-111374875D01*
X131187449Y-111371796D01*
X131203713Y-111284128D01*
X131218608Y-111204741D01*
X131231171Y-111138701D01*
X131240438Y-111091079D01*
X131245444Y-111066943D01*
X131245764Y-111065605D01*
X131249060Y-111055273D01*
X131255738Y-111047506D01*
X131269462Y-111041940D01*
X131293895Y-111038207D01*
X131332702Y-111035942D01*
X131389546Y-111034778D01*
X131468090Y-111034348D01*
X131572000Y-111034286D01*
X131585056Y-111034286D01*
X131685933Y-111034371D01*
G37*
X131685933Y-111034371D02*
X131761856Y-111034865D01*
X131816491Y-111036135D01*
X131853500Y-111038547D01*
X131876547Y-111042467D01*
X131889296Y-111048262D01*
X131895411Y-111056299D01*
X131898556Y-111066943D01*
X131898646Y-111067325D01*
X131903814Y-111092347D01*
X131913209Y-111140681D01*
X131925867Y-111207260D01*
X131940825Y-111287014D01*
X131957119Y-111374875D01*
X131958448Y-111382064D01*
X131974691Y-111467340D01*
X131989805Y-111542242D01*
X132002808Y-111602219D01*
X132012715Y-111642717D01*
X132018544Y-111659184D01*
X132018575Y-111659210D01*
X132036943Y-111668320D01*
X132074640Y-111683457D01*
X132123543Y-111701358D01*
X132126297Y-111702330D01*
X132188817Y-111725959D01*
X132261543Y-111755595D01*
X132329294Y-111785062D01*
X132440703Y-111835626D01*
X132687399Y-111667160D01*
X132704775Y-111655311D01*
X132779202Y-111604947D01*
X132845614Y-111560612D01*
X132900039Y-111524916D01*
X132938506Y-111500471D01*
X132957042Y-111489889D01*
X132969743Y-111492315D01*
X132998579Y-111511110D01*
X133043143Y-111548330D01*
X133104670Y-111605020D01*
X133184398Y-111682227D01*
X133191532Y-111689255D01*
X133254796Y-111752222D01*
X133310990Y-111809268D01*
X133356677Y-111856817D01*
X133388414Y-111891297D01*
X133402764Y-111909131D01*
X133402810Y-111909217D01*
X133404633Y-111922795D01*
X133397910Y-111944820D01*
X133380946Y-111978304D01*
X133352044Y-112026261D01*
X133309508Y-112091704D01*
X133251644Y-112177645D01*
X133241783Y-112192151D01*
X133191913Y-112265635D01*
X133147905Y-112330687D01*
X133112380Y-112383417D01*
X133087959Y-112419936D01*
X133077264Y-112436356D01*
X133076458Y-112439834D01*
X133081518Y-112465785D01*
X133096677Y-112508159D01*
X133119463Y-112559728D01*
X133150429Y-112627170D01*
X133185004Y-112707195D01*
X133214366Y-112779629D01*
X133221645Y-112798377D01*
X133240710Y-112846246D01*
X133254715Y-112879596D01*
X133261041Y-112892114D01*
X133268025Y-112893050D01*
X133299413Y-112898461D01*
X133350787Y-112907806D01*
X133416802Y-112920069D01*
X133492113Y-112934232D01*
X133571375Y-112949280D01*
X133649243Y-112964195D01*
X133720370Y-112977961D01*
X133779412Y-112989562D01*
X133821022Y-112997980D01*
X133839857Y-113002199D01*
X133842980Y-113003389D01*
X133850591Y-113009805D01*
X133856254Y-113023465D01*
X133860251Y-113047999D01*
X133862866Y-113087038D01*
X133864384Y-113144213D01*
X133865086Y-113223154D01*
X133865257Y-113327492D01*
X133865257Y-113644799D01*
X133789057Y-113659839D01*
X133779840Y-113661642D01*
X133730891Y-113670980D01*
X133663205Y-113683669D01*
X133584478Y-113698273D01*
X133502400Y-113713355D01*
X133470078Y-113719422D01*
X133397855Y-113734181D01*
X133337666Y-113748137D01*
X133295040Y-113759952D01*
X133275510Y-113768287D01*
X133266660Y-113781905D01*
X133250548Y-113817938D01*
X133234065Y-113864572D01*
X133228263Y-113882034D01*
X133206906Y-113939358D01*
X133179359Y-114007201D01*
X133150107Y-114074355D01*
X133134463Y-114109430D01*
X133112174Y-114161822D01*
X133096857Y-114201058D01*
X133091162Y-114220563D01*
X133091478Y-114222036D01*
X133102281Y-114242729D01*
X133126638Y-114282665D01*
X133162081Y-114337972D01*
X133206136Y-114404781D01*
X133256332Y-114479220D01*
X133421501Y-114721623D01*
X133204503Y-114938983D01*
X133183516Y-114959899D01*
X133119342Y-115022505D01*
X133061990Y-115076495D01*
X133014820Y-115118826D01*
X132981192Y-115146457D01*
X132964467Y-115156343D01*
X132946303Y-115148821D01*
X132908265Y-115127227D01*
X132854726Y-115094151D01*
X132789884Y-115052191D01*
X132717940Y-115003943D01*
X132647275Y-114956291D01*
X132583526Y-114914328D01*
X132531513Y-114881165D01*
X132495279Y-114859378D01*
X132478867Y-114851543D01*
X132477905Y-114851614D01*
X132456103Y-114859338D01*
X132417440Y-114877323D01*
X132369612Y-114902013D01*
X132369110Y-114902284D01*
X132305587Y-114934099D01*
X132262060Y-114949642D01*
X132235052Y-114949685D01*
X132221090Y-114935000D01*
X132215180Y-114920544D01*
X132199229Y-114881831D01*
X132174660Y-114822316D01*
X132142779Y-114745165D01*
X132104893Y-114653541D01*
X132062310Y-114550607D01*
X132016337Y-114439526D01*
X131974667Y-114338472D01*
X131932268Y-114234780D01*
X131894756Y-114142119D01*
X131863388Y-114063642D01*
X131839425Y-114002500D01*
X131824123Y-113961843D01*
X131818743Y-113944825D01*
X131829018Y-113929219D01*
X131857563Y-113903162D01*
X131897971Y-113872887D01*
X131994979Y-113793684D01*
X132081793Y-113692475D01*
X132145322Y-113581116D01*
X132185177Y-113462893D01*
X132200965Y-113341095D01*
X132192296Y-113219010D01*
X132158778Y-113099925D01*
X132100021Y-112987129D01*
X132015632Y-112883911D01*
X131971631Y-112843713D01*
X131866211Y-112772638D01*
X131753410Y-112726301D01*
X131636525Y-112703599D01*
X131518853Y-112703428D01*
X131403690Y-112724687D01*
X131294335Y-112766270D01*
X131194083Y-112827076D01*
X131106233Y-112906001D01*
X131034080Y-113001941D01*
X130980922Y-113113795D01*
X130950057Y-113240457D01*
X130944392Y-113301507D01*
X130952185Y-113433776D01*
X130987284Y-113559266D01*
X131048649Y-113675759D01*
X131135243Y-113781039D01*
X131246029Y-113872887D01*
X131284931Y-113901930D01*
X131314104Y-113928272D01*
X131325257Y-113944800D01*
X131320810Y-113959209D01*
X131306378Y-113997815D01*
X131283173Y-114057201D01*
X131252452Y-114134215D01*
X131215474Y-114225703D01*
X131173496Y-114328516D01*
X131127778Y-114439502D01*
X131086178Y-114540072D01*
X131043222Y-114643947D01*
X131004829Y-114736819D01*
X130972305Y-114815525D01*
X130946958Y-114876899D01*
X130930095Y-114917779D01*
X130923025Y-114935000D01*
X130922943Y-114935204D01*
X130908798Y-114949745D01*
X130881659Y-114949579D01*
X130838023Y-114933927D01*
X130774388Y-114902013D01*
X130769379Y-114899326D01*
X130722125Y-114875150D01*
X130684811Y-114858037D01*
X130665133Y-114851543D01*
X130649005Y-114859218D01*
X130612959Y-114880871D01*
X130561092Y-114913928D01*
X130497445Y-114955810D01*
X130426060Y-115003943D01*
X130355724Y-115051131D01*
X130290670Y-115093267D01*
X130236820Y-115126578D01*
X130198374Y-115148469D01*
X130179534Y-115156343D01*
X130176325Y-115155343D01*
X130153954Y-115139584D01*
X130115733Y-115107033D01*
X130065021Y-115060733D01*
X130005181Y-115003726D01*
X129939571Y-114939058D01*
X129722648Y-114721772D01*
X129891601Y-114473253D01*
X130060553Y-114224733D01*
X130009183Y-114113595D01*
X130009031Y-114113266D01*
X129978183Y-114042418D01*
X129946661Y-113963523D01*
X129921266Y-113893600D01*
X129917423Y-113882322D01*
X129898047Y-113829967D01*
X129880574Y-113789283D01*
X129868388Y-113768287D01*
X129863426Y-113765322D01*
X129833634Y-113755375D01*
X129783047Y-113742505D01*
X129717194Y-113728053D01*
X129641600Y-113713355D01*
X129618957Y-113709210D01*
X129537038Y-113694116D01*
X129460600Y-113679899D01*
X129397337Y-113667995D01*
X129354943Y-113659839D01*
X129278743Y-113644799D01*
X129278743Y-113327492D01*
X129278760Y-113288476D01*
X129279082Y-113193292D01*
X129280033Y-113122255D01*
X129281896Y-113071734D01*
X129284955Y-113038098D01*
X129289494Y-113017718D01*
X129295795Y-113006962D01*
X129304143Y-113002199D01*
X129312224Y-113000270D01*
X129345172Y-112993445D01*
X129397736Y-112983022D01*
X129464569Y-112970018D01*
X129540328Y-112955449D01*
X129619665Y-112940333D01*
X129697237Y-112925685D01*
X129767698Y-112912523D01*
X129825702Y-112901863D01*
X129865904Y-112894721D01*
X129882959Y-112892114D01*
X129884112Y-112890541D01*
X129893385Y-112870119D01*
X129909432Y-112831045D01*
X129929635Y-112779629D01*
X129957672Y-112710353D01*
X129992186Y-112630290D01*
X130024538Y-112559728D01*
X130031952Y-112543889D01*
X130052755Y-112494293D01*
X130065219Y-112456038D01*
X130066863Y-112436356D01*
X130066015Y-112434962D01*
X130052548Y-112414420D01*
X130025850Y-112374516D01*
X129988539Y-112319140D01*
X129943234Y-112252177D01*
X129892552Y-112177517D01*
X129835445Y-112092692D01*
X129792607Y-112026800D01*
X129763460Y-111978478D01*
X129746317Y-111944733D01*
X129739495Y-111922572D01*
X129741306Y-111909002D01*
X129741915Y-111907984D01*
X129758297Y-111888210D01*
X129791695Y-111852175D01*
X129838671Y-111803451D01*
X129895786Y-111745612D01*
X129959603Y-111682227D01*
X130025802Y-111617905D01*
X130090648Y-111557447D01*
X130138299Y-111516655D01*
X130169990Y-111494484D01*
X130186958Y-111489889D01*
X130189175Y-111490921D01*
X130212524Y-111504837D01*
X130254912Y-111532030D01*
X130312369Y-111569889D01*
X130380923Y-111615803D01*
X130456601Y-111667160D01*
X130703298Y-111835626D01*
X130814706Y-111785062D01*
X130817943Y-111783597D01*
X130886343Y-111753965D01*
X130958907Y-111724493D01*
X131020457Y-111701358D01*
X131020729Y-111701262D01*
X131069595Y-111683367D01*
X131107212Y-111668253D01*
X131125457Y-111659184D01*
X131125752Y-111658855D01*
X131131946Y-111640282D01*
X131142139Y-111598045D01*
X131155348Y-111536696D01*
X131170590Y-111460789D01*
X131186881Y-111374875D01*
X131187449Y-111371796D01*
X131203713Y-111284128D01*
X131218608Y-111204741D01*
X131231171Y-111138701D01*
X131240438Y-111091079D01*
X131245444Y-111066943D01*
X131245764Y-111065605D01*
X131249060Y-111055273D01*
X131255738Y-111047506D01*
X131269462Y-111041940D01*
X131293895Y-111038207D01*
X131332702Y-111035942D01*
X131389546Y-111034778D01*
X131468090Y-111034348D01*
X131572000Y-111034286D01*
X131585056Y-111034286D01*
X131685933Y-111034371D01*
X131042074Y-115741755D02*
X130976142Y-115766084D01*
X130976142Y-115766084D02*
X130922727Y-115809117D01*
X130922727Y-115809117D02*
X130901836Y-115839409D01*
X130901836Y-115839409D02*
X130879061Y-115894994D01*
X130879061Y-115894994D02*
X130879534Y-115935186D01*
X130879534Y-115935186D02*
X130903438Y-115962217D01*
X130903438Y-115962217D02*
X130912283Y-115966813D01*
X130912283Y-115966813D02*
X130950470Y-115981144D01*
X130950470Y-115981144D02*
X130969972Y-115977472D01*
X130969972Y-115977472D02*
X130976578Y-115953407D01*
X130976578Y-115953407D02*
X130976914Y-115940114D01*
X130976914Y-115940114D02*
X130989008Y-115891210D01*
X130989008Y-115891210D02*
X131020529Y-115856999D01*
X131020529Y-115856999D02*
X131064341Y-115840476D01*
X131064341Y-115840476D02*
X131113305Y-115844634D01*
X131113305Y-115844634D02*
X131153106Y-115866227D01*
X131153106Y-115866227D02*
X131166550Y-115878544D01*
X131166550Y-115878544D02*
X131176079Y-115893487D01*
X131176079Y-115893487D02*
X131182515Y-115916075D01*
X131182515Y-115916075D02*
X131186683Y-115951328D01*
X131186683Y-115951328D02*
X131189403Y-116004266D01*
X131189403Y-116004266D02*
X131191498Y-116079907D01*
X131191498Y-116079907D02*
X131192040Y-116103857D01*
X131192040Y-116103857D02*
X131194019Y-116185790D01*
X131194019Y-116185790D02*
X131196269Y-116243455D01*
X131196269Y-116243455D02*
X131199643Y-116281608D01*
X131199643Y-116281608D02*
X131204994Y-116305004D01*
X131204994Y-116305004D02*
X131213176Y-116318398D01*
X131213176Y-116318398D02*
X131225041Y-116326545D01*
X131225041Y-116326545D02*
X131232638Y-116330144D01*
X131232638Y-116330144D02*
X131264898Y-116342452D01*
X131264898Y-116342452D02*
X131283889Y-116346514D01*
X131283889Y-116346514D02*
X131290164Y-116332948D01*
X131290164Y-116332948D02*
X131293994Y-116291934D01*
X131293994Y-116291934D02*
X131295400Y-116222999D01*
X131295400Y-116222999D02*
X131294402Y-116125669D01*
X131294402Y-116125669D02*
X131294092Y-116110657D01*
X131294092Y-116110657D02*
X131291899Y-116021859D01*
X131291899Y-116021859D02*
X131289307Y-115957019D01*
X131289307Y-115957019D02*
X131285618Y-115911067D01*
X131285618Y-115911067D02*
X131280136Y-115878935D01*
X131280136Y-115878935D02*
X131272165Y-115855553D01*
X131272165Y-115855553D02*
X131261007Y-115835852D01*
X131261007Y-115835852D02*
X131255170Y-115827410D01*
X131255170Y-115827410D02*
X131221704Y-115790057D01*
X131221704Y-115790057D02*
X131184273Y-115761003D01*
X131184273Y-115761003D02*
X131179691Y-115758467D01*
X131179691Y-115758467D02*
X131112574Y-115738443D01*
X131112574Y-115738443D02*
X131042074Y-115741755D01*
X131042074Y-115741755D02*
X131042074Y-115741755D01*
G36*
X131179691Y-115758467D02*
G01*
X131184273Y-115761003D01*
X131221704Y-115790057D01*
X131255170Y-115827410D01*
X131261007Y-115835852D01*
X131272165Y-115855553D01*
X131280136Y-115878935D01*
X131285618Y-115911067D01*
X131289307Y-115957019D01*
X131291899Y-116021859D01*
X131294092Y-116110657D01*
X131294402Y-116125669D01*
X131295400Y-116222999D01*
X131293994Y-116291934D01*
X131290164Y-116332948D01*
X131283889Y-116346514D01*
X131264898Y-116342452D01*
X131232638Y-116330144D01*
X131225041Y-116326545D01*
X131213176Y-116318398D01*
X131204994Y-116305004D01*
X131199643Y-116281608D01*
X131196269Y-116243455D01*
X131194019Y-116185790D01*
X131192040Y-116103857D01*
X131191498Y-116079907D01*
X131189403Y-116004266D01*
X131186683Y-115951328D01*
X131182515Y-115916075D01*
X131176079Y-115893487D01*
X131166550Y-115878544D01*
X131153106Y-115866227D01*
X131113305Y-115844634D01*
X131064341Y-115840476D01*
X131020529Y-115856999D01*
X130989008Y-115891210D01*
X130976914Y-115940114D01*
X130976578Y-115953407D01*
X130969972Y-115977472D01*
X130950470Y-115981144D01*
X130912283Y-115966813D01*
X130903438Y-115962217D01*
X130879534Y-115935186D01*
X130879061Y-115894994D01*
X130901836Y-115839409D01*
X130922727Y-115809117D01*
X130976142Y-115766084D01*
X131042074Y-115741755D01*
X131112574Y-115738443D01*
X131179691Y-115758467D01*
G37*
X131179691Y-115758467D02*
X131184273Y-115761003D01*
X131221704Y-115790057D01*
X131255170Y-115827410D01*
X131261007Y-115835852D01*
X131272165Y-115855553D01*
X131280136Y-115878935D01*
X131285618Y-115911067D01*
X131289307Y-115957019D01*
X131291899Y-116021859D01*
X131294092Y-116110657D01*
X131294402Y-116125669D01*
X131295400Y-116222999D01*
X131293994Y-116291934D01*
X131290164Y-116332948D01*
X131283889Y-116346514D01*
X131264898Y-116342452D01*
X131232638Y-116330144D01*
X131225041Y-116326545D01*
X131213176Y-116318398D01*
X131204994Y-116305004D01*
X131199643Y-116281608D01*
X131196269Y-116243455D01*
X131194019Y-116185790D01*
X131192040Y-116103857D01*
X131191498Y-116079907D01*
X131189403Y-116004266D01*
X131186683Y-115951328D01*
X131182515Y-115916075D01*
X131176079Y-115893487D01*
X131166550Y-115878544D01*
X131153106Y-115866227D01*
X131113305Y-115844634D01*
X131064341Y-115840476D01*
X131020529Y-115856999D01*
X130989008Y-115891210D01*
X130976914Y-115940114D01*
X130976578Y-115953407D01*
X130969972Y-115977472D01*
X130950470Y-115981144D01*
X130912283Y-115966813D01*
X130903438Y-115962217D01*
X130879534Y-115935186D01*
X130879061Y-115894994D01*
X130901836Y-115839409D01*
X130922727Y-115809117D01*
X130976142Y-115766084D01*
X131042074Y-115741755D01*
X131112574Y-115738443D01*
X131179691Y-115758467D01*
X128418405Y-115758966D02*
X128360979Y-115796497D01*
X128360979Y-115796497D02*
X128333281Y-115830096D01*
X128333281Y-115830096D02*
X128311338Y-115891064D01*
X128311338Y-115891064D02*
X128309595Y-115939308D01*
X128309595Y-115939308D02*
X128313543Y-116003816D01*
X128313543Y-116003816D02*
X128462314Y-116068934D01*
X128462314Y-116068934D02*
X128534651Y-116102202D01*
X128534651Y-116102202D02*
X128581916Y-116128964D01*
X128581916Y-116128964D02*
X128606493Y-116152144D01*
X128606493Y-116152144D02*
X128610763Y-116174667D01*
X128610763Y-116174667D02*
X128597111Y-116199455D01*
X128597111Y-116199455D02*
X128582057Y-116215886D01*
X128582057Y-116215886D02*
X128538254Y-116242235D01*
X128538254Y-116242235D02*
X128490611Y-116244081D01*
X128490611Y-116244081D02*
X128446855Y-116223546D01*
X128446855Y-116223546D02*
X128414711Y-116182752D01*
X128414711Y-116182752D02*
X128408962Y-116168347D01*
X128408962Y-116168347D02*
X128381424Y-116123356D01*
X128381424Y-116123356D02*
X128349742Y-116104182D01*
X128349742Y-116104182D02*
X128306286Y-116087779D01*
X128306286Y-116087779D02*
X128306286Y-116149966D01*
X128306286Y-116149966D02*
X128310128Y-116192283D01*
X128310128Y-116192283D02*
X128325177Y-116227969D01*
X128325177Y-116227969D02*
X128356720Y-116268943D01*
X128356720Y-116268943D02*
X128361408Y-116274267D01*
X128361408Y-116274267D02*
X128396494Y-116310720D01*
X128396494Y-116310720D02*
X128426653Y-116330283D01*
X128426653Y-116330283D02*
X128464385Y-116339283D01*
X128464385Y-116339283D02*
X128495665Y-116342230D01*
X128495665Y-116342230D02*
X128551615Y-116342965D01*
X128551615Y-116342965D02*
X128591445Y-116333660D01*
X128591445Y-116333660D02*
X128616292Y-116319846D01*
X128616292Y-116319846D02*
X128655344Y-116289467D01*
X128655344Y-116289467D02*
X128682375Y-116256613D01*
X128682375Y-116256613D02*
X128699483Y-116215294D01*
X128699483Y-116215294D02*
X128708762Y-116159521D01*
X128708762Y-116159521D02*
X128712307Y-116083305D01*
X128712307Y-116083305D02*
X128712590Y-116044622D01*
X128712590Y-116044622D02*
X128711628Y-115998247D01*
X128711628Y-115998247D02*
X128623993Y-115998247D01*
X128623993Y-115998247D02*
X128622977Y-116023126D01*
X128622977Y-116023126D02*
X128620444Y-116027200D01*
X128620444Y-116027200D02*
X128603726Y-116021665D01*
X128603726Y-116021665D02*
X128567751Y-116007017D01*
X128567751Y-116007017D02*
X128519669Y-115986190D01*
X128519669Y-115986190D02*
X128509614Y-115981714D01*
X128509614Y-115981714D02*
X128448848Y-115950814D01*
X128448848Y-115950814D02*
X128415368Y-115923657D01*
X128415368Y-115923657D02*
X128408010Y-115898220D01*
X128408010Y-115898220D02*
X128425609Y-115872481D01*
X128425609Y-115872481D02*
X128440144Y-115861109D01*
X128440144Y-115861109D02*
X128492590Y-115838364D01*
X128492590Y-115838364D02*
X128541678Y-115842122D01*
X128541678Y-115842122D02*
X128582773Y-115869884D01*
X128582773Y-115869884D02*
X128611242Y-115919152D01*
X128611242Y-115919152D02*
X128620369Y-115958257D01*
X128620369Y-115958257D02*
X128623993Y-115998247D01*
X128623993Y-115998247D02*
X128711628Y-115998247D01*
X128711628Y-115998247D02*
X128710715Y-115954249D01*
X128710715Y-115954249D02*
X128703804Y-115887384D01*
X128703804Y-115887384D02*
X128690116Y-115838695D01*
X128690116Y-115838695D02*
X128667904Y-115802849D01*
X128667904Y-115802849D02*
X128635426Y-115774513D01*
X128635426Y-115774513D02*
X128621267Y-115765355D01*
X128621267Y-115765355D02*
X128556947Y-115741507D01*
X128556947Y-115741507D02*
X128486527Y-115740006D01*
X128486527Y-115740006D02*
X128418405Y-115758966D01*
X128418405Y-115758966D02*
X128418405Y-115758966D01*
G36*
X128712307Y-116083305D02*
G01*
X128708762Y-116159521D01*
X128699483Y-116215294D01*
X128682375Y-116256613D01*
X128655344Y-116289467D01*
X128616292Y-116319846D01*
X128591445Y-116333660D01*
X128551615Y-116342965D01*
X128495665Y-116342230D01*
X128464385Y-116339283D01*
X128426653Y-116330283D01*
X128396494Y-116310720D01*
X128361408Y-116274267D01*
X128356720Y-116268943D01*
X128325177Y-116227969D01*
X128310128Y-116192283D01*
X128306286Y-116149966D01*
X128306286Y-116087779D01*
X128349742Y-116104182D01*
X128381424Y-116123356D01*
X128408962Y-116168347D01*
X128414711Y-116182752D01*
X128446855Y-116223546D01*
X128490611Y-116244081D01*
X128538254Y-116242235D01*
X128582057Y-116215886D01*
X128597111Y-116199455D01*
X128610763Y-116174667D01*
X128606493Y-116152144D01*
X128581916Y-116128964D01*
X128534651Y-116102202D01*
X128462314Y-116068934D01*
X128313543Y-116003816D01*
X128309595Y-115939308D01*
X128311079Y-115898220D01*
X128408010Y-115898220D01*
X128415368Y-115923657D01*
X128448848Y-115950814D01*
X128509614Y-115981714D01*
X128519669Y-115986190D01*
X128567751Y-116007017D01*
X128603726Y-116021665D01*
X128620444Y-116027200D01*
X128622977Y-116023126D01*
X128623993Y-115998247D01*
X128620369Y-115958257D01*
X128611242Y-115919152D01*
X128582773Y-115869884D01*
X128541678Y-115842122D01*
X128492590Y-115838364D01*
X128440144Y-115861109D01*
X128425609Y-115872481D01*
X128408010Y-115898220D01*
X128311079Y-115898220D01*
X128311338Y-115891064D01*
X128333281Y-115830096D01*
X128360979Y-115796497D01*
X128418405Y-115758966D01*
X128486527Y-115740006D01*
X128556947Y-115741507D01*
X128621267Y-115765355D01*
X128635426Y-115774513D01*
X128667904Y-115802849D01*
X128690116Y-115838695D01*
X128703804Y-115887384D01*
X128710715Y-115954249D01*
X128711628Y-115998247D01*
X128712590Y-116044622D01*
X128712307Y-116083305D01*
G37*
X128712307Y-116083305D02*
X128708762Y-116159521D01*
X128699483Y-116215294D01*
X128682375Y-116256613D01*
X128655344Y-116289467D01*
X128616292Y-116319846D01*
X128591445Y-116333660D01*
X128551615Y-116342965D01*
X128495665Y-116342230D01*
X128464385Y-116339283D01*
X128426653Y-116330283D01*
X128396494Y-116310720D01*
X128361408Y-116274267D01*
X128356720Y-116268943D01*
X128325177Y-116227969D01*
X128310128Y-116192283D01*
X128306286Y-116149966D01*
X128306286Y-116087779D01*
X128349742Y-116104182D01*
X128381424Y-116123356D01*
X128408962Y-116168347D01*
X128414711Y-116182752D01*
X128446855Y-116223546D01*
X128490611Y-116244081D01*
X128538254Y-116242235D01*
X128582057Y-116215886D01*
X128597111Y-116199455D01*
X128610763Y-116174667D01*
X128606493Y-116152144D01*
X128581916Y-116128964D01*
X128534651Y-116102202D01*
X128462314Y-116068934D01*
X128313543Y-116003816D01*
X128309595Y-115939308D01*
X128311079Y-115898220D01*
X128408010Y-115898220D01*
X128415368Y-115923657D01*
X128448848Y-115950814D01*
X128509614Y-115981714D01*
X128519669Y-115986190D01*
X128567751Y-116007017D01*
X128603726Y-116021665D01*
X128620444Y-116027200D01*
X128622977Y-116023126D01*
X128623993Y-115998247D01*
X128620369Y-115958257D01*
X128611242Y-115919152D01*
X128582773Y-115869884D01*
X128541678Y-115842122D01*
X128492590Y-115838364D01*
X128440144Y-115861109D01*
X128425609Y-115872481D01*
X128408010Y-115898220D01*
X128311079Y-115898220D01*
X128311338Y-115891064D01*
X128333281Y-115830096D01*
X128360979Y-115796497D01*
X128418405Y-115758966D01*
X128486527Y-115740006D01*
X128556947Y-115741507D01*
X128621267Y-115765355D01*
X128635426Y-115774513D01*
X128667904Y-115802849D01*
X128690116Y-115838695D01*
X128703804Y-115887384D01*
X128710715Y-115954249D01*
X128711628Y-115998247D01*
X128712590Y-116044622D01*
X128712307Y-116083305D01*
X132855907Y-115719780D02*
X132809328Y-115746723D01*
X132809328Y-115746723D02*
X132776943Y-115773466D01*
X132776943Y-115773466D02*
X132753258Y-115801484D01*
X132753258Y-115801484D02*
X132736941Y-115835748D01*
X132736941Y-115835748D02*
X132726661Y-115881227D01*
X132726661Y-115881227D02*
X132721086Y-115942892D01*
X132721086Y-115942892D02*
X132718884Y-116025711D01*
X132718884Y-116025711D02*
X132718629Y-116085246D01*
X132718629Y-116085246D02*
X132718629Y-116304391D01*
X132718629Y-116304391D02*
X132780314Y-116332044D01*
X132780314Y-116332044D02*
X132842000Y-116359697D01*
X132842000Y-116359697D02*
X132849257Y-116119670D01*
X132849257Y-116119670D02*
X132852256Y-116030028D01*
X132852256Y-116030028D02*
X132855402Y-115964962D01*
X132855402Y-115964962D02*
X132859299Y-115920026D01*
X132859299Y-115920026D02*
X132864553Y-115890770D01*
X132864553Y-115890770D02*
X132871769Y-115872748D01*
X132871769Y-115872748D02*
X132881550Y-115861511D01*
X132881550Y-115861511D02*
X132884688Y-115859079D01*
X132884688Y-115859079D02*
X132932239Y-115840083D01*
X132932239Y-115840083D02*
X132980303Y-115847600D01*
X132980303Y-115847600D02*
X133008914Y-115867543D01*
X133008914Y-115867543D02*
X133020553Y-115881675D01*
X133020553Y-115881675D02*
X133028609Y-115900220D01*
X133028609Y-115900220D02*
X133033729Y-115928334D01*
X133033729Y-115928334D02*
X133036559Y-115971173D01*
X133036559Y-115971173D02*
X133037744Y-116033895D01*
X133037744Y-116033895D02*
X133037943Y-116099261D01*
X133037943Y-116099261D02*
X133037982Y-116181268D01*
X133037982Y-116181268D02*
X133039386Y-116239316D01*
X133039386Y-116239316D02*
X133044086Y-116278465D01*
X133044086Y-116278465D02*
X133054013Y-116303780D01*
X133054013Y-116303780D02*
X133071097Y-116320323D01*
X133071097Y-116320323D02*
X133097268Y-116333156D01*
X133097268Y-116333156D02*
X133132225Y-116346491D01*
X133132225Y-116346491D02*
X133170404Y-116361007D01*
X133170404Y-116361007D02*
X133165859Y-116103389D01*
X133165859Y-116103389D02*
X133164029Y-116010519D01*
X133164029Y-116010519D02*
X133161888Y-115941889D01*
X133161888Y-115941889D02*
X133158819Y-115892711D01*
X133158819Y-115892711D02*
X133154206Y-115858198D01*
X133154206Y-115858198D02*
X133147432Y-115833562D01*
X133147432Y-115833562D02*
X133137881Y-115814016D01*
X133137881Y-115814016D02*
X133126366Y-115796770D01*
X133126366Y-115796770D02*
X133070810Y-115741680D01*
X133070810Y-115741680D02*
X133003020Y-115709822D01*
X133003020Y-115709822D02*
X132929287Y-115702191D01*
X132929287Y-115702191D02*
X132855907Y-115719780D01*
X132855907Y-115719780D02*
X132855907Y-115719780D01*
G36*
X133003020Y-115709822D02*
G01*
X133070810Y-115741680D01*
X133126366Y-115796770D01*
X133137881Y-115814016D01*
X133147432Y-115833562D01*
X133154206Y-115858198D01*
X133158819Y-115892711D01*
X133161888Y-115941889D01*
X133164029Y-116010519D01*
X133165859Y-116103389D01*
X133170404Y-116361007D01*
X133132225Y-116346491D01*
X133097268Y-116333156D01*
X133071097Y-116320323D01*
X133054013Y-116303780D01*
X133044086Y-116278465D01*
X133039386Y-116239316D01*
X133037982Y-116181268D01*
X133037943Y-116099261D01*
X133037744Y-116033895D01*
X133036559Y-115971173D01*
X133033729Y-115928334D01*
X133028609Y-115900220D01*
X133020553Y-115881675D01*
X133008914Y-115867543D01*
X132980303Y-115847600D01*
X132932239Y-115840083D01*
X132884688Y-115859079D01*
X132881550Y-115861511D01*
X132871769Y-115872748D01*
X132864553Y-115890770D01*
X132859299Y-115920026D01*
X132855402Y-115964962D01*
X132852256Y-116030028D01*
X132849257Y-116119670D01*
X132842000Y-116359697D01*
X132780314Y-116332044D01*
X132718629Y-116304391D01*
X132718629Y-116085246D01*
X132718884Y-116025711D01*
X132721086Y-115942892D01*
X132726661Y-115881227D01*
X132736941Y-115835748D01*
X132753258Y-115801484D01*
X132776943Y-115773466D01*
X132809328Y-115746723D01*
X132855907Y-115719780D01*
X132929287Y-115702191D01*
X133003020Y-115709822D01*
G37*
X133003020Y-115709822D02*
X133070810Y-115741680D01*
X133126366Y-115796770D01*
X133137881Y-115814016D01*
X133147432Y-115833562D01*
X133154206Y-115858198D01*
X133158819Y-115892711D01*
X133161888Y-115941889D01*
X133164029Y-116010519D01*
X133165859Y-116103389D01*
X133170404Y-116361007D01*
X133132225Y-116346491D01*
X133097268Y-116333156D01*
X133071097Y-116320323D01*
X133054013Y-116303780D01*
X133044086Y-116278465D01*
X133039386Y-116239316D01*
X133037982Y-116181268D01*
X133037943Y-116099261D01*
X133037744Y-116033895D01*
X133036559Y-115971173D01*
X133033729Y-115928334D01*
X133028609Y-115900220D01*
X133020553Y-115881675D01*
X133008914Y-115867543D01*
X132980303Y-115847600D01*
X132932239Y-115840083D01*
X132884688Y-115859079D01*
X132881550Y-115861511D01*
X132871769Y-115872748D01*
X132864553Y-115890770D01*
X132859299Y-115920026D01*
X132855402Y-115964962D01*
X132852256Y-116030028D01*
X132849257Y-116119670D01*
X132842000Y-116359697D01*
X132780314Y-116332044D01*
X132718629Y-116304391D01*
X132718629Y-116085246D01*
X132718884Y-116025711D01*
X132721086Y-115942892D01*
X132726661Y-115881227D01*
X132736941Y-115835748D01*
X132753258Y-115801484D01*
X132776943Y-115773466D01*
X132809328Y-115746723D01*
X132855907Y-115719780D01*
X132929287Y-115702191D01*
X133003020Y-115709822D01*
X133403697Y-115723239D02*
X133346473Y-115761735D01*
X133346473Y-115761735D02*
X133302251Y-115817335D01*
X133302251Y-115817335D02*
X133275833Y-115888086D01*
X133275833Y-115888086D02*
X133270490Y-115940162D01*
X133270490Y-115940162D02*
X133271097Y-115961893D01*
X133271097Y-115961893D02*
X133276178Y-115978531D01*
X133276178Y-115978531D02*
X133290145Y-115993437D01*
X133290145Y-115993437D02*
X133317411Y-116009973D01*
X133317411Y-116009973D02*
X133362388Y-116031498D01*
X133362388Y-116031498D02*
X133429489Y-116061374D01*
X133429489Y-116061374D02*
X133429829Y-116061524D01*
X133429829Y-116061524D02*
X133491593Y-116089813D01*
X133491593Y-116089813D02*
X133542241Y-116114933D01*
X133542241Y-116114933D02*
X133576596Y-116134179D01*
X133576596Y-116134179D02*
X133589482Y-116144848D01*
X133589482Y-116144848D02*
X133589486Y-116144934D01*
X133589486Y-116144934D02*
X133578128Y-116168166D01*
X133578128Y-116168166D02*
X133551569Y-116193774D01*
X133551569Y-116193774D02*
X133521077Y-116212221D01*
X133521077Y-116212221D02*
X133505630Y-116215886D01*
X133505630Y-116215886D02*
X133463485Y-116203212D01*
X133463485Y-116203212D02*
X133427192Y-116171471D01*
X133427192Y-116171471D02*
X133409483Y-116136572D01*
X133409483Y-116136572D02*
X133392448Y-116110845D01*
X133392448Y-116110845D02*
X133359078Y-116081546D01*
X133359078Y-116081546D02*
X133319851Y-116056235D01*
X133319851Y-116056235D02*
X133285244Y-116042471D01*
X133285244Y-116042471D02*
X133278007Y-116041714D01*
X133278007Y-116041714D02*
X133269861Y-116054160D01*
X133269861Y-116054160D02*
X133269370Y-116085972D01*
X133269370Y-116085972D02*
X133275357Y-116128866D01*
X133275357Y-116128866D02*
X133286643Y-116174558D01*
X133286643Y-116174558D02*
X133302050Y-116214761D01*
X133302050Y-116214761D02*
X133302829Y-116216322D01*
X133302829Y-116216322D02*
X133349196Y-116281062D01*
X133349196Y-116281062D02*
X133409289Y-116325097D01*
X133409289Y-116325097D02*
X133477535Y-116346711D01*
X133477535Y-116346711D02*
X133548362Y-116344185D01*
X133548362Y-116344185D02*
X133616196Y-116315804D01*
X133616196Y-116315804D02*
X133619212Y-116313808D01*
X133619212Y-116313808D02*
X133672573Y-116265448D01*
X133672573Y-116265448D02*
X133707660Y-116202352D01*
X133707660Y-116202352D02*
X133727078Y-116119387D01*
X133727078Y-116119387D02*
X133729684Y-116096078D01*
X133729684Y-116096078D02*
X133734299Y-115986055D01*
X133734299Y-115986055D02*
X133728767Y-115934748D01*
X133728767Y-115934748D02*
X133589486Y-115934748D01*
X133589486Y-115934748D02*
X133587676Y-115966753D01*
X133587676Y-115966753D02*
X133577778Y-115976093D01*
X133577778Y-115976093D02*
X133553102Y-115969105D01*
X133553102Y-115969105D02*
X133514205Y-115952587D01*
X133514205Y-115952587D02*
X133470725Y-115931881D01*
X133470725Y-115931881D02*
X133469644Y-115931333D01*
X133469644Y-115931333D02*
X133432791Y-115911949D01*
X133432791Y-115911949D02*
X133418000Y-115899013D01*
X133418000Y-115899013D02*
X133421647Y-115885451D01*
X133421647Y-115885451D02*
X133437005Y-115867632D01*
X133437005Y-115867632D02*
X133476077Y-115841845D01*
X133476077Y-115841845D02*
X133518154Y-115839950D01*
X133518154Y-115839950D02*
X133555897Y-115858717D01*
X133555897Y-115858717D02*
X133581966Y-115894915D01*
X133581966Y-115894915D02*
X133589486Y-115934748D01*
X133589486Y-115934748D02*
X133728767Y-115934748D01*
X133728767Y-115934748D02*
X133724806Y-115898027D01*
X133724806Y-115898027D02*
X133700450Y-115828212D01*
X133700450Y-115828212D02*
X133666544Y-115779302D01*
X133666544Y-115779302D02*
X133605347Y-115729878D01*
X133605347Y-115729878D02*
X133537937Y-115705359D01*
X133537937Y-115705359D02*
X133469120Y-115703797D01*
X133469120Y-115703797D02*
X133403697Y-115723239D01*
X133403697Y-115723239D02*
X133403697Y-115723239D01*
G36*
X133729684Y-116096078D02*
G01*
X133727078Y-116119387D01*
X133707660Y-116202352D01*
X133672573Y-116265448D01*
X133619212Y-116313808D01*
X133616196Y-116315804D01*
X133548362Y-116344185D01*
X133477535Y-116346711D01*
X133409289Y-116325097D01*
X133349196Y-116281062D01*
X133302829Y-116216322D01*
X133302050Y-116214761D01*
X133286643Y-116174558D01*
X133275357Y-116128866D01*
X133269370Y-116085972D01*
X133269861Y-116054160D01*
X133278007Y-116041714D01*
X133285244Y-116042471D01*
X133319851Y-116056235D01*
X133359078Y-116081546D01*
X133392448Y-116110845D01*
X133409483Y-116136572D01*
X133427192Y-116171471D01*
X133463485Y-116203212D01*
X133505630Y-116215886D01*
X133521077Y-116212221D01*
X133551569Y-116193774D01*
X133578128Y-116168166D01*
X133589486Y-116144934D01*
X133589482Y-116144848D01*
X133576596Y-116134179D01*
X133542241Y-116114933D01*
X133491593Y-116089813D01*
X133429829Y-116061524D01*
X133429489Y-116061374D01*
X133362388Y-116031498D01*
X133317411Y-116009973D01*
X133290145Y-115993437D01*
X133276178Y-115978531D01*
X133271097Y-115961893D01*
X133270490Y-115940162D01*
X133274711Y-115899013D01*
X133418000Y-115899013D01*
X133432791Y-115911949D01*
X133469644Y-115931333D01*
X133470725Y-115931881D01*
X133514205Y-115952587D01*
X133553102Y-115969105D01*
X133577778Y-115976093D01*
X133587676Y-115966753D01*
X133589486Y-115934748D01*
X133581966Y-115894915D01*
X133555897Y-115858717D01*
X133518154Y-115839950D01*
X133476077Y-115841845D01*
X133437005Y-115867632D01*
X133421647Y-115885451D01*
X133418000Y-115899013D01*
X133274711Y-115899013D01*
X133275833Y-115888086D01*
X133302251Y-115817335D01*
X133346473Y-115761735D01*
X133403697Y-115723239D01*
X133469120Y-115703797D01*
X133537937Y-115705359D01*
X133605347Y-115729878D01*
X133666544Y-115779302D01*
X133700450Y-115828212D01*
X133724806Y-115898027D01*
X133728767Y-115934748D01*
X133734299Y-115986055D01*
X133729684Y-116096078D01*
G37*
X133729684Y-116096078D02*
X133727078Y-116119387D01*
X133707660Y-116202352D01*
X133672573Y-116265448D01*
X133619212Y-116313808D01*
X133616196Y-116315804D01*
X133548362Y-116344185D01*
X133477535Y-116346711D01*
X133409289Y-116325097D01*
X133349196Y-116281062D01*
X133302829Y-116216322D01*
X133302050Y-116214761D01*
X133286643Y-116174558D01*
X133275357Y-116128866D01*
X133269370Y-116085972D01*
X133269861Y-116054160D01*
X133278007Y-116041714D01*
X133285244Y-116042471D01*
X133319851Y-116056235D01*
X133359078Y-116081546D01*
X133392448Y-116110845D01*
X133409483Y-116136572D01*
X133427192Y-116171471D01*
X133463485Y-116203212D01*
X133505630Y-116215886D01*
X133521077Y-116212221D01*
X133551569Y-116193774D01*
X133578128Y-116168166D01*
X133589486Y-116144934D01*
X133589482Y-116144848D01*
X133576596Y-116134179D01*
X133542241Y-116114933D01*
X133491593Y-116089813D01*
X133429829Y-116061524D01*
X133429489Y-116061374D01*
X133362388Y-116031498D01*
X133317411Y-116009973D01*
X133290145Y-115993437D01*
X133276178Y-115978531D01*
X133271097Y-115961893D01*
X133270490Y-115940162D01*
X133274711Y-115899013D01*
X133418000Y-115899013D01*
X133432791Y-115911949D01*
X133469644Y-115931333D01*
X133470725Y-115931881D01*
X133514205Y-115952587D01*
X133553102Y-115969105D01*
X133577778Y-115976093D01*
X133587676Y-115966753D01*
X133589486Y-115934748D01*
X133581966Y-115894915D01*
X133555897Y-115858717D01*
X133518154Y-115839950D01*
X133476077Y-115841845D01*
X133437005Y-115867632D01*
X133421647Y-115885451D01*
X133418000Y-115899013D01*
X133274711Y-115899013D01*
X133275833Y-115888086D01*
X133302251Y-115817335D01*
X133346473Y-115761735D01*
X133403697Y-115723239D01*
X133469120Y-115703797D01*
X133537937Y-115705359D01*
X133605347Y-115729878D01*
X133666544Y-115779302D01*
X133700450Y-115828212D01*
X133724806Y-115898027D01*
X133728767Y-115934748D01*
X133734299Y-115986055D01*
X133729684Y-116096078D01*
X130381883Y-115857358D02*
X130382067Y-115965837D01*
X130382067Y-115965837D02*
X130382781Y-116049287D01*
X130382781Y-116049287D02*
X130384325Y-116111704D01*
X130384325Y-116111704D02*
X130386999Y-116157085D01*
X130386999Y-116157085D02*
X130391106Y-116189429D01*
X130391106Y-116189429D02*
X130396945Y-116212733D01*
X130396945Y-116212733D02*
X130404818Y-116230995D01*
X130404818Y-116230995D02*
X130410779Y-116241418D01*
X130410779Y-116241418D02*
X130460145Y-116297945D01*
X130460145Y-116297945D02*
X130522736Y-116333377D01*
X130522736Y-116333377D02*
X130591987Y-116346090D01*
X130591987Y-116346090D02*
X130661332Y-116334463D01*
X130661332Y-116334463D02*
X130702625Y-116313568D01*
X130702625Y-116313568D02*
X130745975Y-116277422D01*
X130745975Y-116277422D02*
X130775519Y-116233276D01*
X130775519Y-116233276D02*
X130793345Y-116175462D01*
X130793345Y-116175462D02*
X130801537Y-116098313D01*
X130801537Y-116098313D02*
X130802698Y-116041714D01*
X130802698Y-116041714D02*
X130802542Y-116037647D01*
X130802542Y-116037647D02*
X130701143Y-116037647D01*
X130701143Y-116037647D02*
X130700524Y-116102550D01*
X130700524Y-116102550D02*
X130697686Y-116145514D01*
X130697686Y-116145514D02*
X130691160Y-116173622D01*
X130691160Y-116173622D02*
X130679477Y-116193953D01*
X130679477Y-116193953D02*
X130665517Y-116209288D01*
X130665517Y-116209288D02*
X130618635Y-116238890D01*
X130618635Y-116238890D02*
X130568299Y-116241419D01*
X130568299Y-116241419D02*
X130520724Y-116216705D01*
X130520724Y-116216705D02*
X130517021Y-116213356D01*
X130517021Y-116213356D02*
X130501217Y-116195935D01*
X130501217Y-116195935D02*
X130491307Y-116175209D01*
X130491307Y-116175209D02*
X130485942Y-116144362D01*
X130485942Y-116144362D02*
X130483772Y-116096577D01*
X130483772Y-116096577D02*
X130483429Y-116043748D01*
X130483429Y-116043748D02*
X130484173Y-115977381D01*
X130484173Y-115977381D02*
X130487252Y-115933106D01*
X130487252Y-115933106D02*
X130493939Y-115904009D01*
X130493939Y-115904009D02*
X130505504Y-115883173D01*
X130505504Y-115883173D02*
X130514987Y-115872107D01*
X130514987Y-115872107D02*
X130559040Y-115844198D01*
X130559040Y-115844198D02*
X130609776Y-115840843D01*
X130609776Y-115840843D02*
X130658204Y-115862159D01*
X130658204Y-115862159D02*
X130667550Y-115870073D01*
X130667550Y-115870073D02*
X130683460Y-115887647D01*
X130683460Y-115887647D02*
X130693390Y-115908587D01*
X130693390Y-115908587D02*
X130698722Y-115939782D01*
X130698722Y-115939782D02*
X130700837Y-115988122D01*
X130700837Y-115988122D02*
X130701143Y-116037647D01*
X130701143Y-116037647D02*
X130802542Y-116037647D01*
X130802542Y-116037647D02*
X130799190Y-115950568D01*
X130799190Y-115950568D02*
X130787274Y-115882086D01*
X130787274Y-115882086D02*
X130764865Y-115830600D01*
X130764865Y-115830600D02*
X130729876Y-115790443D01*
X130729876Y-115790443D02*
X130702625Y-115769861D01*
X130702625Y-115769861D02*
X130653093Y-115747625D01*
X130653093Y-115747625D02*
X130595684Y-115737304D01*
X130595684Y-115737304D02*
X130542318Y-115740067D01*
X130542318Y-115740067D02*
X130512457Y-115751212D01*
X130512457Y-115751212D02*
X130500739Y-115754383D01*
X130500739Y-115754383D02*
X130492963Y-115742557D01*
X130492963Y-115742557D02*
X130487535Y-115710866D01*
X130487535Y-115710866D02*
X130483429Y-115662593D01*
X130483429Y-115662593D02*
X130478933Y-115608829D01*
X130478933Y-115608829D02*
X130472687Y-115576482D01*
X130472687Y-115576482D02*
X130461324Y-115557985D01*
X130461324Y-115557985D02*
X130441472Y-115545770D01*
X130441472Y-115545770D02*
X130429000Y-115540362D01*
X130429000Y-115540362D02*
X130381829Y-115520601D01*
X130381829Y-115520601D02*
X130381883Y-115857358D01*
X130381883Y-115857358D02*
X130381883Y-115857358D01*
G36*
X130801537Y-116098313D02*
G01*
X130793345Y-116175462D01*
X130775519Y-116233276D01*
X130745975Y-116277422D01*
X130702625Y-116313568D01*
X130661332Y-116334463D01*
X130591987Y-116346090D01*
X130522736Y-116333377D01*
X130460145Y-116297945D01*
X130410779Y-116241418D01*
X130404818Y-116230995D01*
X130396945Y-116212733D01*
X130391106Y-116189429D01*
X130386999Y-116157085D01*
X130384325Y-116111704D01*
X130382781Y-116049287D01*
X130382734Y-116043748D01*
X130483429Y-116043748D01*
X130483772Y-116096577D01*
X130485942Y-116144362D01*
X130491307Y-116175209D01*
X130501217Y-116195935D01*
X130517021Y-116213356D01*
X130520724Y-116216705D01*
X130568299Y-116241419D01*
X130618635Y-116238890D01*
X130665517Y-116209288D01*
X130679477Y-116193953D01*
X130691160Y-116173622D01*
X130697686Y-116145514D01*
X130700524Y-116102550D01*
X130701143Y-116037647D01*
X130700837Y-115988122D01*
X130698722Y-115939782D01*
X130693390Y-115908587D01*
X130683460Y-115887647D01*
X130667550Y-115870073D01*
X130658204Y-115862159D01*
X130609776Y-115840843D01*
X130559040Y-115844198D01*
X130514987Y-115872107D01*
X130505504Y-115883173D01*
X130493939Y-115904009D01*
X130487252Y-115933106D01*
X130484173Y-115977381D01*
X130483429Y-116043748D01*
X130382734Y-116043748D01*
X130382067Y-115965837D01*
X130381883Y-115857358D01*
X130381829Y-115520601D01*
X130429000Y-115540362D01*
X130441472Y-115545770D01*
X130461324Y-115557985D01*
X130472687Y-115576482D01*
X130478933Y-115608829D01*
X130483429Y-115662593D01*
X130487535Y-115710866D01*
X130492963Y-115742557D01*
X130500739Y-115754383D01*
X130512457Y-115751212D01*
X130542318Y-115740067D01*
X130595684Y-115737304D01*
X130653093Y-115747625D01*
X130702625Y-115769861D01*
X130729876Y-115790443D01*
X130764865Y-115830600D01*
X130787274Y-115882086D01*
X130799190Y-115950568D01*
X130802542Y-116037647D01*
X130802698Y-116041714D01*
X130801537Y-116098313D01*
G37*
X130801537Y-116098313D02*
X130793345Y-116175462D01*
X130775519Y-116233276D01*
X130745975Y-116277422D01*
X130702625Y-116313568D01*
X130661332Y-116334463D01*
X130591987Y-116346090D01*
X130522736Y-116333377D01*
X130460145Y-116297945D01*
X130410779Y-116241418D01*
X130404818Y-116230995D01*
X130396945Y-116212733D01*
X130391106Y-116189429D01*
X130386999Y-116157085D01*
X130384325Y-116111704D01*
X130382781Y-116049287D01*
X130382734Y-116043748D01*
X130483429Y-116043748D01*
X130483772Y-116096577D01*
X130485942Y-116144362D01*
X130491307Y-116175209D01*
X130501217Y-116195935D01*
X130517021Y-116213356D01*
X130520724Y-116216705D01*
X130568299Y-116241419D01*
X130618635Y-116238890D01*
X130665517Y-116209288D01*
X130679477Y-116193953D01*
X130691160Y-116173622D01*
X130697686Y-116145514D01*
X130700524Y-116102550D01*
X130701143Y-116037647D01*
X130700837Y-115988122D01*
X130698722Y-115939782D01*
X130693390Y-115908587D01*
X130683460Y-115887647D01*
X130667550Y-115870073D01*
X130658204Y-115862159D01*
X130609776Y-115840843D01*
X130559040Y-115844198D01*
X130514987Y-115872107D01*
X130505504Y-115883173D01*
X130493939Y-115904009D01*
X130487252Y-115933106D01*
X130484173Y-115977381D01*
X130483429Y-116043748D01*
X130382734Y-116043748D01*
X130382067Y-115965837D01*
X130381883Y-115857358D01*
X130381829Y-115520601D01*
X130429000Y-115540362D01*
X130441472Y-115545770D01*
X130461324Y-115557985D01*
X130472687Y-115576482D01*
X130478933Y-115608829D01*
X130483429Y-115662593D01*
X130487535Y-115710866D01*
X130492963Y-115742557D01*
X130500739Y-115754383D01*
X130512457Y-115751212D01*
X130542318Y-115740067D01*
X130595684Y-115737304D01*
X130653093Y-115747625D01*
X130702625Y-115769861D01*
X130729876Y-115790443D01*
X130764865Y-115830600D01*
X130787274Y-115882086D01*
X130799190Y-115950568D01*
X130802542Y-116037647D01*
X130802698Y-116041714D01*
X130801537Y-116098313D01*
X128919400Y-115750752D02*
X128902052Y-115758334D01*
X128902052Y-115758334D02*
X128860644Y-115791128D01*
X128860644Y-115791128D02*
X128825235Y-115838547D01*
X128825235Y-115838547D02*
X128803336Y-115889151D01*
X128803336Y-115889151D02*
X128799771Y-115914098D01*
X128799771Y-115914098D02*
X128811721Y-115948927D01*
X128811721Y-115948927D02*
X128837933Y-115967357D01*
X128837933Y-115967357D02*
X128866036Y-115978516D01*
X128866036Y-115978516D02*
X128878905Y-115980572D01*
X128878905Y-115980572D02*
X128885171Y-115965649D01*
X128885171Y-115965649D02*
X128897544Y-115933175D01*
X128897544Y-115933175D02*
X128902972Y-115918502D01*
X128902972Y-115918502D02*
X128933410Y-115867744D01*
X128933410Y-115867744D02*
X128977480Y-115842427D01*
X128977480Y-115842427D02*
X129033990Y-115843206D01*
X129033990Y-115843206D02*
X129038175Y-115844203D01*
X129038175Y-115844203D02*
X129068345Y-115858507D01*
X129068345Y-115858507D02*
X129090524Y-115886393D01*
X129090524Y-115886393D02*
X129105673Y-115931287D01*
X129105673Y-115931287D02*
X129114750Y-115996615D01*
X129114750Y-115996615D02*
X129118714Y-116085804D01*
X129118714Y-116085804D02*
X129119086Y-116133261D01*
X129119086Y-116133261D02*
X129119270Y-116208071D01*
X129119270Y-116208071D02*
X129120478Y-116259069D01*
X129120478Y-116259069D02*
X129123691Y-116291471D01*
X129123691Y-116291471D02*
X129129891Y-116310495D01*
X129129891Y-116310495D02*
X129140060Y-116321356D01*
X129140060Y-116321356D02*
X129155181Y-116329272D01*
X129155181Y-116329272D02*
X129156054Y-116329670D01*
X129156054Y-116329670D02*
X129185172Y-116341981D01*
X129185172Y-116341981D02*
X129199597Y-116346514D01*
X129199597Y-116346514D02*
X129201814Y-116332809D01*
X129201814Y-116332809D02*
X129203711Y-116294925D01*
X129203711Y-116294925D02*
X129205153Y-116237715D01*
X129205153Y-116237715D02*
X129206002Y-116166027D01*
X129206002Y-116166027D02*
X129206171Y-116113565D01*
X129206171Y-116113565D02*
X129205308Y-116012047D01*
X129205308Y-116012047D02*
X129201930Y-115935032D01*
X129201930Y-115935032D02*
X129194858Y-115878023D01*
X129194858Y-115878023D02*
X129182912Y-115836526D01*
X129182912Y-115836526D02*
X129164910Y-115806043D01*
X129164910Y-115806043D02*
X129139673Y-115782080D01*
X129139673Y-115782080D02*
X129114753Y-115765355D01*
X129114753Y-115765355D02*
X129054829Y-115743097D01*
X129054829Y-115743097D02*
X128985089Y-115738076D01*
X128985089Y-115738076D02*
X128919400Y-115750752D01*
X128919400Y-115750752D02*
X128919400Y-115750752D01*
G36*
X129054829Y-115743097D02*
G01*
X129114753Y-115765355D01*
X129139673Y-115782080D01*
X129164910Y-115806043D01*
X129182912Y-115836526D01*
X129194858Y-115878023D01*
X129201930Y-115935032D01*
X129205308Y-116012047D01*
X129206171Y-116113565D01*
X129206002Y-116166027D01*
X129205153Y-116237715D01*
X129203711Y-116294925D01*
X129201814Y-116332809D01*
X129199597Y-116346514D01*
X129185172Y-116341981D01*
X129156054Y-116329670D01*
X129155181Y-116329272D01*
X129140060Y-116321356D01*
X129129891Y-116310495D01*
X129123691Y-116291471D01*
X129120478Y-116259069D01*
X129119270Y-116208071D01*
X129119086Y-116133261D01*
X129118714Y-116085804D01*
X129114750Y-115996615D01*
X129105673Y-115931287D01*
X129090524Y-115886393D01*
X129068345Y-115858507D01*
X129038175Y-115844203D01*
X129033990Y-115843206D01*
X128977480Y-115842427D01*
X128933410Y-115867744D01*
X128902972Y-115918502D01*
X128897544Y-115933175D01*
X128885171Y-115965649D01*
X128878905Y-115980572D01*
X128866036Y-115978516D01*
X128837933Y-115967357D01*
X128811721Y-115948927D01*
X128799771Y-115914098D01*
X128803336Y-115889151D01*
X128825235Y-115838547D01*
X128860644Y-115791128D01*
X128902052Y-115758334D01*
X128919400Y-115750752D01*
X128985089Y-115738076D01*
X129054829Y-115743097D01*
G37*
X129054829Y-115743097D02*
X129114753Y-115765355D01*
X129139673Y-115782080D01*
X129164910Y-115806043D01*
X129182912Y-115836526D01*
X129194858Y-115878023D01*
X129201930Y-115935032D01*
X129205308Y-116012047D01*
X129206171Y-116113565D01*
X129206002Y-116166027D01*
X129205153Y-116237715D01*
X129203711Y-116294925D01*
X129201814Y-116332809D01*
X129199597Y-116346514D01*
X129185172Y-116341981D01*
X129156054Y-116329670D01*
X129155181Y-116329272D01*
X129140060Y-116321356D01*
X129129891Y-116310495D01*
X129123691Y-116291471D01*
X129120478Y-116259069D01*
X129119270Y-116208071D01*
X129119086Y-116133261D01*
X129118714Y-116085804D01*
X129114750Y-115996615D01*
X129105673Y-115931287D01*
X129090524Y-115886393D01*
X129068345Y-115858507D01*
X129038175Y-115844203D01*
X129033990Y-115843206D01*
X128977480Y-115842427D01*
X128933410Y-115867744D01*
X128902972Y-115918502D01*
X128897544Y-115933175D01*
X128885171Y-115965649D01*
X128878905Y-115980572D01*
X128866036Y-115978516D01*
X128837933Y-115967357D01*
X128811721Y-115948927D01*
X128799771Y-115914098D01*
X128803336Y-115889151D01*
X128825235Y-115838547D01*
X128860644Y-115791128D01*
X128902052Y-115758334D01*
X128919400Y-115750752D01*
X128985089Y-115738076D01*
X129054829Y-115743097D01*
X129792167Y-115750663D02*
X129789952Y-115788850D01*
X129789952Y-115788850D02*
X129788216Y-115846886D01*
X129788216Y-115846886D02*
X129787101Y-115920180D01*
X129787101Y-115920180D02*
X129786743Y-115997055D01*
X129786743Y-115997055D02*
X129786743Y-116257196D01*
X129786743Y-116257196D02*
X129832674Y-116303127D01*
X129832674Y-116303127D02*
X129864325Y-116331429D01*
X129864325Y-116331429D02*
X129892110Y-116342893D01*
X129892110Y-116342893D02*
X129930085Y-116342168D01*
X129930085Y-116342168D02*
X129945160Y-116340321D01*
X129945160Y-116340321D02*
X129992274Y-116334948D01*
X129992274Y-116334948D02*
X130031244Y-116331869D01*
X130031244Y-116331869D02*
X130040743Y-116331585D01*
X130040743Y-116331585D02*
X130072767Y-116333445D01*
X130072767Y-116333445D02*
X130118568Y-116338114D01*
X130118568Y-116338114D02*
X130136326Y-116340321D01*
X130136326Y-116340321D02*
X130179943Y-116343735D01*
X130179943Y-116343735D02*
X130209255Y-116336320D01*
X130209255Y-116336320D02*
X130238320Y-116313427D01*
X130238320Y-116313427D02*
X130248812Y-116303127D01*
X130248812Y-116303127D02*
X130294743Y-116257196D01*
X130294743Y-116257196D02*
X130294743Y-115770602D01*
X130294743Y-115770602D02*
X130257774Y-115753758D01*
X130257774Y-115753758D02*
X130225941Y-115741282D01*
X130225941Y-115741282D02*
X130207317Y-115736914D01*
X130207317Y-115736914D02*
X130202542Y-115750718D01*
X130202542Y-115750718D02*
X130198079Y-115789286D01*
X130198079Y-115789286D02*
X130194225Y-115848356D01*
X130194225Y-115848356D02*
X130191278Y-115923663D01*
X130191278Y-115923663D02*
X130189857Y-115987286D01*
X130189857Y-115987286D02*
X130185886Y-116237657D01*
X130185886Y-116237657D02*
X130151241Y-116242556D01*
X130151241Y-116242556D02*
X130119732Y-116239131D01*
X130119732Y-116239131D02*
X130104292Y-116228041D01*
X130104292Y-116228041D02*
X130099977Y-116207308D01*
X130099977Y-116207308D02*
X130096292Y-116163145D01*
X130096292Y-116163145D02*
X130093531Y-116101146D01*
X130093531Y-116101146D02*
X130091988Y-116026909D01*
X130091988Y-116026909D02*
X130091765Y-115988706D01*
X130091765Y-115988706D02*
X130091543Y-115768783D01*
X130091543Y-115768783D02*
X130045834Y-115752849D01*
X130045834Y-115752849D02*
X130013482Y-115742015D01*
X130013482Y-115742015D02*
X129995885Y-115736962D01*
X129995885Y-115736962D02*
X129995377Y-115736914D01*
X129995377Y-115736914D02*
X129993612Y-115750648D01*
X129993612Y-115750648D02*
X129991671Y-115788730D01*
X129991671Y-115788730D02*
X129989718Y-115846482D01*
X129989718Y-115846482D02*
X129987916Y-115919227D01*
X129987916Y-115919227D02*
X129986657Y-115987286D01*
X129986657Y-115987286D02*
X129982686Y-116237657D01*
X129982686Y-116237657D02*
X129895600Y-116237657D01*
X129895600Y-116237657D02*
X129891604Y-116009240D01*
X129891604Y-116009240D02*
X129887608Y-115780822D01*
X129887608Y-115780822D02*
X129845153Y-115758868D01*
X129845153Y-115758868D02*
X129813808Y-115743793D01*
X129813808Y-115743793D02*
X129795256Y-115736951D01*
X129795256Y-115736951D02*
X129794721Y-115736914D01*
X129794721Y-115736914D02*
X129792167Y-115750663D01*
X129792167Y-115750663D02*
X129792167Y-115750663D01*
G36*
X130225941Y-115741282D02*
G01*
X130257774Y-115753758D01*
X130294743Y-115770602D01*
X130294743Y-116257196D01*
X130248812Y-116303127D01*
X130238320Y-116313427D01*
X130209255Y-116336320D01*
X130179943Y-116343735D01*
X130136326Y-116340321D01*
X130118568Y-116338114D01*
X130072767Y-116333445D01*
X130040743Y-116331585D01*
X130031244Y-116331869D01*
X129992274Y-116334948D01*
X129945160Y-116340321D01*
X129930085Y-116342168D01*
X129892110Y-116342893D01*
X129864325Y-116331429D01*
X129832674Y-116303127D01*
X129786743Y-116257196D01*
X129786743Y-115997055D01*
X129787101Y-115920180D01*
X129788216Y-115846886D01*
X129789952Y-115788850D01*
X129792167Y-115750663D01*
X129794721Y-115736914D01*
X129795256Y-115736951D01*
X129813808Y-115743793D01*
X129845153Y-115758868D01*
X129887608Y-115780822D01*
X129891604Y-116009240D01*
X129895600Y-116237657D01*
X129982686Y-116237657D01*
X129986657Y-115987286D01*
X129987916Y-115919227D01*
X129989718Y-115846482D01*
X129991671Y-115788730D01*
X129993612Y-115750648D01*
X129995377Y-115736914D01*
X129995885Y-115736962D01*
X130013482Y-115742015D01*
X130045834Y-115752849D01*
X130091543Y-115768783D01*
X130091765Y-115988706D01*
X130091988Y-116026909D01*
X130093531Y-116101146D01*
X130096292Y-116163145D01*
X130099977Y-116207308D01*
X130104292Y-116228041D01*
X130119732Y-116239131D01*
X130151241Y-116242556D01*
X130185886Y-116237657D01*
X130189857Y-115987286D01*
X130191278Y-115923663D01*
X130194225Y-115848356D01*
X130198079Y-115789286D01*
X130202542Y-115750718D01*
X130207317Y-115736914D01*
X130225941Y-115741282D01*
G37*
X130225941Y-115741282D02*
X130257774Y-115753758D01*
X130294743Y-115770602D01*
X130294743Y-116257196D01*
X130248812Y-116303127D01*
X130238320Y-116313427D01*
X130209255Y-116336320D01*
X130179943Y-116343735D01*
X130136326Y-116340321D01*
X130118568Y-116338114D01*
X130072767Y-116333445D01*
X130040743Y-116331585D01*
X130031244Y-116331869D01*
X129992274Y-116334948D01*
X129945160Y-116340321D01*
X129930085Y-116342168D01*
X129892110Y-116342893D01*
X129864325Y-116331429D01*
X129832674Y-116303127D01*
X129786743Y-116257196D01*
X129786743Y-115997055D01*
X129787101Y-115920180D01*
X129788216Y-115846886D01*
X129789952Y-115788850D01*
X129792167Y-115750663D01*
X129794721Y-115736914D01*
X129795256Y-115736951D01*
X129813808Y-115743793D01*
X129845153Y-115758868D01*
X129887608Y-115780822D01*
X129891604Y-116009240D01*
X129895600Y-116237657D01*
X129982686Y-116237657D01*
X129986657Y-115987286D01*
X129987916Y-115919227D01*
X129989718Y-115846482D01*
X129991671Y-115788730D01*
X129993612Y-115750648D01*
X129995377Y-115736914D01*
X129995885Y-115736962D01*
X130013482Y-115742015D01*
X130045834Y-115752849D01*
X130091543Y-115768783D01*
X130091765Y-115988706D01*
X130091988Y-116026909D01*
X130093531Y-116101146D01*
X130096292Y-116163145D01*
X130099977Y-116207308D01*
X130104292Y-116228041D01*
X130119732Y-116239131D01*
X130151241Y-116242556D01*
X130185886Y-116237657D01*
X130189857Y-115987286D01*
X130191278Y-115923663D01*
X130194225Y-115848356D01*
X130198079Y-115789286D01*
X130202542Y-115750718D01*
X130207317Y-115736914D01*
X130225941Y-115741282D01*
X131532256Y-115742968D02*
X131475384Y-115764087D01*
X131475384Y-115764087D02*
X131474733Y-115764493D01*
X131474733Y-115764493D02*
X131439560Y-115790380D01*
X131439560Y-115790380D02*
X131413593Y-115820633D01*
X131413593Y-115820633D02*
X131395330Y-115860058D01*
X131395330Y-115860058D02*
X131383268Y-115913462D01*
X131383268Y-115913462D02*
X131375904Y-115985651D01*
X131375904Y-115985651D02*
X131371736Y-116081432D01*
X131371736Y-116081432D02*
X131371371Y-116095078D01*
X131371371Y-116095078D02*
X131366124Y-116300842D01*
X131366124Y-116300842D02*
X131410284Y-116323678D01*
X131410284Y-116323678D02*
X131442237Y-116339110D01*
X131442237Y-116339110D02*
X131461530Y-116346423D01*
X131461530Y-116346423D02*
X131462422Y-116346514D01*
X131462422Y-116346514D02*
X131465761Y-116333022D01*
X131465761Y-116333022D02*
X131468413Y-116296626D01*
X131468413Y-116296626D02*
X131470044Y-116243452D01*
X131470044Y-116243452D02*
X131470400Y-116200393D01*
X131470400Y-116200393D02*
X131470408Y-116130641D01*
X131470408Y-116130641D02*
X131473597Y-116086837D01*
X131473597Y-116086837D02*
X131484712Y-116065944D01*
X131484712Y-116065944D02*
X131508499Y-116064925D01*
X131508499Y-116064925D02*
X131549704Y-116080741D01*
X131549704Y-116080741D02*
X131611914Y-116109815D01*
X131611914Y-116109815D02*
X131657659Y-116133963D01*
X131657659Y-116133963D02*
X131681187Y-116154913D01*
X131681187Y-116154913D02*
X131688104Y-116177747D01*
X131688104Y-116177747D02*
X131688114Y-116178877D01*
X131688114Y-116178877D02*
X131676701Y-116218212D01*
X131676701Y-116218212D02*
X131642908Y-116239462D01*
X131642908Y-116239462D02*
X131591191Y-116242539D01*
X131591191Y-116242539D02*
X131553939Y-116242006D01*
X131553939Y-116242006D02*
X131534297Y-116252735D01*
X131534297Y-116252735D02*
X131522048Y-116278505D01*
X131522048Y-116278505D02*
X131514998Y-116311337D01*
X131514998Y-116311337D02*
X131525158Y-116329966D01*
X131525158Y-116329966D02*
X131528983Y-116332632D01*
X131528983Y-116332632D02*
X131564999Y-116343340D01*
X131564999Y-116343340D02*
X131615434Y-116344856D01*
X131615434Y-116344856D02*
X131667374Y-116337759D01*
X131667374Y-116337759D02*
X131704178Y-116324788D01*
X131704178Y-116324788D02*
X131755062Y-116281585D01*
X131755062Y-116281585D02*
X131783986Y-116221446D01*
X131783986Y-116221446D02*
X131789714Y-116174462D01*
X131789714Y-116174462D02*
X131785343Y-116132082D01*
X131785343Y-116132082D02*
X131769525Y-116097488D01*
X131769525Y-116097488D02*
X131738203Y-116066763D01*
X131738203Y-116066763D02*
X131687322Y-116035990D01*
X131687322Y-116035990D02*
X131612824Y-116001252D01*
X131612824Y-116001252D02*
X131608286Y-115999288D01*
X131608286Y-115999288D02*
X131541179Y-115968287D01*
X131541179Y-115968287D02*
X131499768Y-115942862D01*
X131499768Y-115942862D02*
X131482019Y-115920014D01*
X131482019Y-115920014D02*
X131485893Y-115896745D01*
X131485893Y-115896745D02*
X131509357Y-115870056D01*
X131509357Y-115870056D02*
X131516373Y-115863914D01*
X131516373Y-115863914D02*
X131563370Y-115840100D01*
X131563370Y-115840100D02*
X131612067Y-115841103D01*
X131612067Y-115841103D02*
X131654478Y-115864451D01*
X131654478Y-115864451D02*
X131682616Y-115907675D01*
X131682616Y-115907675D02*
X131685231Y-115916160D01*
X131685231Y-115916160D02*
X131710692Y-115957308D01*
X131710692Y-115957308D02*
X131742999Y-115977128D01*
X131742999Y-115977128D02*
X131789714Y-115996770D01*
X131789714Y-115996770D02*
X131789714Y-115945950D01*
X131789714Y-115945950D02*
X131775504Y-115872082D01*
X131775504Y-115872082D02*
X131733325Y-115804327D01*
X131733325Y-115804327D02*
X131711376Y-115781661D01*
X131711376Y-115781661D02*
X131661483Y-115752569D01*
X131661483Y-115752569D02*
X131598033Y-115739400D01*
X131598033Y-115739400D02*
X131532256Y-115742968D01*
X131532256Y-115742968D02*
X131532256Y-115742968D01*
G36*
X131661483Y-115752569D02*
G01*
X131711376Y-115781661D01*
X131733325Y-115804327D01*
X131775504Y-115872082D01*
X131789714Y-115945950D01*
X131789714Y-115996770D01*
X131742999Y-115977128D01*
X131710692Y-115957308D01*
X131685231Y-115916160D01*
X131682616Y-115907675D01*
X131654478Y-115864451D01*
X131612067Y-115841103D01*
X131563370Y-115840100D01*
X131516373Y-115863914D01*
X131509357Y-115870056D01*
X131485893Y-115896745D01*
X131482019Y-115920014D01*
X131499768Y-115942862D01*
X131541179Y-115968287D01*
X131608286Y-115999288D01*
X131612824Y-116001252D01*
X131687322Y-116035990D01*
X131738203Y-116066763D01*
X131769525Y-116097488D01*
X131785343Y-116132082D01*
X131789714Y-116174462D01*
X131783986Y-116221446D01*
X131755062Y-116281585D01*
X131704178Y-116324788D01*
X131667374Y-116337759D01*
X131615434Y-116344856D01*
X131564999Y-116343340D01*
X131528983Y-116332632D01*
X131525158Y-116329966D01*
X131514998Y-116311337D01*
X131522048Y-116278505D01*
X131534297Y-116252735D01*
X131553939Y-116242006D01*
X131591191Y-116242539D01*
X131642908Y-116239462D01*
X131676701Y-116218212D01*
X131688114Y-116178877D01*
X131688104Y-116177747D01*
X131681187Y-116154913D01*
X131657659Y-116133963D01*
X131611914Y-116109815D01*
X131549704Y-116080741D01*
X131508499Y-116064925D01*
X131484712Y-116065944D01*
X131473597Y-116086837D01*
X131470408Y-116130641D01*
X131470400Y-116200393D01*
X131470044Y-116243452D01*
X131468413Y-116296626D01*
X131465761Y-116333022D01*
X131462422Y-116346514D01*
X131461530Y-116346423D01*
X131442237Y-116339110D01*
X131410284Y-116323678D01*
X131366124Y-116300842D01*
X131371371Y-116095078D01*
X131371736Y-116081432D01*
X131375904Y-115985651D01*
X131383268Y-115913462D01*
X131395330Y-115860058D01*
X131413593Y-115820633D01*
X131439560Y-115790380D01*
X131474733Y-115764493D01*
X131475384Y-115764087D01*
X131532256Y-115742968D01*
X131598033Y-115739400D01*
X131661483Y-115752569D01*
G37*
X131661483Y-115752569D02*
X131711376Y-115781661D01*
X131733325Y-115804327D01*
X131775504Y-115872082D01*
X131789714Y-115945950D01*
X131789714Y-115996770D01*
X131742999Y-115977128D01*
X131710692Y-115957308D01*
X131685231Y-115916160D01*
X131682616Y-115907675D01*
X131654478Y-115864451D01*
X131612067Y-115841103D01*
X131563370Y-115840100D01*
X131516373Y-115863914D01*
X131509357Y-115870056D01*
X131485893Y-115896745D01*
X131482019Y-115920014D01*
X131499768Y-115942862D01*
X131541179Y-115968287D01*
X131608286Y-115999288D01*
X131612824Y-116001252D01*
X131687322Y-116035990D01*
X131738203Y-116066763D01*
X131769525Y-116097488D01*
X131785343Y-116132082D01*
X131789714Y-116174462D01*
X131783986Y-116221446D01*
X131755062Y-116281585D01*
X131704178Y-116324788D01*
X131667374Y-116337759D01*
X131615434Y-116344856D01*
X131564999Y-116343340D01*
X131528983Y-116332632D01*
X131525158Y-116329966D01*
X131514998Y-116311337D01*
X131522048Y-116278505D01*
X131534297Y-116252735D01*
X131553939Y-116242006D01*
X131591191Y-116242539D01*
X131642908Y-116239462D01*
X131676701Y-116218212D01*
X131688114Y-116178877D01*
X131688104Y-116177747D01*
X131681187Y-116154913D01*
X131657659Y-116133963D01*
X131611914Y-116109815D01*
X131549704Y-116080741D01*
X131508499Y-116064925D01*
X131484712Y-116065944D01*
X131473597Y-116086837D01*
X131470408Y-116130641D01*
X131470400Y-116200393D01*
X131470044Y-116243452D01*
X131468413Y-116296626D01*
X131465761Y-116333022D01*
X131462422Y-116346514D01*
X131461530Y-116346423D01*
X131442237Y-116339110D01*
X131410284Y-116323678D01*
X131366124Y-116300842D01*
X131371371Y-116095078D01*
X131371736Y-116081432D01*
X131375904Y-115985651D01*
X131383268Y-115913462D01*
X131395330Y-115860058D01*
X131413593Y-115820633D01*
X131439560Y-115790380D01*
X131474733Y-115764493D01*
X131475384Y-115764087D01*
X131532256Y-115742968D01*
X131598033Y-115739400D01*
X131661483Y-115752569D01*
X129427124Y-115748335D02*
X129385333Y-115767344D01*
X129385333Y-115767344D02*
X129352531Y-115790378D01*
X129352531Y-115790378D02*
X129328497Y-115816133D01*
X129328497Y-115816133D02*
X129311903Y-115849358D01*
X129311903Y-115849358D02*
X129301423Y-115894800D01*
X129301423Y-115894800D02*
X129295729Y-115957207D01*
X129295729Y-115957207D02*
X129293493Y-116041327D01*
X129293493Y-116041327D02*
X129293257Y-116096721D01*
X129293257Y-116096721D02*
X129293257Y-116312826D01*
X129293257Y-116312826D02*
X129330226Y-116329670D01*
X129330226Y-116329670D02*
X129359344Y-116341981D01*
X129359344Y-116341981D02*
X129373769Y-116346514D01*
X129373769Y-116346514D02*
X129376528Y-116333025D01*
X129376528Y-116333025D02*
X129378718Y-116296653D01*
X129378718Y-116296653D02*
X129380058Y-116243542D01*
X129380058Y-116243542D02*
X129380343Y-116201372D01*
X129380343Y-116201372D02*
X129381566Y-116140447D01*
X129381566Y-116140447D02*
X129384864Y-116092115D01*
X129384864Y-116092115D02*
X129389679Y-116062518D01*
X129389679Y-116062518D02*
X129393504Y-116056229D01*
X129393504Y-116056229D02*
X129419217Y-116062652D01*
X129419217Y-116062652D02*
X129459582Y-116079125D01*
X129459582Y-116079125D02*
X129506321Y-116101458D01*
X129506321Y-116101458D02*
X129551155Y-116125457D01*
X129551155Y-116125457D02*
X129585807Y-116146930D01*
X129585807Y-116146930D02*
X129601998Y-116161685D01*
X129601998Y-116161685D02*
X129602062Y-116161845D01*
X129602062Y-116161845D02*
X129600670Y-116189152D01*
X129600670Y-116189152D02*
X129588182Y-116215219D01*
X129588182Y-116215219D02*
X129566257Y-116236392D01*
X129566257Y-116236392D02*
X129534257Y-116243474D01*
X129534257Y-116243474D02*
X129506908Y-116242649D01*
X129506908Y-116242649D02*
X129468174Y-116242042D01*
X129468174Y-116242042D02*
X129447842Y-116251116D01*
X129447842Y-116251116D02*
X129435631Y-116275092D01*
X129435631Y-116275092D02*
X129434091Y-116279613D01*
X129434091Y-116279613D02*
X129428797Y-116313806D01*
X129428797Y-116313806D02*
X129442953Y-116334568D01*
X129442953Y-116334568D02*
X129479852Y-116344462D01*
X129479852Y-116344462D02*
X129519711Y-116346292D01*
X129519711Y-116346292D02*
X129591438Y-116332727D01*
X129591438Y-116332727D02*
X129628568Y-116313355D01*
X129628568Y-116313355D02*
X129674424Y-116267845D01*
X129674424Y-116267845D02*
X129698744Y-116211983D01*
X129698744Y-116211983D02*
X129700927Y-116152957D01*
X129700927Y-116152957D02*
X129680371Y-116097953D01*
X129680371Y-116097953D02*
X129649451Y-116063486D01*
X129649451Y-116063486D02*
X129618580Y-116044189D01*
X129618580Y-116044189D02*
X129570058Y-116019759D01*
X129570058Y-116019759D02*
X129513515Y-115994985D01*
X129513515Y-115994985D02*
X129504090Y-115991199D01*
X129504090Y-115991199D02*
X129441981Y-115963791D01*
X129441981Y-115963791D02*
X129406178Y-115939634D01*
X129406178Y-115939634D02*
X129394663Y-115915619D01*
X129394663Y-115915619D02*
X129405420Y-115888635D01*
X129405420Y-115888635D02*
X129423886Y-115867543D01*
X129423886Y-115867543D02*
X129467531Y-115841572D01*
X129467531Y-115841572D02*
X129515554Y-115839624D01*
X129515554Y-115839624D02*
X129559594Y-115859637D01*
X129559594Y-115859637D02*
X129591291Y-115899551D01*
X129591291Y-115899551D02*
X129595451Y-115909848D01*
X129595451Y-115909848D02*
X129619673Y-115947724D01*
X129619673Y-115947724D02*
X129655035Y-115975842D01*
X129655035Y-115975842D02*
X129699657Y-115998917D01*
X129699657Y-115998917D02*
X129699657Y-115933485D01*
X129699657Y-115933485D02*
X129697031Y-115893506D01*
X129697031Y-115893506D02*
X129685770Y-115861997D01*
X129685770Y-115861997D02*
X129660801Y-115828378D01*
X129660801Y-115828378D02*
X129636831Y-115802484D01*
X129636831Y-115802484D02*
X129599559Y-115765817D01*
X129599559Y-115765817D02*
X129570599Y-115746121D01*
X129570599Y-115746121D02*
X129539495Y-115738220D01*
X129539495Y-115738220D02*
X129504287Y-115736914D01*
X129504287Y-115736914D02*
X129427124Y-115748335D01*
X129427124Y-115748335D02*
X129427124Y-115748335D01*
G36*
X129539495Y-115738220D02*
G01*
X129570599Y-115746121D01*
X129599559Y-115765817D01*
X129636831Y-115802484D01*
X129660801Y-115828378D01*
X129685770Y-115861997D01*
X129697031Y-115893506D01*
X129699657Y-115933485D01*
X129699657Y-115998917D01*
X129655035Y-115975842D01*
X129619673Y-115947724D01*
X129595451Y-115909848D01*
X129591291Y-115899551D01*
X129559594Y-115859637D01*
X129515554Y-115839624D01*
X129467531Y-115841572D01*
X129423886Y-115867543D01*
X129405420Y-115888635D01*
X129394663Y-115915619D01*
X129406178Y-115939634D01*
X129441981Y-115963791D01*
X129504090Y-115991199D01*
X129513515Y-115994985D01*
X129570058Y-116019759D01*
X129618580Y-116044189D01*
X129649451Y-116063486D01*
X129680371Y-116097953D01*
X129700927Y-116152957D01*
X129698744Y-116211983D01*
X129674424Y-116267845D01*
X129628568Y-116313355D01*
X129591438Y-116332727D01*
X129519711Y-116346292D01*
X129479852Y-116344462D01*
X129442953Y-116334568D01*
X129428797Y-116313806D01*
X129434091Y-116279613D01*
X129435631Y-116275092D01*
X129447842Y-116251116D01*
X129468174Y-116242042D01*
X129506908Y-116242649D01*
X129534257Y-116243474D01*
X129566257Y-116236392D01*
X129588182Y-116215219D01*
X129600670Y-116189152D01*
X129602062Y-116161845D01*
X129601998Y-116161685D01*
X129585807Y-116146930D01*
X129551155Y-116125457D01*
X129506321Y-116101458D01*
X129459582Y-116079125D01*
X129419217Y-116062652D01*
X129393504Y-116056229D01*
X129389679Y-116062518D01*
X129384864Y-116092115D01*
X129381566Y-116140447D01*
X129380343Y-116201372D01*
X129380058Y-116243542D01*
X129378718Y-116296653D01*
X129376528Y-116333025D01*
X129373769Y-116346514D01*
X129359344Y-116341981D01*
X129330226Y-116329670D01*
X129293257Y-116312826D01*
X129293257Y-116096721D01*
X129293493Y-116041327D01*
X129295729Y-115957207D01*
X129301423Y-115894800D01*
X129311903Y-115849358D01*
X129328497Y-115816133D01*
X129352531Y-115790378D01*
X129385333Y-115767344D01*
X129427124Y-115748335D01*
X129504287Y-115736914D01*
X129539495Y-115738220D01*
G37*
X129539495Y-115738220D02*
X129570599Y-115746121D01*
X129599559Y-115765817D01*
X129636831Y-115802484D01*
X129660801Y-115828378D01*
X129685770Y-115861997D01*
X129697031Y-115893506D01*
X129699657Y-115933485D01*
X129699657Y-115998917D01*
X129655035Y-115975842D01*
X129619673Y-115947724D01*
X129595451Y-115909848D01*
X129591291Y-115899551D01*
X129559594Y-115859637D01*
X129515554Y-115839624D01*
X129467531Y-115841572D01*
X129423886Y-115867543D01*
X129405420Y-115888635D01*
X129394663Y-115915619D01*
X129406178Y-115939634D01*
X129441981Y-115963791D01*
X129504090Y-115991199D01*
X129513515Y-115994985D01*
X129570058Y-116019759D01*
X129618580Y-116044189D01*
X129649451Y-116063486D01*
X129680371Y-116097953D01*
X129700927Y-116152957D01*
X129698744Y-116211983D01*
X129674424Y-116267845D01*
X129628568Y-116313355D01*
X129591438Y-116332727D01*
X129519711Y-116346292D01*
X129479852Y-116344462D01*
X129442953Y-116334568D01*
X129428797Y-116313806D01*
X129434091Y-116279613D01*
X129435631Y-116275092D01*
X129447842Y-116251116D01*
X129468174Y-116242042D01*
X129506908Y-116242649D01*
X129534257Y-116243474D01*
X129566257Y-116236392D01*
X129588182Y-116215219D01*
X129600670Y-116189152D01*
X129602062Y-116161845D01*
X129601998Y-116161685D01*
X129585807Y-116146930D01*
X129551155Y-116125457D01*
X129506321Y-116101458D01*
X129459582Y-116079125D01*
X129419217Y-116062652D01*
X129393504Y-116056229D01*
X129389679Y-116062518D01*
X129384864Y-116092115D01*
X129381566Y-116140447D01*
X129380343Y-116201372D01*
X129380058Y-116243542D01*
X129378718Y-116296653D01*
X129376528Y-116333025D01*
X129373769Y-116346514D01*
X129359344Y-116341981D01*
X129330226Y-116329670D01*
X129293257Y-116312826D01*
X129293257Y-116096721D01*
X129293493Y-116041327D01*
X129295729Y-115957207D01*
X129301423Y-115894800D01*
X129311903Y-115849358D01*
X129328497Y-115816133D01*
X129352531Y-115790378D01*
X129385333Y-115767344D01*
X129427124Y-115748335D01*
X129504287Y-115736914D01*
X129539495Y-115738220D01*
X133972256Y-115711918D02*
X133916799Y-115739568D01*
X133916799Y-115739568D02*
X133867852Y-115790480D01*
X133867852Y-115790480D02*
X133854371Y-115809338D01*
X133854371Y-115809338D02*
X133839686Y-115834015D01*
X133839686Y-115834015D02*
X133830158Y-115860816D01*
X133830158Y-115860816D02*
X133824707Y-115896587D01*
X133824707Y-115896587D02*
X133822253Y-115948169D01*
X133822253Y-115948169D02*
X133821714Y-116016267D01*
X133821714Y-116016267D02*
X133824148Y-116109588D01*
X133824148Y-116109588D02*
X133832606Y-116179657D01*
X133832606Y-116179657D02*
X133848826Y-116231931D01*
X133848826Y-116231931D02*
X133874546Y-116271869D01*
X133874546Y-116271869D02*
X133911503Y-116304929D01*
X133911503Y-116304929D02*
X133914218Y-116306886D01*
X133914218Y-116306886D02*
X133950640Y-116326908D01*
X133950640Y-116326908D02*
X133994498Y-116336815D01*
X133994498Y-116336815D02*
X134050276Y-116339257D01*
X134050276Y-116339257D02*
X134140952Y-116339257D01*
X134140952Y-116339257D02*
X134140990Y-116427283D01*
X134140990Y-116427283D02*
X134141834Y-116476308D01*
X134141834Y-116476308D02*
X134146976Y-116505065D01*
X134146976Y-116505065D02*
X134160413Y-116522311D01*
X134160413Y-116522311D02*
X134186142Y-116536808D01*
X134186142Y-116536808D02*
X134192321Y-116539769D01*
X134192321Y-116539769D02*
X134221236Y-116553648D01*
X134221236Y-116553648D02*
X134243624Y-116562414D01*
X134243624Y-116562414D02*
X134260271Y-116563171D01*
X134260271Y-116563171D02*
X134271964Y-116553023D01*
X134271964Y-116553023D02*
X134279490Y-116529073D01*
X134279490Y-116529073D02*
X134283634Y-116488426D01*
X134283634Y-116488426D02*
X134285185Y-116428186D01*
X134285185Y-116428186D02*
X134284929Y-116345455D01*
X134284929Y-116345455D02*
X134283651Y-116237339D01*
X134283651Y-116237339D02*
X134283252Y-116205000D01*
X134283252Y-116205000D02*
X134281815Y-116093524D01*
X134281815Y-116093524D02*
X134280528Y-116020603D01*
X134280528Y-116020603D02*
X134141029Y-116020603D01*
X134141029Y-116020603D02*
X134140245Y-116082499D01*
X134140245Y-116082499D02*
X134136760Y-116122997D01*
X134136760Y-116122997D02*
X134128876Y-116149708D01*
X134128876Y-116149708D02*
X134114895Y-116170244D01*
X134114895Y-116170244D02*
X134105403Y-116180260D01*
X134105403Y-116180260D02*
X134066596Y-116209567D01*
X134066596Y-116209567D02*
X134032237Y-116211952D01*
X134032237Y-116211952D02*
X133996784Y-116187750D01*
X133996784Y-116187750D02*
X133995886Y-116186857D01*
X133995886Y-116186857D02*
X133981461Y-116168153D01*
X133981461Y-116168153D02*
X133972687Y-116142732D01*
X133972687Y-116142732D02*
X133968261Y-116103584D01*
X133968261Y-116103584D02*
X133966882Y-116043697D01*
X133966882Y-116043697D02*
X133966857Y-116030430D01*
X133966857Y-116030430D02*
X133970188Y-115947901D01*
X133970188Y-115947901D02*
X133981031Y-115890691D01*
X133981031Y-115890691D02*
X134000660Y-115855766D01*
X134000660Y-115855766D02*
X134030350Y-115840094D01*
X134030350Y-115840094D02*
X134047509Y-115838514D01*
X134047509Y-115838514D02*
X134088234Y-115845926D01*
X134088234Y-115845926D02*
X134116168Y-115870330D01*
X134116168Y-115870330D02*
X134132983Y-115914980D01*
X134132983Y-115914980D02*
X134140350Y-115983130D01*
X134140350Y-115983130D02*
X134141029Y-116020603D01*
X134141029Y-116020603D02*
X134280528Y-116020603D01*
X134280528Y-116020603D02*
X134280292Y-116007245D01*
X134280292Y-116007245D02*
X134278323Y-115942333D01*
X134278323Y-115942333D02*
X134275550Y-115894958D01*
X134275550Y-115894958D02*
X134271612Y-115861290D01*
X134271612Y-115861290D02*
X134266151Y-115837498D01*
X134266151Y-115837498D02*
X134258808Y-115819753D01*
X134258808Y-115819753D02*
X134249223Y-115804224D01*
X134249223Y-115804224D02*
X134245113Y-115798381D01*
X134245113Y-115798381D02*
X134190595Y-115743185D01*
X134190595Y-115743185D02*
X134121664Y-115711890D01*
X134121664Y-115711890D02*
X134041928Y-115703165D01*
X134041928Y-115703165D02*
X133972256Y-115711918D01*
X133972256Y-115711918D02*
X133972256Y-115711918D01*
G36*
X134283252Y-116205000D02*
G01*
X134283651Y-116237339D01*
X134284929Y-116345455D01*
X134285185Y-116428186D01*
X134283634Y-116488426D01*
X134279490Y-116529073D01*
X134271964Y-116553023D01*
X134260271Y-116563171D01*
X134243624Y-116562414D01*
X134221236Y-116553648D01*
X134192321Y-116539769D01*
X134186142Y-116536808D01*
X134160413Y-116522311D01*
X134146976Y-116505065D01*
X134141834Y-116476308D01*
X134140990Y-116427283D01*
X134140952Y-116339257D01*
X134050276Y-116339257D01*
X133994498Y-116336815D01*
X133950640Y-116326908D01*
X133914218Y-116306886D01*
X133911503Y-116304929D01*
X133874546Y-116271869D01*
X133848826Y-116231931D01*
X133832606Y-116179657D01*
X133824148Y-116109588D01*
X133822084Y-116030430D01*
X133966857Y-116030430D01*
X133966882Y-116043697D01*
X133968261Y-116103584D01*
X133972687Y-116142732D01*
X133981461Y-116168153D01*
X133995886Y-116186857D01*
X133996784Y-116187750D01*
X134032237Y-116211952D01*
X134066596Y-116209567D01*
X134105403Y-116180260D01*
X134114895Y-116170244D01*
X134128876Y-116149708D01*
X134136760Y-116122997D01*
X134140245Y-116082499D01*
X134141029Y-116020603D01*
X134140350Y-115983130D01*
X134132983Y-115914980D01*
X134116168Y-115870330D01*
X134088234Y-115845926D01*
X134047509Y-115838514D01*
X134030350Y-115840094D01*
X134000660Y-115855766D01*
X133981031Y-115890691D01*
X133970188Y-115947901D01*
X133966857Y-116030430D01*
X133822084Y-116030430D01*
X133821714Y-116016267D01*
X133822253Y-115948169D01*
X133824707Y-115896587D01*
X133830158Y-115860816D01*
X133839686Y-115834015D01*
X133854371Y-115809338D01*
X133867852Y-115790480D01*
X133916799Y-115739568D01*
X133972256Y-115711918D01*
X134041928Y-115703165D01*
X134121664Y-115711890D01*
X134190595Y-115743185D01*
X134245113Y-115798381D01*
X134249223Y-115804224D01*
X134258808Y-115819753D01*
X134266151Y-115837498D01*
X134271612Y-115861290D01*
X134275550Y-115894958D01*
X134278323Y-115942333D01*
X134280292Y-116007245D01*
X134280528Y-116020603D01*
X134281815Y-116093524D01*
X134283252Y-116205000D01*
G37*
X134283252Y-116205000D02*
X134283651Y-116237339D01*
X134284929Y-116345455D01*
X134285185Y-116428186D01*
X134283634Y-116488426D01*
X134279490Y-116529073D01*
X134271964Y-116553023D01*
X134260271Y-116563171D01*
X134243624Y-116562414D01*
X134221236Y-116553648D01*
X134192321Y-116539769D01*
X134186142Y-116536808D01*
X134160413Y-116522311D01*
X134146976Y-116505065D01*
X134141834Y-116476308D01*
X134140990Y-116427283D01*
X134140952Y-116339257D01*
X134050276Y-116339257D01*
X133994498Y-116336815D01*
X133950640Y-116326908D01*
X133914218Y-116306886D01*
X133911503Y-116304929D01*
X133874546Y-116271869D01*
X133848826Y-116231931D01*
X133832606Y-116179657D01*
X133824148Y-116109588D01*
X133822084Y-116030430D01*
X133966857Y-116030430D01*
X133966882Y-116043697D01*
X133968261Y-116103584D01*
X133972687Y-116142732D01*
X133981461Y-116168153D01*
X133995886Y-116186857D01*
X133996784Y-116187750D01*
X134032237Y-116211952D01*
X134066596Y-116209567D01*
X134105403Y-116180260D01*
X134114895Y-116170244D01*
X134128876Y-116149708D01*
X134136760Y-116122997D01*
X134140245Y-116082499D01*
X134141029Y-116020603D01*
X134140350Y-115983130D01*
X134132983Y-115914980D01*
X134116168Y-115870330D01*
X134088234Y-115845926D01*
X134047509Y-115838514D01*
X134030350Y-115840094D01*
X134000660Y-115855766D01*
X133981031Y-115890691D01*
X133970188Y-115947901D01*
X133966857Y-116030430D01*
X133822084Y-116030430D01*
X133821714Y-116016267D01*
X133822253Y-115948169D01*
X133824707Y-115896587D01*
X133830158Y-115860816D01*
X133839686Y-115834015D01*
X133854371Y-115809338D01*
X133867852Y-115790480D01*
X133916799Y-115739568D01*
X133972256Y-115711918D01*
X134041928Y-115703165D01*
X134121664Y-115711890D01*
X134190595Y-115743185D01*
X134245113Y-115798381D01*
X134249223Y-115804224D01*
X134258808Y-115819753D01*
X134266151Y-115837498D01*
X134271612Y-115861290D01*
X134275550Y-115894958D01*
X134278323Y-115942333D01*
X134280292Y-116007245D01*
X134280528Y-116020603D01*
X134281815Y-116093524D01*
X134283252Y-116205000D01*
X134530885Y-115713962D02*
X134462855Y-115749733D01*
X134462855Y-115749733D02*
X134412649Y-115807301D01*
X134412649Y-115807301D02*
X134394815Y-115844312D01*
X134394815Y-115844312D02*
X134380937Y-115899882D01*
X134380937Y-115899882D02*
X134373833Y-115970096D01*
X134373833Y-115970096D02*
X134373160Y-116046727D01*
X134373160Y-116046727D02*
X134378573Y-116121552D01*
X134378573Y-116121552D02*
X134389730Y-116186342D01*
X134389730Y-116186342D02*
X134406286Y-116232873D01*
X134406286Y-116232873D02*
X134411374Y-116240887D01*
X134411374Y-116240887D02*
X134471645Y-116300707D01*
X134471645Y-116300707D02*
X134543231Y-116336535D01*
X134543231Y-116336535D02*
X134620908Y-116347020D01*
X134620908Y-116347020D02*
X134699452Y-116330810D01*
X134699452Y-116330810D02*
X134721311Y-116321092D01*
X134721311Y-116321092D02*
X134763878Y-116291143D01*
X134763878Y-116291143D02*
X134801237Y-116251433D01*
X134801237Y-116251433D02*
X134804768Y-116246397D01*
X134804768Y-116246397D02*
X134819119Y-116222124D01*
X134819119Y-116222124D02*
X134828606Y-116196178D01*
X134828606Y-116196178D02*
X134834210Y-116162022D01*
X134834210Y-116162022D02*
X134836914Y-116113119D01*
X134836914Y-116113119D02*
X134837701Y-116042935D01*
X134837701Y-116042935D02*
X134837714Y-116027200D01*
X134837714Y-116027200D02*
X134837678Y-116022192D01*
X134837678Y-116022192D02*
X134692571Y-116022192D01*
X134692571Y-116022192D02*
X134691727Y-116088430D01*
X134691727Y-116088430D02*
X134688404Y-116132386D01*
X134688404Y-116132386D02*
X134681417Y-116160779D01*
X134681417Y-116160779D02*
X134669584Y-116180325D01*
X134669584Y-116180325D02*
X134663543Y-116186857D01*
X134663543Y-116186857D02*
X134628814Y-116211680D01*
X134628814Y-116211680D02*
X134595097Y-116210548D01*
X134595097Y-116210548D02*
X134561005Y-116189016D01*
X134561005Y-116189016D02*
X134540671Y-116166029D01*
X134540671Y-116166029D02*
X134528629Y-116132478D01*
X134528629Y-116132478D02*
X134521866Y-116079569D01*
X134521866Y-116079569D02*
X134521402Y-116073399D01*
X134521402Y-116073399D02*
X134520248Y-115977513D01*
X134520248Y-115977513D02*
X134532312Y-115906299D01*
X134532312Y-115906299D02*
X134557430Y-115860194D01*
X134557430Y-115860194D02*
X134595440Y-115839635D01*
X134595440Y-115839635D02*
X134609008Y-115838514D01*
X134609008Y-115838514D02*
X134644636Y-115844152D01*
X134644636Y-115844152D02*
X134669006Y-115863686D01*
X134669006Y-115863686D02*
X134683907Y-115901042D01*
X134683907Y-115901042D02*
X134691125Y-115960150D01*
X134691125Y-115960150D02*
X134692571Y-116022192D01*
X134692571Y-116022192D02*
X134837678Y-116022192D01*
X134837678Y-116022192D02*
X134837174Y-115952413D01*
X134837174Y-115952413D02*
X134834904Y-115900159D01*
X134834904Y-115900159D02*
X134829932Y-115863949D01*
X134829932Y-115863949D02*
X134821287Y-115837299D01*
X134821287Y-115837299D02*
X134807995Y-115813722D01*
X134807995Y-115813722D02*
X134805057Y-115809338D01*
X134805057Y-115809338D02*
X134755687Y-115750249D01*
X134755687Y-115750249D02*
X134701891Y-115715947D01*
X134701891Y-115715947D02*
X134636398Y-115702331D01*
X134636398Y-115702331D02*
X134614158Y-115701665D01*
X134614158Y-115701665D02*
X134530885Y-115713962D01*
X134530885Y-115713962D02*
X134530885Y-115713962D01*
G36*
X134837701Y-116042935D02*
G01*
X134836914Y-116113119D01*
X134834210Y-116162022D01*
X134828606Y-116196178D01*
X134819119Y-116222124D01*
X134804768Y-116246397D01*
X134801237Y-116251433D01*
X134763878Y-116291143D01*
X134721311Y-116321092D01*
X134699452Y-116330810D01*
X134620908Y-116347020D01*
X134543231Y-116336535D01*
X134471645Y-116300707D01*
X134411374Y-116240887D01*
X134406286Y-116232873D01*
X134389730Y-116186342D01*
X134378573Y-116121552D01*
X134373160Y-116046727D01*
X134373767Y-115977513D01*
X134520248Y-115977513D01*
X134521402Y-116073399D01*
X134521866Y-116079569D01*
X134528629Y-116132478D01*
X134540671Y-116166029D01*
X134561005Y-116189016D01*
X134595097Y-116210548D01*
X134628814Y-116211680D01*
X134663543Y-116186857D01*
X134669584Y-116180325D01*
X134681417Y-116160779D01*
X134688404Y-116132386D01*
X134691727Y-116088430D01*
X134692571Y-116022192D01*
X134691125Y-115960150D01*
X134683907Y-115901042D01*
X134669006Y-115863686D01*
X134644636Y-115844152D01*
X134609008Y-115838514D01*
X134595440Y-115839635D01*
X134557430Y-115860194D01*
X134532312Y-115906299D01*
X134520248Y-115977513D01*
X134373767Y-115977513D01*
X134373833Y-115970096D01*
X134380937Y-115899882D01*
X134394815Y-115844312D01*
X134412649Y-115807301D01*
X134462855Y-115749733D01*
X134530885Y-115713962D01*
X134614158Y-115701665D01*
X134636398Y-115702331D01*
X134701891Y-115715947D01*
X134755687Y-115750249D01*
X134805057Y-115809338D01*
X134807995Y-115813722D01*
X134821287Y-115837299D01*
X134829932Y-115863949D01*
X134834904Y-115900159D01*
X134837174Y-115952413D01*
X134837678Y-116022192D01*
X134837714Y-116027200D01*
X134837701Y-116042935D01*
G37*
X134837701Y-116042935D02*
X134836914Y-116113119D01*
X134834210Y-116162022D01*
X134828606Y-116196178D01*
X134819119Y-116222124D01*
X134804768Y-116246397D01*
X134801237Y-116251433D01*
X134763878Y-116291143D01*
X134721311Y-116321092D01*
X134699452Y-116330810D01*
X134620908Y-116347020D01*
X134543231Y-116336535D01*
X134471645Y-116300707D01*
X134411374Y-116240887D01*
X134406286Y-116232873D01*
X134389730Y-116186342D01*
X134378573Y-116121552D01*
X134373160Y-116046727D01*
X134373767Y-115977513D01*
X134520248Y-115977513D01*
X134521402Y-116073399D01*
X134521866Y-116079569D01*
X134528629Y-116132478D01*
X134540671Y-116166029D01*
X134561005Y-116189016D01*
X134595097Y-116210548D01*
X134628814Y-116211680D01*
X134663543Y-116186857D01*
X134669584Y-116180325D01*
X134681417Y-116160779D01*
X134688404Y-116132386D01*
X134691727Y-116088430D01*
X134692571Y-116022192D01*
X134691125Y-115960150D01*
X134683907Y-115901042D01*
X134669006Y-115863686D01*
X134644636Y-115844152D01*
X134609008Y-115838514D01*
X134595440Y-115839635D01*
X134557430Y-115860194D01*
X134532312Y-115906299D01*
X134520248Y-115977513D01*
X134373767Y-115977513D01*
X134373833Y-115970096D01*
X134380937Y-115899882D01*
X134394815Y-115844312D01*
X134412649Y-115807301D01*
X134462855Y-115749733D01*
X134530885Y-115713962D01*
X134614158Y-115701665D01*
X134636398Y-115702331D01*
X134701891Y-115715947D01*
X134755687Y-115750249D01*
X134805057Y-115809338D01*
X134807995Y-115813722D01*
X134821287Y-115837299D01*
X134829932Y-115863949D01*
X134834904Y-115900159D01*
X134837174Y-115952413D01*
X134837678Y-116022192D01*
X134837714Y-116027200D01*
X134837701Y-116042935D01*
D13*
%TO.C,A1*%
X125585000Y-98695000D02*
X125585000Y-100695000D01*
X129235000Y-101195000D02*
X128635000Y-101195000D01*
X128935000Y-100895000D02*
X128635000Y-101195000D01*
X129685000Y-100695000D02*
X129685000Y-98695000D01*
X128935000Y-100895000D02*
X129235000Y-101195000D01*
X129685000Y-98695000D02*
X125585000Y-98695000D01*
X125585000Y-100695000D02*
X129685000Y-100695000D01*
%TO.C,TP3*%
X121600000Y-100645000D02*
X121600000Y-98745000D01*
X119700000Y-100645000D02*
X121600000Y-100645000D01*
X119700000Y-98745000D02*
X119700000Y-100645000D01*
X121600000Y-98745000D02*
X119700000Y-98745000D01*
%TO.C,TP2*%
X124140000Y-98745000D02*
X122240000Y-98745000D01*
X122240000Y-98745000D02*
X122240000Y-100645000D01*
X124140000Y-100645000D02*
X124140000Y-98745000D01*
X122240000Y-100645000D02*
X124140000Y-100645000D01*
%TO.C,TP1*%
X145862000Y-104460000D02*
X145862000Y-106360000D01*
X147762000Y-106360000D02*
X147762000Y-104460000D01*
X147762000Y-104460000D02*
X145862000Y-104460000D01*
X145862000Y-106360000D02*
X147762000Y-106360000D01*
%TO.C,J5*%
X145862000Y-117790000D02*
X147762000Y-117790000D01*
X147762000Y-117790000D02*
X147762000Y-115890000D01*
X145862000Y-115890000D02*
X145862000Y-117790000D01*
X147762000Y-115890000D02*
X145862000Y-115890000D01*
D12*
%TO.C,LOGO2*%
X118853014Y-113883967D02*
X118771780Y-113871412D01*
X118771780Y-113871412D02*
X118729125Y-113882411D01*
X118729125Y-113882411D02*
X118602646Y-113917829D01*
X118602646Y-113917829D02*
X118392727Y-113975098D01*
X118392727Y-113975098D02*
X118138688Y-114043515D01*
X118138688Y-114043515D02*
X118062375Y-114063914D01*
X118062375Y-114063914D02*
X117760931Y-114156672D01*
X117760931Y-114156672D02*
X117584561Y-114242898D01*
X117584561Y-114242898D02*
X117531755Y-114326272D01*
X117531755Y-114326272D02*
X117600999Y-114410477D01*
X117600999Y-114410477D02*
X117790780Y-114499194D01*
X117790780Y-114499194D02*
X117871875Y-114527532D01*
X117871875Y-114527532D02*
X118205250Y-114638270D01*
X118205250Y-114638270D02*
X117887750Y-114744455D01*
X117887750Y-114744455D02*
X117658383Y-114840008D01*
X117658383Y-114840008D02*
X117555929Y-114931310D01*
X117555929Y-114931310D02*
X117580410Y-115019109D01*
X117580410Y-115019109D02*
X117731846Y-115104155D01*
X117731846Y-115104155D02*
X117899540Y-115158639D01*
X117899540Y-115158639D02*
X118160829Y-115233523D01*
X118160829Y-115233523D02*
X118423901Y-115312487D01*
X118423901Y-115312487D02*
X118549937Y-115352100D01*
X118549937Y-115352100D02*
X118720383Y-115405910D01*
X118720383Y-115405910D02*
X118831369Y-115438518D01*
X118831369Y-115438518D02*
X118851562Y-115443000D01*
X118851562Y-115443000D02*
X118866876Y-115388426D01*
X118866876Y-115388426D02*
X118872000Y-115282258D01*
X118872000Y-115282258D02*
X118863306Y-115183541D01*
X118863306Y-115183541D02*
X118819360Y-115120950D01*
X118819360Y-115120950D02*
X118713371Y-115079896D01*
X118713371Y-115079896D02*
X118518546Y-115045792D01*
X118518546Y-115045792D02*
X118410396Y-115030916D01*
X118410396Y-115030916D02*
X118242465Y-114997461D01*
X118242465Y-114997461D02*
X118148940Y-114956961D01*
X118148940Y-114956961D02*
X118141695Y-114935090D01*
X118141695Y-114935090D02*
X118217034Y-114888699D01*
X118217034Y-114888699D02*
X118376598Y-114825852D01*
X118376598Y-114825852D02*
X118532389Y-114776180D01*
X118532389Y-114776180D02*
X118712069Y-114714187D01*
X118712069Y-114714187D02*
X118819168Y-114657690D01*
X118819168Y-114657690D02*
X118832841Y-114624487D01*
X118832841Y-114624487D02*
X118746178Y-114580589D01*
X118746178Y-114580589D02*
X118577544Y-114514979D01*
X118577544Y-114514979D02*
X118400299Y-114454097D01*
X118400299Y-114454097D02*
X118023848Y-114331750D01*
X118023848Y-114331750D02*
X118447924Y-114238280D01*
X118447924Y-114238280D02*
X118674034Y-114183798D01*
X118674034Y-114183798D02*
X118802043Y-114135181D01*
X118802043Y-114135181D02*
X118859011Y-114076760D01*
X118859011Y-114076760D02*
X118872000Y-113992868D01*
X118872000Y-113992868D02*
X118872000Y-113992749D01*
X118872000Y-113992749D02*
X118853014Y-113883967D01*
X118853014Y-113883967D02*
X118853014Y-113883967D01*
G36*
X118853014Y-113883967D02*
G01*
X118872000Y-113992749D01*
X118872000Y-113992868D01*
X118859011Y-114076760D01*
X118802043Y-114135181D01*
X118674034Y-114183798D01*
X118447924Y-114238280D01*
X118023848Y-114331750D01*
X118400299Y-114454097D01*
X118577544Y-114514979D01*
X118746178Y-114580589D01*
X118832841Y-114624487D01*
X118819168Y-114657690D01*
X118712069Y-114714187D01*
X118532389Y-114776180D01*
X118376598Y-114825852D01*
X118217034Y-114888699D01*
X118141695Y-114935090D01*
X118148940Y-114956961D01*
X118242465Y-114997461D01*
X118410396Y-115030916D01*
X118518546Y-115045792D01*
X118713371Y-115079896D01*
X118819360Y-115120950D01*
X118863306Y-115183541D01*
X118872000Y-115282258D01*
X118866876Y-115388426D01*
X118851562Y-115443000D01*
X118831369Y-115438518D01*
X118720383Y-115405910D01*
X118549937Y-115352100D01*
X118423901Y-115312487D01*
X118160829Y-115233523D01*
X117899540Y-115158639D01*
X117731846Y-115104155D01*
X117580410Y-115019109D01*
X117555929Y-114931310D01*
X117658383Y-114840008D01*
X117887750Y-114744455D01*
X118205250Y-114638270D01*
X117871875Y-114527532D01*
X117790780Y-114499194D01*
X117600999Y-114410477D01*
X117531755Y-114326272D01*
X117584561Y-114242898D01*
X117760931Y-114156672D01*
X118062375Y-114063914D01*
X118138688Y-114043515D01*
X118392727Y-113975098D01*
X118602646Y-113917829D01*
X118729125Y-113882411D01*
X118771780Y-113871412D01*
X118853014Y-113883967D01*
G37*
X118853014Y-113883967D02*
X118872000Y-113992749D01*
X118872000Y-113992868D01*
X118859011Y-114076760D01*
X118802043Y-114135181D01*
X118674034Y-114183798D01*
X118447924Y-114238280D01*
X118023848Y-114331750D01*
X118400299Y-114454097D01*
X118577544Y-114514979D01*
X118746178Y-114580589D01*
X118832841Y-114624487D01*
X118819168Y-114657690D01*
X118712069Y-114714187D01*
X118532389Y-114776180D01*
X118376598Y-114825852D01*
X118217034Y-114888699D01*
X118141695Y-114935090D01*
X118148940Y-114956961D01*
X118242465Y-114997461D01*
X118410396Y-115030916D01*
X118518546Y-115045792D01*
X118713371Y-115079896D01*
X118819360Y-115120950D01*
X118863306Y-115183541D01*
X118872000Y-115282258D01*
X118866876Y-115388426D01*
X118851562Y-115443000D01*
X118831369Y-115438518D01*
X118720383Y-115405910D01*
X118549937Y-115352100D01*
X118423901Y-115312487D01*
X118160829Y-115233523D01*
X117899540Y-115158639D01*
X117731846Y-115104155D01*
X117580410Y-115019109D01*
X117555929Y-114931310D01*
X117658383Y-114840008D01*
X117887750Y-114744455D01*
X118205250Y-114638270D01*
X117871875Y-114527532D01*
X117790780Y-114499194D01*
X117600999Y-114410477D01*
X117531755Y-114326272D01*
X117584561Y-114242898D01*
X117760931Y-114156672D01*
X118062375Y-114063914D01*
X118138688Y-114043515D01*
X118392727Y-113975098D01*
X118602646Y-113917829D01*
X118729125Y-113882411D01*
X118771780Y-113871412D01*
X118853014Y-113883967D01*
X123297553Y-111126034D02*
X123183067Y-111078221D01*
X123183067Y-111078221D02*
X122960023Y-111062210D01*
X122960023Y-111062210D02*
X122868221Y-111061500D01*
X122868221Y-111061500D02*
X122635499Y-111063576D01*
X122635499Y-111063576D02*
X122504969Y-111075622D01*
X122504969Y-111075622D02*
X122451828Y-111106369D01*
X122451828Y-111106369D02*
X122451276Y-111164545D01*
X122451276Y-111164545D02*
X122462286Y-111204375D01*
X122462286Y-111204375D02*
X122533721Y-111359577D01*
X122533721Y-111359577D02*
X122590432Y-111437099D01*
X122590432Y-111437099D02*
X122636903Y-111516474D01*
X122636903Y-111516474D02*
X122608681Y-111613612D01*
X122608681Y-111613612D02*
X122547745Y-111706690D01*
X122547745Y-111706690D02*
X122419757Y-111886433D01*
X122419757Y-111886433D02*
X121916489Y-111503327D01*
X121916489Y-111503327D02*
X121610930Y-111249609D01*
X121610930Y-111249609D02*
X121421166Y-111030868D01*
X121421166Y-111030868D02*
X121347246Y-110830733D01*
X121347246Y-110830733D02*
X121389224Y-110632838D01*
X121389224Y-110632838D02*
X121547150Y-110420812D01*
X121547150Y-110420812D02*
X121821074Y-110178288D01*
X121821074Y-110178288D02*
X121920882Y-110100928D01*
X121920882Y-110100928D02*
X122143438Y-109933956D01*
X122143438Y-109933956D02*
X122289360Y-109834799D01*
X122289360Y-109834799D02*
X122382520Y-109793629D01*
X122382520Y-109793629D02*
X122446786Y-109800621D01*
X122446786Y-109800621D02*
X122506029Y-109845949D01*
X122506029Y-109845949D02*
X122516333Y-109855808D01*
X122516333Y-109855808D02*
X122587478Y-109936546D01*
X122587478Y-109936546D02*
X122603102Y-110018163D01*
X122603102Y-110018163D02*
X122565169Y-110148003D01*
X122565169Y-110148003D02*
X122531962Y-110232745D01*
X122531962Y-110232745D02*
X122471989Y-110397704D01*
X122471989Y-110397704D02*
X122464666Y-110483143D01*
X122464666Y-110483143D02*
X122508923Y-110524624D01*
X122508923Y-110524624D02*
X122523005Y-110530443D01*
X122523005Y-110530443D02*
X122603526Y-110617124D01*
X122603526Y-110617124D02*
X122618500Y-110687294D01*
X122618500Y-110687294D02*
X122660079Y-110786459D01*
X122660079Y-110786459D02*
X122713750Y-110807500D01*
X122713750Y-110807500D02*
X122791322Y-110754561D01*
X122791322Y-110754561D02*
X122809000Y-110680500D01*
X122809000Y-110680500D02*
X122835593Y-110577315D01*
X122835593Y-110577315D02*
X122872500Y-110553500D01*
X122872500Y-110553500D02*
X122924093Y-110606685D01*
X122924093Y-110606685D02*
X122936000Y-110680500D01*
X122936000Y-110680500D02*
X122975705Y-110783929D01*
X122975705Y-110783929D02*
X123031250Y-110807500D01*
X123031250Y-110807500D02*
X123108822Y-110754561D01*
X123108822Y-110754561D02*
X123126500Y-110680500D01*
X123126500Y-110680500D02*
X123169106Y-110574846D01*
X123169106Y-110574846D02*
X123228634Y-110553500D01*
X123228634Y-110553500D02*
X123296248Y-110508989D01*
X123296248Y-110508989D02*
X123292112Y-110393972D01*
X123292112Y-110393972D02*
X123224912Y-110236223D01*
X123224912Y-110236223D02*
X123103334Y-110063516D01*
X123103334Y-110063516D02*
X123060565Y-110016086D01*
X123060565Y-110016086D02*
X122909178Y-109852143D01*
X122909178Y-109852143D02*
X122729906Y-109651138D01*
X122729906Y-109651138D02*
X122640879Y-109548777D01*
X122640879Y-109548777D02*
X122303420Y-109243772D01*
X122303420Y-109243772D02*
X121921287Y-109044857D01*
X121921287Y-109044857D02*
X121512798Y-108947847D01*
X121512798Y-108947847D02*
X121096272Y-108948555D01*
X121096272Y-108948555D02*
X120690025Y-109042795D01*
X120690025Y-109042795D02*
X120312376Y-109226379D01*
X120312376Y-109226379D02*
X119981643Y-109495122D01*
X119981643Y-109495122D02*
X119716142Y-109844837D01*
X119716142Y-109844837D02*
X119538125Y-110257917D01*
X119538125Y-110257917D02*
X119454005Y-110736818D01*
X119454005Y-110736818D02*
X119493365Y-111201288D01*
X119493365Y-111201288D02*
X119536828Y-111364917D01*
X119536828Y-111364917D02*
X119729692Y-111775295D01*
X119729692Y-111775295D02*
X120030616Y-112138305D01*
X120030616Y-112138305D02*
X120424096Y-112435924D01*
X120424096Y-112435924D02*
X120491250Y-112474424D01*
X120491250Y-112474424D02*
X120654427Y-112549062D01*
X120654427Y-112549062D02*
X120835258Y-112592605D01*
X120835258Y-112592605D02*
X121074626Y-112612338D01*
X121074626Y-112612338D02*
X121285000Y-112615858D01*
X121285000Y-112615858D02*
X121524077Y-112598427D01*
X121524077Y-112598427D02*
X121524077Y-112322965D01*
X121524077Y-112322965D02*
X121131366Y-112318046D01*
X121131366Y-112318046D02*
X120745355Y-112225271D01*
X120745355Y-112225271D02*
X120399906Y-112053082D01*
X120399906Y-112053082D02*
X120128884Y-111809920D01*
X120128884Y-111809920D02*
X120112019Y-111788424D01*
X120112019Y-111788424D02*
X119895127Y-111407842D01*
X119895127Y-111407842D02*
X119786804Y-110992775D01*
X119786804Y-110992775D02*
X119788981Y-110569185D01*
X119788981Y-110569185D02*
X119903590Y-110163036D01*
X119903590Y-110163036D02*
X119979981Y-110013601D01*
X119979981Y-110013601D02*
X120237523Y-109688056D01*
X120237523Y-109688056D02*
X120565746Y-109446953D01*
X120565746Y-109446953D02*
X120940077Y-109298047D01*
X120940077Y-109298047D02*
X121335944Y-109249091D01*
X121335944Y-109249091D02*
X121728774Y-109307841D01*
X121728774Y-109307841D02*
X121944320Y-109393706D01*
X121944320Y-109393706D02*
X122127389Y-109485995D01*
X122127389Y-109485995D02*
X121849070Y-109644924D01*
X121849070Y-109644924D02*
X121463853Y-109856455D01*
X121463853Y-109856455D02*
X121144123Y-110009764D01*
X121144123Y-110009764D02*
X120852077Y-110120522D01*
X120852077Y-110120522D02*
X120549907Y-110204395D01*
X120549907Y-110204395D02*
X120438742Y-110229443D01*
X120438742Y-110229443D02*
X120185743Y-110286516D01*
X120185743Y-110286516D02*
X120029538Y-110334425D01*
X120029538Y-110334425D02*
X119942346Y-110388698D01*
X119942346Y-110388698D02*
X119896383Y-110464863D01*
X119896383Y-110464863D02*
X119872145Y-110546122D01*
X119872145Y-110546122D02*
X119849861Y-110746864D01*
X119849861Y-110746864D02*
X119863785Y-110975725D01*
X119863785Y-110975725D02*
X119870537Y-111014586D01*
X119870537Y-111014586D02*
X119922385Y-111276761D01*
X119922385Y-111276761D02*
X120360180Y-111357561D01*
X120360180Y-111357561D02*
X120723515Y-111453249D01*
X120723515Y-111453249D02*
X121141209Y-111609359D01*
X121141209Y-111609359D02*
X121568219Y-111807271D01*
X121568219Y-111807271D02*
X121913253Y-111999586D01*
X121913253Y-111999586D02*
X122128756Y-112131669D01*
X122128756Y-112131669D02*
X121889623Y-112231585D01*
X121889623Y-112231585D02*
X121524077Y-112322965D01*
X121524077Y-112322965D02*
X121524077Y-112598427D01*
X121524077Y-112598427D02*
X121740278Y-112582663D01*
X121740278Y-112582663D02*
X122111802Y-112473544D01*
X122111802Y-112473544D02*
X122424606Y-112278109D01*
X122424606Y-112278109D02*
X122653432Y-112047840D01*
X122653432Y-112047840D02*
X122816595Y-111854661D01*
X122816595Y-111854661D02*
X122977419Y-111665627D01*
X122977419Y-111665627D02*
X123032587Y-111601250D01*
X123032587Y-111601250D02*
X123218021Y-111373452D01*
X123218021Y-111373452D02*
X123307774Y-111219745D01*
X123307774Y-111219745D02*
X123297553Y-111126034D01*
X123297553Y-111126034D02*
X123297553Y-111126034D01*
G36*
X121285000Y-112615858D02*
G01*
X121074626Y-112612338D01*
X120835258Y-112592605D01*
X120654427Y-112549062D01*
X120491250Y-112474424D01*
X120424096Y-112435924D01*
X120030616Y-112138305D01*
X119729692Y-111775295D01*
X119536828Y-111364917D01*
X119493365Y-111201288D01*
X119475696Y-110992775D01*
X119786804Y-110992775D01*
X119895127Y-111407842D01*
X120112019Y-111788424D01*
X120128884Y-111809920D01*
X120399906Y-112053082D01*
X120745355Y-112225271D01*
X121131366Y-112318046D01*
X121524077Y-112322965D01*
X121889623Y-112231585D01*
X122128756Y-112131669D01*
X121913253Y-111999586D01*
X121568219Y-111807271D01*
X121141209Y-111609359D01*
X120723515Y-111453249D01*
X120360180Y-111357561D01*
X119922385Y-111276761D01*
X119870537Y-111014586D01*
X119863785Y-110975725D01*
X119849861Y-110746864D01*
X119872145Y-110546122D01*
X119896383Y-110464863D01*
X119942346Y-110388698D01*
X120029538Y-110334425D01*
X120185743Y-110286516D01*
X120438742Y-110229443D01*
X120549907Y-110204395D01*
X120852077Y-110120522D01*
X121144123Y-110009764D01*
X121463853Y-109856455D01*
X121849070Y-109644924D01*
X122127389Y-109485995D01*
X121944320Y-109393706D01*
X121728774Y-109307841D01*
X121335944Y-109249091D01*
X120940077Y-109298047D01*
X120565746Y-109446953D01*
X120237523Y-109688056D01*
X119979981Y-110013601D01*
X119903590Y-110163036D01*
X119788981Y-110569185D01*
X119786804Y-110992775D01*
X119475696Y-110992775D01*
X119454005Y-110736818D01*
X119538125Y-110257917D01*
X119716142Y-109844837D01*
X119981643Y-109495122D01*
X120312376Y-109226379D01*
X120690025Y-109042795D01*
X121096272Y-108948555D01*
X121512798Y-108947847D01*
X121921287Y-109044857D01*
X122303420Y-109243772D01*
X122640879Y-109548777D01*
X122729906Y-109651138D01*
X122909178Y-109852143D01*
X123060565Y-110016086D01*
X123103334Y-110063516D01*
X123224912Y-110236223D01*
X123292112Y-110393972D01*
X123296248Y-110508989D01*
X123228634Y-110553500D01*
X123169106Y-110574846D01*
X123126500Y-110680500D01*
X123108822Y-110754561D01*
X123031250Y-110807500D01*
X122975705Y-110783929D01*
X122936000Y-110680500D01*
X122924093Y-110606685D01*
X122872500Y-110553500D01*
X122835593Y-110577315D01*
X122809000Y-110680500D01*
X122791322Y-110754561D01*
X122713750Y-110807500D01*
X122660079Y-110786459D01*
X122618500Y-110687294D01*
X122603526Y-110617124D01*
X122523005Y-110530443D01*
X122508923Y-110524624D01*
X122464666Y-110483143D01*
X122471989Y-110397704D01*
X122531962Y-110232745D01*
X122565169Y-110148003D01*
X122603102Y-110018163D01*
X122587478Y-109936546D01*
X122516333Y-109855808D01*
X122506029Y-109845949D01*
X122446786Y-109800621D01*
X122382520Y-109793629D01*
X122289360Y-109834799D01*
X122143438Y-109933956D01*
X121920882Y-110100928D01*
X121821074Y-110178288D01*
X121547150Y-110420812D01*
X121389224Y-110632838D01*
X121347246Y-110830733D01*
X121421166Y-111030868D01*
X121610930Y-111249609D01*
X121916489Y-111503327D01*
X122419757Y-111886433D01*
X122547745Y-111706690D01*
X122608681Y-111613612D01*
X122636903Y-111516474D01*
X122590432Y-111437099D01*
X122533721Y-111359577D01*
X122462286Y-111204375D01*
X122451276Y-111164545D01*
X122451828Y-111106369D01*
X122504969Y-111075622D01*
X122635499Y-111063576D01*
X122868221Y-111061500D01*
X122960023Y-111062210D01*
X123183067Y-111078221D01*
X123297553Y-111126034D01*
X123307774Y-111219745D01*
X123218021Y-111373452D01*
X123032587Y-111601250D01*
X122977419Y-111665627D01*
X122816595Y-111854661D01*
X122653432Y-112047840D01*
X122424606Y-112278109D01*
X122111802Y-112473544D01*
X121740278Y-112582663D01*
X121524077Y-112598427D01*
X121285000Y-112615858D01*
G37*
X121285000Y-112615858D02*
X121074626Y-112612338D01*
X120835258Y-112592605D01*
X120654427Y-112549062D01*
X120491250Y-112474424D01*
X120424096Y-112435924D01*
X120030616Y-112138305D01*
X119729692Y-111775295D01*
X119536828Y-111364917D01*
X119493365Y-111201288D01*
X119475696Y-110992775D01*
X119786804Y-110992775D01*
X119895127Y-111407842D01*
X120112019Y-111788424D01*
X120128884Y-111809920D01*
X120399906Y-112053082D01*
X120745355Y-112225271D01*
X121131366Y-112318046D01*
X121524077Y-112322965D01*
X121889623Y-112231585D01*
X122128756Y-112131669D01*
X121913253Y-111999586D01*
X121568219Y-111807271D01*
X121141209Y-111609359D01*
X120723515Y-111453249D01*
X120360180Y-111357561D01*
X119922385Y-111276761D01*
X119870537Y-111014586D01*
X119863785Y-110975725D01*
X119849861Y-110746864D01*
X119872145Y-110546122D01*
X119896383Y-110464863D01*
X119942346Y-110388698D01*
X120029538Y-110334425D01*
X120185743Y-110286516D01*
X120438742Y-110229443D01*
X120549907Y-110204395D01*
X120852077Y-110120522D01*
X121144123Y-110009764D01*
X121463853Y-109856455D01*
X121849070Y-109644924D01*
X122127389Y-109485995D01*
X121944320Y-109393706D01*
X121728774Y-109307841D01*
X121335944Y-109249091D01*
X120940077Y-109298047D01*
X120565746Y-109446953D01*
X120237523Y-109688056D01*
X119979981Y-110013601D01*
X119903590Y-110163036D01*
X119788981Y-110569185D01*
X119786804Y-110992775D01*
X119475696Y-110992775D01*
X119454005Y-110736818D01*
X119538125Y-110257917D01*
X119716142Y-109844837D01*
X119981643Y-109495122D01*
X120312376Y-109226379D01*
X120690025Y-109042795D01*
X121096272Y-108948555D01*
X121512798Y-108947847D01*
X121921287Y-109044857D01*
X122303420Y-109243772D01*
X122640879Y-109548777D01*
X122729906Y-109651138D01*
X122909178Y-109852143D01*
X123060565Y-110016086D01*
X123103334Y-110063516D01*
X123224912Y-110236223D01*
X123292112Y-110393972D01*
X123296248Y-110508989D01*
X123228634Y-110553500D01*
X123169106Y-110574846D01*
X123126500Y-110680500D01*
X123108822Y-110754561D01*
X123031250Y-110807500D01*
X122975705Y-110783929D01*
X122936000Y-110680500D01*
X122924093Y-110606685D01*
X122872500Y-110553500D01*
X122835593Y-110577315D01*
X122809000Y-110680500D01*
X122791322Y-110754561D01*
X122713750Y-110807500D01*
X122660079Y-110786459D01*
X122618500Y-110687294D01*
X122603526Y-110617124D01*
X122523005Y-110530443D01*
X122508923Y-110524624D01*
X122464666Y-110483143D01*
X122471989Y-110397704D01*
X122531962Y-110232745D01*
X122565169Y-110148003D01*
X122603102Y-110018163D01*
X122587478Y-109936546D01*
X122516333Y-109855808D01*
X122506029Y-109845949D01*
X122446786Y-109800621D01*
X122382520Y-109793629D01*
X122289360Y-109834799D01*
X122143438Y-109933956D01*
X121920882Y-110100928D01*
X121821074Y-110178288D01*
X121547150Y-110420812D01*
X121389224Y-110632838D01*
X121347246Y-110830733D01*
X121421166Y-111030868D01*
X121610930Y-111249609D01*
X121916489Y-111503327D01*
X122419757Y-111886433D01*
X122547745Y-111706690D01*
X122608681Y-111613612D01*
X122636903Y-111516474D01*
X122590432Y-111437099D01*
X122533721Y-111359577D01*
X122462286Y-111204375D01*
X122451276Y-111164545D01*
X122451828Y-111106369D01*
X122504969Y-111075622D01*
X122635499Y-111063576D01*
X122868221Y-111061500D01*
X122960023Y-111062210D01*
X123183067Y-111078221D01*
X123297553Y-111126034D01*
X123307774Y-111219745D01*
X123218021Y-111373452D01*
X123032587Y-111601250D01*
X122977419Y-111665627D01*
X122816595Y-111854661D01*
X122653432Y-112047840D01*
X122424606Y-112278109D01*
X122111802Y-112473544D01*
X121740278Y-112582663D01*
X121524077Y-112598427D01*
X121285000Y-112615858D01*
X118867542Y-112796282D02*
X118839083Y-112752744D01*
X118839083Y-112752744D02*
X118764000Y-112727715D01*
X118764000Y-112727715D02*
X118619669Y-112716071D01*
X118619669Y-112716071D02*
X118383466Y-112712692D01*
X118383466Y-112712692D02*
X118205250Y-112712500D01*
X118205250Y-112712500D02*
X117908567Y-112713510D01*
X117908567Y-112713510D02*
X117716259Y-112719953D01*
X117716259Y-112719953D02*
X117605702Y-112736951D01*
X117605702Y-112736951D02*
X117554273Y-112769627D01*
X117554273Y-112769627D02*
X117539347Y-112823103D01*
X117539347Y-112823103D02*
X117538500Y-112863450D01*
X117538500Y-112863450D02*
X117548701Y-112954942D01*
X117548701Y-112954942D02*
X117601784Y-112993081D01*
X117601784Y-112993081D02*
X117731476Y-112991881D01*
X117731476Y-112991881D02*
X117824250Y-112982192D01*
X117824250Y-112982192D02*
X118110000Y-112949984D01*
X118110000Y-112949984D02*
X118110000Y-113491017D01*
X118110000Y-113491017D02*
X117824250Y-113458809D01*
X117824250Y-113458809D02*
X117648879Y-113444430D01*
X117648879Y-113444430D02*
X117565355Y-113463058D01*
X117565355Y-113463058D02*
X117539954Y-113528705D01*
X117539954Y-113528705D02*
X117538500Y-113577551D01*
X117538500Y-113577551D02*
X117542959Y-113644719D01*
X117542959Y-113644719D02*
X117571418Y-113688257D01*
X117571418Y-113688257D02*
X117646501Y-113713286D01*
X117646501Y-113713286D02*
X117790832Y-113724930D01*
X117790832Y-113724930D02*
X118027035Y-113728309D01*
X118027035Y-113728309D02*
X118205250Y-113728500D01*
X118205250Y-113728500D02*
X118501934Y-113727491D01*
X118501934Y-113727491D02*
X118694242Y-113721048D01*
X118694242Y-113721048D02*
X118804799Y-113704050D01*
X118804799Y-113704050D02*
X118856228Y-113671374D01*
X118856228Y-113671374D02*
X118871154Y-113617898D01*
X118871154Y-113617898D02*
X118872000Y-113577551D01*
X118872000Y-113577551D02*
X118861800Y-113486059D01*
X118861800Y-113486059D02*
X118808717Y-113447920D01*
X118808717Y-113447920D02*
X118679025Y-113449120D01*
X118679025Y-113449120D02*
X118586250Y-113458809D01*
X118586250Y-113458809D02*
X118300500Y-113491017D01*
X118300500Y-113491017D02*
X118300500Y-112949984D01*
X118300500Y-112949984D02*
X118586250Y-112982192D01*
X118586250Y-112982192D02*
X118761622Y-112996571D01*
X118761622Y-112996571D02*
X118845146Y-112977943D01*
X118845146Y-112977943D02*
X118870547Y-112912296D01*
X118870547Y-112912296D02*
X118872000Y-112863450D01*
X118872000Y-112863450D02*
X118867542Y-112796282D01*
X118867542Y-112796282D02*
X118867542Y-112796282D01*
G36*
X118383466Y-112712692D02*
G01*
X118619669Y-112716071D01*
X118764000Y-112727715D01*
X118839083Y-112752744D01*
X118867542Y-112796282D01*
X118872000Y-112863450D01*
X118870547Y-112912296D01*
X118845146Y-112977943D01*
X118761622Y-112996571D01*
X118586250Y-112982192D01*
X118300500Y-112949984D01*
X118300500Y-113491017D01*
X118586250Y-113458809D01*
X118679025Y-113449120D01*
X118808717Y-113447920D01*
X118861800Y-113486059D01*
X118872000Y-113577551D01*
X118871154Y-113617898D01*
X118856228Y-113671374D01*
X118804799Y-113704050D01*
X118694242Y-113721048D01*
X118501934Y-113727491D01*
X118205250Y-113728500D01*
X118027035Y-113728309D01*
X117790832Y-113724930D01*
X117646501Y-113713286D01*
X117571418Y-113688257D01*
X117542959Y-113644719D01*
X117538500Y-113577551D01*
X117539954Y-113528705D01*
X117565355Y-113463058D01*
X117648879Y-113444430D01*
X117824250Y-113458809D01*
X118110000Y-113491017D01*
X118110000Y-112949984D01*
X117824250Y-112982192D01*
X117731476Y-112991881D01*
X117601784Y-112993081D01*
X117548701Y-112954942D01*
X117538500Y-112863450D01*
X117539347Y-112823103D01*
X117554273Y-112769627D01*
X117605702Y-112736951D01*
X117716259Y-112719953D01*
X117908567Y-112713510D01*
X118205250Y-112712500D01*
X118383466Y-112712692D01*
G37*
X118383466Y-112712692D02*
X118619669Y-112716071D01*
X118764000Y-112727715D01*
X118839083Y-112752744D01*
X118867542Y-112796282D01*
X118872000Y-112863450D01*
X118870547Y-112912296D01*
X118845146Y-112977943D01*
X118761622Y-112996571D01*
X118586250Y-112982192D01*
X118300500Y-112949984D01*
X118300500Y-113491017D01*
X118586250Y-113458809D01*
X118679025Y-113449120D01*
X118808717Y-113447920D01*
X118861800Y-113486059D01*
X118872000Y-113577551D01*
X118871154Y-113617898D01*
X118856228Y-113671374D01*
X118804799Y-113704050D01*
X118694242Y-113721048D01*
X118501934Y-113727491D01*
X118205250Y-113728500D01*
X118027035Y-113728309D01*
X117790832Y-113724930D01*
X117646501Y-113713286D01*
X117571418Y-113688257D01*
X117542959Y-113644719D01*
X117538500Y-113577551D01*
X117539954Y-113528705D01*
X117565355Y-113463058D01*
X117648879Y-113444430D01*
X117824250Y-113458809D01*
X118110000Y-113491017D01*
X118110000Y-112949984D01*
X117824250Y-112982192D01*
X117731476Y-112991881D01*
X117601784Y-112993081D01*
X117548701Y-112954942D01*
X117538500Y-112863450D01*
X117539347Y-112823103D01*
X117554273Y-112769627D01*
X117605702Y-112736951D01*
X117716259Y-112719953D01*
X117908567Y-112713510D01*
X118205250Y-112712500D01*
X118383466Y-112712692D01*
X122204182Y-110615753D02*
X122089675Y-110487372D01*
X122089675Y-110487372D02*
X122003533Y-110435998D01*
X122003533Y-110435998D02*
X121819140Y-110394996D01*
X121819140Y-110394996D02*
X121656904Y-110452163D01*
X121656904Y-110452163D02*
X121535133Y-110578723D01*
X121535133Y-110578723D02*
X121472133Y-110745903D01*
X121472133Y-110745903D02*
X121486211Y-110924929D01*
X121486211Y-110924929D02*
X121591626Y-111083409D01*
X121591626Y-111083409D02*
X121773453Y-111177383D01*
X121773453Y-111177383D02*
X121963107Y-111169282D01*
X121963107Y-111169282D02*
X122124786Y-111074703D01*
X122124786Y-111074703D02*
X122222689Y-110909238D01*
X122222689Y-110909238D02*
X122236528Y-110802500D01*
X122236528Y-110802500D02*
X122204182Y-110615753D01*
X122204182Y-110615753D02*
X122204182Y-110615753D01*
G36*
X122003533Y-110435998D02*
G01*
X122089675Y-110487372D01*
X122204182Y-110615753D01*
X122236528Y-110802500D01*
X122222689Y-110909238D01*
X122124786Y-111074703D01*
X121963107Y-111169282D01*
X121773453Y-111177383D01*
X121591626Y-111083409D01*
X121486211Y-110924929D01*
X121472133Y-110745903D01*
X121535133Y-110578723D01*
X121656904Y-110452163D01*
X121819140Y-110394996D01*
X122003533Y-110435998D01*
G37*
X122003533Y-110435998D02*
X122089675Y-110487372D01*
X122204182Y-110615753D01*
X122236528Y-110802500D01*
X122222689Y-110909238D01*
X122124786Y-111074703D01*
X121963107Y-111169282D01*
X121773453Y-111177383D01*
X121591626Y-111083409D01*
X121486211Y-110924929D01*
X121472133Y-110745903D01*
X121535133Y-110578723D01*
X121656904Y-110452163D01*
X121819140Y-110394996D01*
X122003533Y-110435998D01*
X118779869Y-111865452D02*
X118620860Y-111783022D01*
X118620860Y-111783022D02*
X118396808Y-111671622D01*
X118396808Y-111671622D02*
X118175308Y-111564307D01*
X118175308Y-111564307D02*
X117538500Y-111259165D01*
X117538500Y-111259165D02*
X117538500Y-111438145D01*
X117538500Y-111438145D02*
X117560993Y-111570971D01*
X117560993Y-111570971D02*
X117654050Y-111636367D01*
X117654050Y-111636367D02*
X117732882Y-111656002D01*
X117732882Y-111656002D02*
X117859978Y-111693458D01*
X117859978Y-111693458D02*
X117909357Y-111765008D01*
X117909357Y-111765008D02*
X117908873Y-111914564D01*
X117908873Y-111914564D02*
X117907507Y-111931306D01*
X117907507Y-111931306D02*
X117876772Y-112097572D01*
X117876772Y-112097572D02*
X117803709Y-112179150D01*
X117803709Y-112179150D02*
X117729000Y-112204504D01*
X117729000Y-112204504D02*
X117598725Y-112277056D01*
X117598725Y-112277056D02*
X117549490Y-112420307D01*
X117549490Y-112420307D02*
X117550275Y-112539182D01*
X117550275Y-112539182D02*
X117581240Y-112573212D01*
X117581240Y-112573212D02*
X117656892Y-112536393D01*
X117656892Y-112536393D02*
X117821134Y-112456901D01*
X117821134Y-112456901D02*
X118048159Y-112347214D01*
X118048159Y-112347214D02*
X118229251Y-112259815D01*
X118229251Y-112259815D02*
X118229251Y-112009854D01*
X118229251Y-112009854D02*
X118176265Y-111958931D01*
X118176265Y-111958931D02*
X118173500Y-111924695D01*
X118173500Y-111924695D02*
X118220041Y-111862527D01*
X118220041Y-111862527D02*
X118305868Y-111870005D01*
X118305868Y-111870005D02*
X118390947Y-111907634D01*
X118390947Y-111907634D02*
X118358487Y-111955111D01*
X118358487Y-111955111D02*
X118353493Y-111958338D01*
X118353493Y-111958338D02*
X118229251Y-112009854D01*
X118229251Y-112009854D02*
X118229251Y-112259815D01*
X118229251Y-112259815D02*
X118259758Y-112245091D01*
X118259758Y-112245091D02*
X118508129Y-112120648D01*
X118508129Y-112120648D02*
X118702931Y-112014130D01*
X118702931Y-112014130D02*
X118822563Y-111937958D01*
X118822563Y-111937958D02*
X118848940Y-111906273D01*
X118848940Y-111906273D02*
X118779869Y-111865452D01*
X118779869Y-111865452D02*
X118779869Y-111865452D01*
G36*
X118048159Y-112347214D02*
G01*
X117821134Y-112456901D01*
X117656892Y-112536393D01*
X117581240Y-112573212D01*
X117550275Y-112539182D01*
X117549490Y-112420307D01*
X117598725Y-112277056D01*
X117729000Y-112204504D01*
X117803709Y-112179150D01*
X117876772Y-112097572D01*
X117907507Y-111931306D01*
X117908046Y-111924695D01*
X118173500Y-111924695D01*
X118176265Y-111958931D01*
X118229251Y-112009854D01*
X118353493Y-111958338D01*
X118358487Y-111955111D01*
X118390947Y-111907634D01*
X118305868Y-111870005D01*
X118220041Y-111862527D01*
X118173500Y-111924695D01*
X117908046Y-111924695D01*
X117908873Y-111914564D01*
X117909357Y-111765008D01*
X117859978Y-111693458D01*
X117732882Y-111656002D01*
X117654050Y-111636367D01*
X117560993Y-111570971D01*
X117538500Y-111438145D01*
X117538500Y-111259165D01*
X118175308Y-111564307D01*
X118396808Y-111671622D01*
X118620860Y-111783022D01*
X118779869Y-111865452D01*
X118848940Y-111906273D01*
X118822563Y-111937958D01*
X118702931Y-112014130D01*
X118508129Y-112120648D01*
X118259758Y-112245091D01*
X118229251Y-112259815D01*
X118048159Y-112347214D01*
G37*
X118048159Y-112347214D02*
X117821134Y-112456901D01*
X117656892Y-112536393D01*
X117581240Y-112573212D01*
X117550275Y-112539182D01*
X117549490Y-112420307D01*
X117598725Y-112277056D01*
X117729000Y-112204504D01*
X117803709Y-112179150D01*
X117876772Y-112097572D01*
X117907507Y-111931306D01*
X117908046Y-111924695D01*
X118173500Y-111924695D01*
X118176265Y-111958931D01*
X118229251Y-112009854D01*
X118353493Y-111958338D01*
X118358487Y-111955111D01*
X118390947Y-111907634D01*
X118305868Y-111870005D01*
X118220041Y-111862527D01*
X118173500Y-111924695D01*
X117908046Y-111924695D01*
X117908873Y-111914564D01*
X117909357Y-111765008D01*
X117859978Y-111693458D01*
X117732882Y-111656002D01*
X117654050Y-111636367D01*
X117560993Y-111570971D01*
X117538500Y-111438145D01*
X117538500Y-111259165D01*
X118175308Y-111564307D01*
X118396808Y-111671622D01*
X118620860Y-111783022D01*
X118779869Y-111865452D01*
X118848940Y-111906273D01*
X118822563Y-111937958D01*
X118702931Y-112014130D01*
X118508129Y-112120648D01*
X118259758Y-112245091D01*
X118229251Y-112259815D01*
X118048159Y-112347214D01*
X118427500Y-109541929D02*
X118228165Y-109389785D01*
X118228165Y-109389785D02*
X118075079Y-109265482D01*
X118075079Y-109265482D02*
X117991644Y-109188356D01*
X117991644Y-109188356D02*
X117983000Y-109174738D01*
X117983000Y-109174738D02*
X118040858Y-109161560D01*
X118040858Y-109161560D02*
X118193174Y-109161246D01*
X118193174Y-109161246D02*
X118408067Y-109173752D01*
X118408067Y-109173752D02*
X118427500Y-109175346D01*
X118427500Y-109175346D02*
X118659438Y-109192485D01*
X118659438Y-109192485D02*
X118792416Y-109190989D01*
X118792416Y-109190989D02*
X118853872Y-109164567D01*
X118853872Y-109164567D02*
X118871247Y-109106926D01*
X118871247Y-109106926D02*
X118872000Y-109073431D01*
X118872000Y-109073431D02*
X118865897Y-109011459D01*
X118865897Y-109011459D02*
X118832531Y-108971283D01*
X118832531Y-108971283D02*
X118749322Y-108948189D01*
X118749322Y-108948189D02*
X118593686Y-108937464D01*
X118593686Y-108937464D02*
X118343043Y-108934392D01*
X118343043Y-108934392D02*
X118205250Y-108934250D01*
X118205250Y-108934250D02*
X117908092Y-108935709D01*
X117908092Y-108935709D02*
X117715406Y-108943053D01*
X117715406Y-108943053D02*
X117604672Y-108960738D01*
X117604672Y-108960738D02*
X117553372Y-108993216D01*
X117553372Y-108993216D02*
X117538986Y-109044942D01*
X117538986Y-109044942D02*
X117538500Y-109066118D01*
X117538500Y-109066118D02*
X117595505Y-109189545D01*
X117595505Y-109189545D02*
X117767703Y-109356807D01*
X117767703Y-109356807D02*
X117926885Y-109478868D01*
X117926885Y-109478868D02*
X118315269Y-109759750D01*
X118315269Y-109759750D02*
X117926885Y-109778656D01*
X117926885Y-109778656D02*
X117710361Y-109794403D01*
X117710361Y-109794403D02*
X117592517Y-109821787D01*
X117592517Y-109821787D02*
X117545041Y-109871224D01*
X117545041Y-109871224D02*
X117538500Y-109921531D01*
X117538500Y-109921531D02*
X117548821Y-109980643D01*
X117548821Y-109980643D02*
X117595898Y-110017310D01*
X117595898Y-110017310D02*
X117703906Y-110036810D01*
X117703906Y-110036810D02*
X117897017Y-110044420D01*
X117897017Y-110044420D02*
X118106253Y-110045500D01*
X118106253Y-110045500D02*
X118425507Y-110056417D01*
X118425507Y-110056417D02*
X118638794Y-110087849D01*
X118638794Y-110087849D02*
X118740180Y-110137822D01*
X118740180Y-110137822D02*
X118723728Y-110204361D01*
X118723728Y-110204361D02*
X118680530Y-110236600D01*
X118680530Y-110236600D02*
X118629409Y-110331412D01*
X118629409Y-110331412D02*
X118634700Y-110420001D01*
X118634700Y-110420001D02*
X118644542Y-110483453D01*
X118644542Y-110483453D02*
X118618301Y-110522767D01*
X118618301Y-110522767D02*
X118533074Y-110543706D01*
X118533074Y-110543706D02*
X118365961Y-110552029D01*
X118365961Y-110552029D02*
X118104056Y-110553500D01*
X118104056Y-110553500D02*
X117835146Y-110554986D01*
X117835146Y-110554986D02*
X117668685Y-110563806D01*
X117668685Y-110563806D02*
X117580123Y-110586506D01*
X117580123Y-110586506D02*
X117544913Y-110629629D01*
X117544913Y-110629629D02*
X117538505Y-110699721D01*
X117538505Y-110699721D02*
X117538500Y-110704278D01*
X117538500Y-110704278D02*
X117542862Y-110775129D01*
X117542862Y-110775129D02*
X117572133Y-110817732D01*
X117572133Y-110817732D02*
X117650594Y-110837056D01*
X117650594Y-110837056D02*
X117802528Y-110838074D01*
X117802528Y-110838074D02*
X118052214Y-110825754D01*
X118052214Y-110825754D02*
X118114579Y-110822209D01*
X118114579Y-110822209D02*
X118690658Y-110789363D01*
X118690658Y-110789363D02*
X118648070Y-111016373D01*
X118648070Y-111016373D02*
X118627076Y-111164014D01*
X118627076Y-111164014D02*
X118650286Y-111218543D01*
X118650286Y-111218543D02*
X118732006Y-111210278D01*
X118732006Y-111210278D02*
X118738742Y-111208536D01*
X118738742Y-111208536D02*
X118798899Y-111184113D01*
X118798899Y-111184113D02*
X118837621Y-111132676D01*
X118837621Y-111132676D02*
X118859587Y-111030151D01*
X118859587Y-111030151D02*
X118869478Y-110852462D01*
X118869478Y-110852462D02*
X118871974Y-110575535D01*
X118871974Y-110575535D02*
X118872000Y-110523075D01*
X118872000Y-110523075D02*
X118872000Y-109872463D01*
X118872000Y-109872463D02*
X118427500Y-109541929D01*
X118427500Y-109541929D02*
X118427500Y-109541929D01*
G36*
X118343043Y-108934392D02*
G01*
X118593686Y-108937464D01*
X118749322Y-108948189D01*
X118832531Y-108971283D01*
X118865897Y-109011459D01*
X118872000Y-109073431D01*
X118871247Y-109106926D01*
X118853872Y-109164567D01*
X118792416Y-109190989D01*
X118659438Y-109192485D01*
X118427500Y-109175346D01*
X118408067Y-109173752D01*
X118193174Y-109161246D01*
X118040858Y-109161560D01*
X117983000Y-109174738D01*
X117991644Y-109188356D01*
X118075079Y-109265482D01*
X118228165Y-109389785D01*
X118427500Y-109541929D01*
X118872000Y-109872463D01*
X118872000Y-110523075D01*
X118871974Y-110575535D01*
X118869478Y-110852462D01*
X118859587Y-111030151D01*
X118837621Y-111132676D01*
X118798899Y-111184113D01*
X118738742Y-111208536D01*
X118732006Y-111210278D01*
X118650286Y-111218543D01*
X118627076Y-111164014D01*
X118648070Y-111016373D01*
X118690658Y-110789363D01*
X118114579Y-110822209D01*
X118052214Y-110825754D01*
X117802528Y-110838074D01*
X117650594Y-110837056D01*
X117572133Y-110817732D01*
X117542862Y-110775129D01*
X117538500Y-110704278D01*
X117538505Y-110699721D01*
X117544913Y-110629629D01*
X117580123Y-110586506D01*
X117668685Y-110563806D01*
X117835146Y-110554986D01*
X118104056Y-110553500D01*
X118365961Y-110552029D01*
X118533074Y-110543706D01*
X118618301Y-110522767D01*
X118644542Y-110483453D01*
X118634700Y-110420001D01*
X118629409Y-110331412D01*
X118680530Y-110236600D01*
X118723728Y-110204361D01*
X118740180Y-110137822D01*
X118638794Y-110087849D01*
X118425507Y-110056417D01*
X118106253Y-110045500D01*
X117897017Y-110044420D01*
X117703906Y-110036810D01*
X117595898Y-110017310D01*
X117548821Y-109980643D01*
X117538500Y-109921531D01*
X117545041Y-109871224D01*
X117592517Y-109821787D01*
X117710361Y-109794403D01*
X117926885Y-109778656D01*
X118315269Y-109759750D01*
X117926885Y-109478868D01*
X117767703Y-109356807D01*
X117595505Y-109189545D01*
X117538500Y-109066118D01*
X117538986Y-109044942D01*
X117553372Y-108993216D01*
X117604672Y-108960738D01*
X117715406Y-108943053D01*
X117908092Y-108935709D01*
X118205250Y-108934250D01*
X118343043Y-108934392D01*
G37*
X118343043Y-108934392D02*
X118593686Y-108937464D01*
X118749322Y-108948189D01*
X118832531Y-108971283D01*
X118865897Y-109011459D01*
X118872000Y-109073431D01*
X118871247Y-109106926D01*
X118853872Y-109164567D01*
X118792416Y-109190989D01*
X118659438Y-109192485D01*
X118427500Y-109175346D01*
X118408067Y-109173752D01*
X118193174Y-109161246D01*
X118040858Y-109161560D01*
X117983000Y-109174738D01*
X117991644Y-109188356D01*
X118075079Y-109265482D01*
X118228165Y-109389785D01*
X118427500Y-109541929D01*
X118872000Y-109872463D01*
X118872000Y-110523075D01*
X118871974Y-110575535D01*
X118869478Y-110852462D01*
X118859587Y-111030151D01*
X118837621Y-111132676D01*
X118798899Y-111184113D01*
X118738742Y-111208536D01*
X118732006Y-111210278D01*
X118650286Y-111218543D01*
X118627076Y-111164014D01*
X118648070Y-111016373D01*
X118690658Y-110789363D01*
X118114579Y-110822209D01*
X118052214Y-110825754D01*
X117802528Y-110838074D01*
X117650594Y-110837056D01*
X117572133Y-110817732D01*
X117542862Y-110775129D01*
X117538500Y-110704278D01*
X117538505Y-110699721D01*
X117544913Y-110629629D01*
X117580123Y-110586506D01*
X117668685Y-110563806D01*
X117835146Y-110554986D01*
X118104056Y-110553500D01*
X118365961Y-110552029D01*
X118533074Y-110543706D01*
X118618301Y-110522767D01*
X118644542Y-110483453D01*
X118634700Y-110420001D01*
X118629409Y-110331412D01*
X118680530Y-110236600D01*
X118723728Y-110204361D01*
X118740180Y-110137822D01*
X118638794Y-110087849D01*
X118425507Y-110056417D01*
X118106253Y-110045500D01*
X117897017Y-110044420D01*
X117703906Y-110036810D01*
X117595898Y-110017310D01*
X117548821Y-109980643D01*
X117538500Y-109921531D01*
X117545041Y-109871224D01*
X117592517Y-109821787D01*
X117710361Y-109794403D01*
X117926885Y-109778656D01*
X118315269Y-109759750D01*
X117926885Y-109478868D01*
X117767703Y-109356807D01*
X117595505Y-109189545D01*
X117538500Y-109066118D01*
X117538986Y-109044942D01*
X117553372Y-108993216D01*
X117604672Y-108960738D01*
X117715406Y-108943053D01*
X117908092Y-108935709D01*
X118205250Y-108934250D01*
X118343043Y-108934392D01*
X118866460Y-108505528D02*
X118834770Y-108464301D01*
X118834770Y-108464301D02*
X118754330Y-108440601D01*
X118754330Y-108440601D02*
X118602538Y-108429586D01*
X118602538Y-108429586D02*
X118356793Y-108426411D01*
X118356793Y-108426411D02*
X118205250Y-108426250D01*
X118205250Y-108426250D02*
X117908461Y-108427438D01*
X117908461Y-108427438D02*
X117716068Y-108434228D01*
X117716068Y-108434228D02*
X117605469Y-108451466D01*
X117605469Y-108451466D02*
X117554064Y-108483992D01*
X117554064Y-108483992D02*
X117539251Y-108536652D01*
X117539251Y-108536652D02*
X117538500Y-108569125D01*
X117538500Y-108569125D02*
X117544041Y-108632723D01*
X117544041Y-108632723D02*
X117575731Y-108673950D01*
X117575731Y-108673950D02*
X117656171Y-108697650D01*
X117656171Y-108697650D02*
X117807963Y-108708665D01*
X117807963Y-108708665D02*
X118053708Y-108711840D01*
X118053708Y-108711840D02*
X118205250Y-108712000D01*
X118205250Y-108712000D02*
X118502040Y-108710813D01*
X118502040Y-108710813D02*
X118694433Y-108704023D01*
X118694433Y-108704023D02*
X118805032Y-108686785D01*
X118805032Y-108686785D02*
X118856437Y-108654259D01*
X118856437Y-108654259D02*
X118871250Y-108601599D01*
X118871250Y-108601599D02*
X118872000Y-108569125D01*
X118872000Y-108569125D02*
X118866460Y-108505528D01*
X118866460Y-108505528D02*
X118866460Y-108505528D01*
G36*
X118356793Y-108426411D02*
G01*
X118602538Y-108429586D01*
X118754330Y-108440601D01*
X118834770Y-108464301D01*
X118866460Y-108505528D01*
X118872000Y-108569125D01*
X118871250Y-108601599D01*
X118856437Y-108654259D01*
X118805032Y-108686785D01*
X118694433Y-108704023D01*
X118502040Y-108710813D01*
X118205250Y-108712000D01*
X118053708Y-108711840D01*
X117807963Y-108708665D01*
X117656171Y-108697650D01*
X117575731Y-108673950D01*
X117544041Y-108632723D01*
X117538500Y-108569125D01*
X117539251Y-108536652D01*
X117554064Y-108483992D01*
X117605469Y-108451466D01*
X117716068Y-108434228D01*
X117908461Y-108427438D01*
X118205250Y-108426250D01*
X118356793Y-108426411D01*
G37*
X118356793Y-108426411D02*
X118602538Y-108429586D01*
X118754330Y-108440601D01*
X118834770Y-108464301D01*
X118866460Y-108505528D01*
X118872000Y-108569125D01*
X118871250Y-108601599D01*
X118856437Y-108654259D01*
X118805032Y-108686785D01*
X118694433Y-108704023D01*
X118502040Y-108710813D01*
X118205250Y-108712000D01*
X118053708Y-108711840D01*
X117807963Y-108708665D01*
X117656171Y-108697650D01*
X117575731Y-108673950D01*
X117544041Y-108632723D01*
X117538500Y-108569125D01*
X117539251Y-108536652D01*
X117554064Y-108483992D01*
X117605469Y-108451466D01*
X117716068Y-108434228D01*
X117908461Y-108427438D01*
X118205250Y-108426250D01*
X118356793Y-108426411D01*
X124105998Y-111641461D02*
X123993516Y-111454143D01*
X123993516Y-111454143D02*
X123888222Y-111316906D01*
X123888222Y-111316906D02*
X123826748Y-111267028D01*
X123826748Y-111267028D02*
X123717043Y-111203054D01*
X123717043Y-111203054D02*
X123575319Y-111090364D01*
X123575319Y-111090364D02*
X123555125Y-111072062D01*
X123555125Y-111072062D02*
X123436784Y-110975627D01*
X123436784Y-110975627D02*
X123390885Y-110973645D01*
X123390885Y-110973645D02*
X123417607Y-111068906D01*
X123417607Y-111068906D02*
X123517133Y-111264202D01*
X123517133Y-111264202D02*
X123574128Y-111365309D01*
X123574128Y-111365309D02*
X123685466Y-111536145D01*
X123685466Y-111536145D02*
X123780747Y-111641398D01*
X123780747Y-111641398D02*
X123832692Y-111659997D01*
X123832692Y-111659997D02*
X123915566Y-111673863D01*
X123915566Y-111673863D02*
X124044013Y-111757620D01*
X124044013Y-111757620D02*
X124093535Y-111800689D01*
X124093535Y-111800689D02*
X124288248Y-111982250D01*
X124288248Y-111982250D02*
X124105998Y-111641461D01*
X124105998Y-111641461D02*
X124105998Y-111641461D01*
G36*
X123436784Y-110975627D02*
G01*
X123555125Y-111072062D01*
X123575319Y-111090364D01*
X123717043Y-111203054D01*
X123826748Y-111267028D01*
X123888222Y-111316906D01*
X123993516Y-111454143D01*
X124105998Y-111641461D01*
X124288248Y-111982250D01*
X124093535Y-111800689D01*
X124044013Y-111757620D01*
X123915566Y-111673863D01*
X123832692Y-111659997D01*
X123780747Y-111641398D01*
X123685466Y-111536145D01*
X123574128Y-111365309D01*
X123517133Y-111264202D01*
X123417607Y-111068906D01*
X123390885Y-110973645D01*
X123436784Y-110975627D01*
G37*
X123436784Y-110975627D02*
X123555125Y-111072062D01*
X123575319Y-111090364D01*
X123717043Y-111203054D01*
X123826748Y-111267028D01*
X123888222Y-111316906D01*
X123993516Y-111454143D01*
X124105998Y-111641461D01*
X124288248Y-111982250D01*
X124093535Y-111800689D01*
X124044013Y-111757620D01*
X123915566Y-111673863D01*
X123832692Y-111659997D01*
X123780747Y-111641398D01*
X123685466Y-111536145D01*
X123574128Y-111365309D01*
X123517133Y-111264202D01*
X123417607Y-111068906D01*
X123390885Y-110973645D01*
X123436784Y-110975627D01*
X118848344Y-107353311D02*
X118777215Y-107227655D01*
X118777215Y-107227655D02*
X118673497Y-107188000D01*
X118673497Y-107188000D02*
X118579222Y-107211267D01*
X118579222Y-107211267D02*
X118586954Y-107297526D01*
X118586954Y-107297526D02*
X118587623Y-107299125D01*
X118587623Y-107299125D02*
X118651794Y-107561580D01*
X118651794Y-107561580D02*
X118611701Y-107771894D01*
X118611701Y-107771894D02*
X118475789Y-107914671D01*
X118475789Y-107914671D02*
X118252505Y-107974514D01*
X118252505Y-107974514D02*
X118216590Y-107975400D01*
X118216590Y-107975400D02*
X117972356Y-107925820D01*
X117972356Y-107925820D02*
X117805893Y-107793018D01*
X117805893Y-107793018D02*
X117732167Y-107600906D01*
X117732167Y-107600906D02*
X117766143Y-107373394D01*
X117766143Y-107373394D02*
X117797445Y-107305761D01*
X117797445Y-107305761D02*
X117832959Y-107212578D01*
X117832959Y-107212578D02*
X117776127Y-107192316D01*
X117776127Y-107192316D02*
X117718070Y-107198811D01*
X117718070Y-107198811D02*
X117629954Y-107226353D01*
X117629954Y-107226353D02*
X117581866Y-107299121D01*
X117581866Y-107299121D02*
X117558045Y-107450516D01*
X117558045Y-107450516D02*
X117551072Y-107552708D01*
X117551072Y-107552708D02*
X117548902Y-107765998D01*
X117548902Y-107765998D02*
X117582681Y-107904824D01*
X117582681Y-107904824D02*
X117666628Y-108019850D01*
X117666628Y-108019850D02*
X117688478Y-108042250D01*
X117688478Y-108042250D02*
X117933757Y-108212088D01*
X117933757Y-108212088D02*
X118199235Y-108258489D01*
X118199235Y-108258489D02*
X118473639Y-108181058D01*
X118473639Y-108181058D02*
X118637072Y-108075629D01*
X118637072Y-108075629D02*
X118761587Y-107927180D01*
X118761587Y-107927180D02*
X118839195Y-107735616D01*
X118839195Y-107735616D02*
X118868559Y-107533479D01*
X118868559Y-107533479D02*
X118848344Y-107353311D01*
X118848344Y-107353311D02*
X118848344Y-107353311D01*
G36*
X118777215Y-107227655D02*
G01*
X118848344Y-107353311D01*
X118868559Y-107533479D01*
X118839195Y-107735616D01*
X118761587Y-107927180D01*
X118637072Y-108075629D01*
X118473639Y-108181058D01*
X118199235Y-108258489D01*
X117933757Y-108212088D01*
X117688478Y-108042250D01*
X117666628Y-108019850D01*
X117582681Y-107904824D01*
X117548902Y-107765998D01*
X117551072Y-107552708D01*
X117558045Y-107450516D01*
X117581866Y-107299121D01*
X117629954Y-107226353D01*
X117718070Y-107198811D01*
X117776127Y-107192316D01*
X117832959Y-107212578D01*
X117797445Y-107305761D01*
X117766143Y-107373394D01*
X117732167Y-107600906D01*
X117805893Y-107793018D01*
X117972356Y-107925820D01*
X118216590Y-107975400D01*
X118252505Y-107974514D01*
X118475789Y-107914671D01*
X118611701Y-107771894D01*
X118651794Y-107561580D01*
X118587623Y-107299125D01*
X118586954Y-107297526D01*
X118579222Y-107211267D01*
X118673497Y-107188000D01*
X118777215Y-107227655D01*
G37*
X118777215Y-107227655D02*
X118848344Y-107353311D01*
X118868559Y-107533479D01*
X118839195Y-107735616D01*
X118761587Y-107927180D01*
X118637072Y-108075629D01*
X118473639Y-108181058D01*
X118199235Y-108258489D01*
X117933757Y-108212088D01*
X117688478Y-108042250D01*
X117666628Y-108019850D01*
X117582681Y-107904824D01*
X117548902Y-107765998D01*
X117551072Y-107552708D01*
X117558045Y-107450516D01*
X117581866Y-107299121D01*
X117629954Y-107226353D01*
X117718070Y-107198811D01*
X117776127Y-107192316D01*
X117832959Y-107212578D01*
X117797445Y-107305761D01*
X117766143Y-107373394D01*
X117732167Y-107600906D01*
X117805893Y-107793018D01*
X117972356Y-107925820D01*
X118216590Y-107975400D01*
X118252505Y-107974514D01*
X118475789Y-107914671D01*
X118611701Y-107771894D01*
X118651794Y-107561580D01*
X118587623Y-107299125D01*
X118586954Y-107297526D01*
X118579222Y-107211267D01*
X118673497Y-107188000D01*
X118777215Y-107227655D01*
X124229188Y-109639979D02*
X124128454Y-109716410D01*
X124128454Y-109716410D02*
X124054388Y-109784582D01*
X124054388Y-109784582D02*
X123905895Y-109908692D01*
X123905895Y-109908692D02*
X123824324Y-109929109D01*
X123824324Y-109929109D02*
X123812135Y-109911653D01*
X123812135Y-109911653D02*
X123773316Y-109925757D01*
X123773316Y-109925757D02*
X123694641Y-110020472D01*
X123694641Y-110020472D02*
X123596118Y-110164400D01*
X123596118Y-110164400D02*
X123497755Y-110326147D01*
X123497755Y-110326147D02*
X123419558Y-110474317D01*
X123419558Y-110474317D02*
X123381534Y-110577512D01*
X123381534Y-110577512D02*
X123380500Y-110588985D01*
X123380500Y-110588985D02*
X123420180Y-110582556D01*
X123420180Y-110582556D02*
X123519998Y-110505255D01*
X123519998Y-110505255D02*
X123570338Y-110458885D01*
X123570338Y-110458885D02*
X123697191Y-110356135D01*
X123697191Y-110356135D02*
X123787974Y-110316255D01*
X123787974Y-110316255D02*
X123804794Y-110321627D01*
X123804794Y-110321627D02*
X123854573Y-110294012D01*
X123854573Y-110294012D02*
X123944658Y-110188280D01*
X123944658Y-110188280D02*
X124053050Y-110036980D01*
X124053050Y-110036980D02*
X124157750Y-109872662D01*
X124157750Y-109872662D02*
X124236760Y-109727876D01*
X124236760Y-109727876D02*
X124268066Y-109636169D01*
X124268066Y-109636169D02*
X124229188Y-109639979D01*
X124229188Y-109639979D02*
X124229188Y-109639979D01*
G36*
X124236760Y-109727876D02*
G01*
X124157750Y-109872662D01*
X124053050Y-110036980D01*
X123944658Y-110188280D01*
X123854573Y-110294012D01*
X123804794Y-110321627D01*
X123787974Y-110316255D01*
X123697191Y-110356135D01*
X123570338Y-110458885D01*
X123519998Y-110505255D01*
X123420180Y-110582556D01*
X123380500Y-110588985D01*
X123381534Y-110577512D01*
X123419558Y-110474317D01*
X123497755Y-110326147D01*
X123596118Y-110164400D01*
X123694641Y-110020472D01*
X123773316Y-109925757D01*
X123812135Y-109911653D01*
X123824324Y-109929109D01*
X123905895Y-109908692D01*
X124054388Y-109784582D01*
X124128454Y-109716410D01*
X124229188Y-109639979D01*
X124268066Y-109636169D01*
X124236760Y-109727876D01*
G37*
X124236760Y-109727876D02*
X124157750Y-109872662D01*
X124053050Y-110036980D01*
X123944658Y-110188280D01*
X123854573Y-110294012D01*
X123804794Y-110321627D01*
X123787974Y-110316255D01*
X123697191Y-110356135D01*
X123570338Y-110458885D01*
X123519998Y-110505255D01*
X123420180Y-110582556D01*
X123380500Y-110588985D01*
X123381534Y-110577512D01*
X123419558Y-110474317D01*
X123497755Y-110326147D01*
X123596118Y-110164400D01*
X123694641Y-110020472D01*
X123773316Y-109925757D01*
X123812135Y-109911653D01*
X123824324Y-109929109D01*
X123905895Y-109908692D01*
X124054388Y-109784582D01*
X124128454Y-109716410D01*
X124229188Y-109639979D01*
X124268066Y-109636169D01*
X124236760Y-109727876D01*
X118863342Y-106795406D02*
X118814280Y-106755274D01*
X118814280Y-106755274D02*
X118690187Y-106760411D01*
X118690187Y-106760411D02*
X118602125Y-106773040D01*
X118602125Y-106773040D02*
X118332250Y-106813743D01*
X118332250Y-106813743D02*
X118554500Y-106621580D01*
X118554500Y-106621580D02*
X118696610Y-106506560D01*
X118696610Y-106506560D02*
X118800062Y-106436974D01*
X118800062Y-106436974D02*
X118824375Y-106427709D01*
X118824375Y-106427709D02*
X118857496Y-106371063D01*
X118857496Y-106371063D02*
X118871976Y-106236463D01*
X118871976Y-106236463D02*
X118872000Y-106230104D01*
X118872000Y-106230104D02*
X118872000Y-106034207D01*
X118872000Y-106034207D02*
X118577102Y-106293787D01*
X118577102Y-106293787D02*
X118392629Y-106438342D01*
X118392629Y-106438342D02*
X118260769Y-106504837D01*
X118260769Y-106504837D02*
X118211977Y-106501044D01*
X118211977Y-106501044D02*
X118126943Y-106435092D01*
X118126943Y-106435092D02*
X117978737Y-106317944D01*
X117978737Y-106317944D02*
X117840125Y-106207461D01*
X117840125Y-106207461D02*
X117538500Y-105966202D01*
X117538500Y-105966202D02*
X117538500Y-106159172D01*
X117538500Y-106159172D02*
X117567415Y-106312489D01*
X117567415Y-106312489D02*
X117674709Y-106431912D01*
X117674709Y-106431912D02*
X117753612Y-106485089D01*
X117753612Y-106485089D02*
X117916912Y-106598857D01*
X117916912Y-106598857D02*
X118041355Y-106707378D01*
X118041355Y-106707378D02*
X118055237Y-106723017D01*
X118055237Y-106723017D02*
X118095302Y-106784091D01*
X118095302Y-106784091D02*
X118065585Y-106807684D01*
X118065585Y-106807684D02*
X117943961Y-106800375D01*
X117943961Y-106800375D02*
X117840125Y-106786965D01*
X117840125Y-106786965D02*
X117658928Y-106766573D01*
X117658928Y-106766573D02*
X117570231Y-106778755D01*
X117570231Y-106778755D02*
X117541098Y-106836230D01*
X117541098Y-106836230D02*
X117538500Y-106903465D01*
X117538500Y-106903465D02*
X117538500Y-107061000D01*
X117538500Y-107061000D02*
X118872000Y-107061000D01*
X118872000Y-107061000D02*
X118872000Y-106896669D01*
X118872000Y-106896669D02*
X118863342Y-106795406D01*
X118863342Y-106795406D02*
X118863342Y-106795406D01*
G36*
X117840125Y-106207461D02*
G01*
X117978737Y-106317944D01*
X118126943Y-106435092D01*
X118211977Y-106501044D01*
X118260769Y-106504837D01*
X118392629Y-106438342D01*
X118577102Y-106293787D01*
X118872000Y-106034207D01*
X118872000Y-106230104D01*
X118871976Y-106236463D01*
X118857496Y-106371063D01*
X118824375Y-106427709D01*
X118800062Y-106436974D01*
X118696610Y-106506560D01*
X118554500Y-106621580D01*
X118332250Y-106813743D01*
X118602125Y-106773040D01*
X118690187Y-106760411D01*
X118814280Y-106755274D01*
X118863342Y-106795406D01*
X118872000Y-106896669D01*
X118872000Y-107061000D01*
X117538500Y-107061000D01*
X117538500Y-106903465D01*
X117541098Y-106836230D01*
X117570231Y-106778755D01*
X117658928Y-106766573D01*
X117840125Y-106786965D01*
X117943961Y-106800375D01*
X118065585Y-106807684D01*
X118095302Y-106784091D01*
X118055237Y-106723017D01*
X118041355Y-106707378D01*
X117916912Y-106598857D01*
X117753612Y-106485089D01*
X117674709Y-106431912D01*
X117567415Y-106312489D01*
X117538500Y-106159172D01*
X117538500Y-105966202D01*
X117840125Y-106207461D01*
G37*
X117840125Y-106207461D02*
X117978737Y-106317944D01*
X118126943Y-106435092D01*
X118211977Y-106501044D01*
X118260769Y-106504837D01*
X118392629Y-106438342D01*
X118577102Y-106293787D01*
X118872000Y-106034207D01*
X118872000Y-106230104D01*
X118871976Y-106236463D01*
X118857496Y-106371063D01*
X118824375Y-106427709D01*
X118800062Y-106436974D01*
X118696610Y-106506560D01*
X118554500Y-106621580D01*
X118332250Y-106813743D01*
X118602125Y-106773040D01*
X118690187Y-106760411D01*
X118814280Y-106755274D01*
X118863342Y-106795406D01*
X118872000Y-106896669D01*
X118872000Y-107061000D01*
X117538500Y-107061000D01*
X117538500Y-106903465D01*
X117541098Y-106836230D01*
X117570231Y-106778755D01*
X117658928Y-106766573D01*
X117840125Y-106786965D01*
X117943961Y-106800375D01*
X118065585Y-106807684D01*
X118095302Y-106784091D01*
X118055237Y-106723017D01*
X118041355Y-106707378D01*
X117916912Y-106598857D01*
X117753612Y-106485089D01*
X117674709Y-106431912D01*
X117567415Y-106312489D01*
X117538500Y-106159172D01*
X117538500Y-105966202D01*
X117840125Y-106207461D01*
D13*
%TO.C,J2*%
X147762000Y-108270000D02*
X145862000Y-108270000D01*
X147762000Y-110170000D02*
X147762000Y-108270000D01*
X145862000Y-108270000D02*
X145862000Y-110170000D01*
X145862000Y-110170000D02*
X147762000Y-110170000D01*
%TO.C,A0*%
X133955000Y-98495000D02*
X133655000Y-98195000D01*
X133205000Y-100695000D02*
X137305000Y-100695000D01*
X133955000Y-98495000D02*
X134255000Y-98195000D01*
X137305000Y-100695000D02*
X137305000Y-98695000D01*
X133205000Y-98695000D02*
X133205000Y-100695000D01*
X137305000Y-98695000D02*
X133205000Y-98695000D01*
X133655000Y-98195000D02*
X134255000Y-98195000D01*
%TO.C,J4*%
X147762000Y-112080000D02*
X145862000Y-112080000D01*
X145862000Y-113980000D02*
X147762000Y-113980000D01*
X147762000Y-113980000D02*
X147762000Y-112080000D01*
X145862000Y-112080000D02*
X145862000Y-113980000D01*
%TD*%
M02*
