%TF.GenerationSoftware,KiCad,Pcbnew,(5.99.0-7696-gc8be87a654)*%
%TF.CreationDate,2020-12-26T21:21:26+10:30*%
%TF.ProjectId,MCP39F521_Breakout,4d435033-3946-4353-9231-5f427265616b,rev?*%
%TF.SameCoordinates,Original*%
%TF.FileFunction,Legend,Top*%
%TF.FilePolarity,Positive*%
%FSLAX46Y46*%
G04 Gerber Fmt 4.6, Leading zero omitted, Abs format (unit mm)*
G04 Created by KiCad (PCBNEW (5.99.0-7696-gc8be87a654)) date 2020-12-26 21:21:26*
%MOMM*%
%LPD*%
G01*
G04 APERTURE LIST*
%ADD10C,0.250000*%
%ADD11C,0.200000*%
%ADD12C,0.120000*%
G04 APERTURE END LIST*
D10*
X117523142Y-118265380D02*
X117523142Y-117265380D01*
X117856476Y-117979666D01*
X118189809Y-117265380D01*
X118189809Y-118265380D01*
X119237428Y-118170142D02*
X119189809Y-118217761D01*
X119046952Y-118265380D01*
X118951714Y-118265380D01*
X118808857Y-118217761D01*
X118713619Y-118122523D01*
X118666000Y-118027285D01*
X118618380Y-117836809D01*
X118618380Y-117693952D01*
X118666000Y-117503476D01*
X118713619Y-117408238D01*
X118808857Y-117313000D01*
X118951714Y-117265380D01*
X119046952Y-117265380D01*
X119189809Y-117313000D01*
X119237428Y-117360619D01*
X119666000Y-118265380D02*
X119666000Y-117265380D01*
X120046952Y-117265380D01*
X120142190Y-117313000D01*
X120189809Y-117360619D01*
X120237428Y-117455857D01*
X120237428Y-117598714D01*
X120189809Y-117693952D01*
X120142190Y-117741571D01*
X120046952Y-117789190D01*
X119666000Y-117789190D01*
X120570761Y-117265380D02*
X121189809Y-117265380D01*
X120856476Y-117646333D01*
X120999333Y-117646333D01*
X121094571Y-117693952D01*
X121142190Y-117741571D01*
X121189809Y-117836809D01*
X121189809Y-118074904D01*
X121142190Y-118170142D01*
X121094571Y-118217761D01*
X120999333Y-118265380D01*
X120713619Y-118265380D01*
X120618380Y-118217761D01*
X120570761Y-118170142D01*
X121666000Y-118265380D02*
X121856476Y-118265380D01*
X121951714Y-118217761D01*
X121999333Y-118170142D01*
X122094571Y-118027285D01*
X122142190Y-117836809D01*
X122142190Y-117455857D01*
X122094571Y-117360619D01*
X122046952Y-117313000D01*
X121951714Y-117265380D01*
X121761238Y-117265380D01*
X121666000Y-117313000D01*
X121618380Y-117360619D01*
X121570761Y-117455857D01*
X121570761Y-117693952D01*
X121618380Y-117789190D01*
X121666000Y-117836809D01*
X121761238Y-117884428D01*
X121951714Y-117884428D01*
X122046952Y-117836809D01*
X122094571Y-117789190D01*
X122142190Y-117693952D01*
X122904095Y-117741571D02*
X122570761Y-117741571D01*
X122570761Y-118265380D02*
X122570761Y-117265380D01*
X123046952Y-117265380D01*
X123904095Y-117265380D02*
X123427904Y-117265380D01*
X123380285Y-117741571D01*
X123427904Y-117693952D01*
X123523142Y-117646333D01*
X123761238Y-117646333D01*
X123856476Y-117693952D01*
X123904095Y-117741571D01*
X123951714Y-117836809D01*
X123951714Y-118074904D01*
X123904095Y-118170142D01*
X123856476Y-118217761D01*
X123761238Y-118265380D01*
X123523142Y-118265380D01*
X123427904Y-118217761D01*
X123380285Y-118170142D01*
X124332666Y-117360619D02*
X124380285Y-117313000D01*
X124475523Y-117265380D01*
X124713619Y-117265380D01*
X124808857Y-117313000D01*
X124856476Y-117360619D01*
X124904095Y-117455857D01*
X124904095Y-117551095D01*
X124856476Y-117693952D01*
X124285047Y-118265380D01*
X124904095Y-118265380D01*
X125856476Y-118265380D02*
X125285047Y-118265380D01*
X125570761Y-118265380D02*
X125570761Y-117265380D01*
X125475523Y-117408238D01*
X125380285Y-117503476D01*
X125285047Y-117551095D01*
X118951714Y-119351571D02*
X119094571Y-119399190D01*
X119142190Y-119446809D01*
X119189809Y-119542047D01*
X119189809Y-119684904D01*
X119142190Y-119780142D01*
X119094571Y-119827761D01*
X118999333Y-119875380D01*
X118618380Y-119875380D01*
X118618380Y-118875380D01*
X118951714Y-118875380D01*
X119046952Y-118923000D01*
X119094571Y-118970619D01*
X119142190Y-119065857D01*
X119142190Y-119161095D01*
X119094571Y-119256333D01*
X119046952Y-119303952D01*
X118951714Y-119351571D01*
X118618380Y-119351571D01*
X119618380Y-119875380D02*
X119618380Y-119208714D01*
X119618380Y-119399190D02*
X119666000Y-119303952D01*
X119713619Y-119256333D01*
X119808857Y-119208714D01*
X119904095Y-119208714D01*
X120618380Y-119827761D02*
X120523142Y-119875380D01*
X120332666Y-119875380D01*
X120237428Y-119827761D01*
X120189809Y-119732523D01*
X120189809Y-119351571D01*
X120237428Y-119256333D01*
X120332666Y-119208714D01*
X120523142Y-119208714D01*
X120618380Y-119256333D01*
X120666000Y-119351571D01*
X120666000Y-119446809D01*
X120189809Y-119542047D01*
X121523142Y-119875380D02*
X121523142Y-119351571D01*
X121475523Y-119256333D01*
X121380285Y-119208714D01*
X121189809Y-119208714D01*
X121094571Y-119256333D01*
X121523142Y-119827761D02*
X121427904Y-119875380D01*
X121189809Y-119875380D01*
X121094571Y-119827761D01*
X121046952Y-119732523D01*
X121046952Y-119637285D01*
X121094571Y-119542047D01*
X121189809Y-119494428D01*
X121427904Y-119494428D01*
X121523142Y-119446809D01*
X121999333Y-119875380D02*
X121999333Y-118875380D01*
X122094571Y-119494428D02*
X122380285Y-119875380D01*
X122380285Y-119208714D02*
X121999333Y-119589666D01*
X122951714Y-119875380D02*
X122856476Y-119827761D01*
X122808857Y-119780142D01*
X122761238Y-119684904D01*
X122761238Y-119399190D01*
X122808857Y-119303952D01*
X122856476Y-119256333D01*
X122951714Y-119208714D01*
X123094571Y-119208714D01*
X123189809Y-119256333D01*
X123237428Y-119303952D01*
X123285047Y-119399190D01*
X123285047Y-119684904D01*
X123237428Y-119780142D01*
X123189809Y-119827761D01*
X123094571Y-119875380D01*
X122951714Y-119875380D01*
X124142190Y-119208714D02*
X124142190Y-119875380D01*
X123713619Y-119208714D02*
X123713619Y-119732523D01*
X123761238Y-119827761D01*
X123856476Y-119875380D01*
X123999333Y-119875380D01*
X124094571Y-119827761D01*
X124142190Y-119780142D01*
X124475523Y-119208714D02*
X124856476Y-119208714D01*
X124618380Y-118875380D02*
X124618380Y-119732523D01*
X124666000Y-119827761D01*
X124761238Y-119875380D01*
X124856476Y-119875380D01*
D11*
%TO.C,U1*%
X127660476Y-103955904D02*
X127660476Y-104603523D01*
X127698571Y-104679714D01*
X127736666Y-104717809D01*
X127812857Y-104755904D01*
X127965238Y-104755904D01*
X128041428Y-104717809D01*
X128079523Y-104679714D01*
X128117619Y-104603523D01*
X128117619Y-103955904D01*
X128917619Y-104755904D02*
X128460476Y-104755904D01*
X128689047Y-104755904D02*
X128689047Y-103955904D01*
X128612857Y-104070190D01*
X128536666Y-104146380D01*
X128460476Y-104184476D01*
%TO.C,R4*%
X142741666Y-115423904D02*
X142475000Y-115042952D01*
X142284523Y-115423904D02*
X142284523Y-114623904D01*
X142589285Y-114623904D01*
X142665476Y-114662000D01*
X142703571Y-114700095D01*
X142741666Y-114776285D01*
X142741666Y-114890571D01*
X142703571Y-114966761D01*
X142665476Y-115004857D01*
X142589285Y-115042952D01*
X142284523Y-115042952D01*
X143427380Y-114890571D02*
X143427380Y-115423904D01*
X143236904Y-114585809D02*
X143046428Y-115157238D01*
X143541666Y-115157238D01*
%TO.C,R7*%
X142614166Y-103993904D02*
X142347500Y-103612952D01*
X142157023Y-103993904D02*
X142157023Y-103193904D01*
X142461785Y-103193904D01*
X142537976Y-103232000D01*
X142576071Y-103270095D01*
X142614166Y-103346285D01*
X142614166Y-103460571D01*
X142576071Y-103536761D01*
X142537976Y-103574857D01*
X142461785Y-103612952D01*
X142157023Y-103612952D01*
X142880833Y-103193904D02*
X143414166Y-103193904D01*
X143071309Y-103993904D01*
%TO.C,R1*%
X146411904Y-106813333D02*
X146030952Y-107080000D01*
X146411904Y-107270476D02*
X145611904Y-107270476D01*
X145611904Y-106965714D01*
X145650000Y-106889523D01*
X145688095Y-106851428D01*
X145764285Y-106813333D01*
X145878571Y-106813333D01*
X145954761Y-106851428D01*
X145992857Y-106889523D01*
X146030952Y-106965714D01*
X146030952Y-107270476D01*
X146411904Y-106051428D02*
X146411904Y-106508571D01*
X146411904Y-106280000D02*
X145611904Y-106280000D01*
X145726190Y-106356190D01*
X145802380Y-106432380D01*
X145840476Y-106508571D01*
%TO.C,R5*%
X127361904Y-118878333D02*
X126980952Y-119145000D01*
X127361904Y-119335476D02*
X126561904Y-119335476D01*
X126561904Y-119030714D01*
X126600000Y-118954523D01*
X126638095Y-118916428D01*
X126714285Y-118878333D01*
X126828571Y-118878333D01*
X126904761Y-118916428D01*
X126942857Y-118954523D01*
X126980952Y-119030714D01*
X126980952Y-119335476D01*
X126561904Y-118154523D02*
X126561904Y-118535476D01*
X126942857Y-118573571D01*
X126904761Y-118535476D01*
X126866666Y-118459285D01*
X126866666Y-118268809D01*
X126904761Y-118192619D01*
X126942857Y-118154523D01*
X127019047Y-118116428D01*
X127209523Y-118116428D01*
X127285714Y-118154523D01*
X127323809Y-118192619D01*
X127361904Y-118268809D01*
X127361904Y-118459285D01*
X127323809Y-118535476D01*
X127285714Y-118573571D01*
%TO.C,R12*%
X144392714Y-119741904D02*
X144126047Y-119360952D01*
X143935571Y-119741904D02*
X143935571Y-118941904D01*
X144240333Y-118941904D01*
X144316523Y-118980000D01*
X144354619Y-119018095D01*
X144392714Y-119094285D01*
X144392714Y-119208571D01*
X144354619Y-119284761D01*
X144316523Y-119322857D01*
X144240333Y-119360952D01*
X143935571Y-119360952D01*
X145154619Y-119741904D02*
X144697476Y-119741904D01*
X144926047Y-119741904D02*
X144926047Y-118941904D01*
X144849857Y-119056190D01*
X144773666Y-119132380D01*
X144697476Y-119170476D01*
X145459380Y-119018095D02*
X145497476Y-118980000D01*
X145573666Y-118941904D01*
X145764142Y-118941904D01*
X145840333Y-118980000D01*
X145878428Y-119018095D01*
X145916523Y-119094285D01*
X145916523Y-119170476D01*
X145878428Y-119284761D01*
X145421285Y-119741904D01*
X145916523Y-119741904D01*
%TO.C,C5*%
X129914666Y-115855714D02*
X129876571Y-115893809D01*
X129762285Y-115931904D01*
X129686095Y-115931904D01*
X129571809Y-115893809D01*
X129495619Y-115817619D01*
X129457523Y-115741428D01*
X129419428Y-115589047D01*
X129419428Y-115474761D01*
X129457523Y-115322380D01*
X129495619Y-115246190D01*
X129571809Y-115170000D01*
X129686095Y-115131904D01*
X129762285Y-115131904D01*
X129876571Y-115170000D01*
X129914666Y-115208095D01*
X130638476Y-115131904D02*
X130257523Y-115131904D01*
X130219428Y-115512857D01*
X130257523Y-115474761D01*
X130333714Y-115436666D01*
X130524190Y-115436666D01*
X130600380Y-115474761D01*
X130638476Y-115512857D01*
X130676571Y-115589047D01*
X130676571Y-115779523D01*
X130638476Y-115855714D01*
X130600380Y-115893809D01*
X130524190Y-115931904D01*
X130333714Y-115931904D01*
X130257523Y-115893809D01*
X130219428Y-115855714D01*
%TO.C,L2*%
X145916666Y-117963904D02*
X145535714Y-117963904D01*
X145535714Y-117163904D01*
X146145238Y-117240095D02*
X146183333Y-117202000D01*
X146259523Y-117163904D01*
X146450000Y-117163904D01*
X146526190Y-117202000D01*
X146564285Y-117240095D01*
X146602380Y-117316285D01*
X146602380Y-117392476D01*
X146564285Y-117506761D01*
X146107142Y-117963904D01*
X146602380Y-117963904D01*
%TO.C,Y1*%
X118985952Y-109600952D02*
X119366904Y-109600952D01*
X118566904Y-109867619D02*
X118985952Y-109600952D01*
X118566904Y-109334285D01*
X119366904Y-108648571D02*
X119366904Y-109105714D01*
X119366904Y-108877142D02*
X118566904Y-108877142D01*
X118681190Y-108953333D01*
X118757380Y-109029523D01*
X118795476Y-109105714D01*
%TO.C,R6*%
X121786666Y-101453904D02*
X121520000Y-101072952D01*
X121329523Y-101453904D02*
X121329523Y-100653904D01*
X121634285Y-100653904D01*
X121710476Y-100692000D01*
X121748571Y-100730095D01*
X121786666Y-100806285D01*
X121786666Y-100920571D01*
X121748571Y-100996761D01*
X121710476Y-101034857D01*
X121634285Y-101072952D01*
X121329523Y-101072952D01*
X122472380Y-100653904D02*
X122320000Y-100653904D01*
X122243809Y-100692000D01*
X122205714Y-100730095D01*
X122129523Y-100844380D01*
X122091428Y-100996761D01*
X122091428Y-101301523D01*
X122129523Y-101377714D01*
X122167619Y-101415809D01*
X122243809Y-101453904D01*
X122396190Y-101453904D01*
X122472380Y-101415809D01*
X122510476Y-101377714D01*
X122548571Y-101301523D01*
X122548571Y-101111047D01*
X122510476Y-101034857D01*
X122472380Y-100996761D01*
X122396190Y-100958666D01*
X122243809Y-100958666D01*
X122167619Y-100996761D01*
X122129523Y-101034857D01*
X122091428Y-101111047D01*
%TO.C,C8*%
X128136666Y-101123714D02*
X128098571Y-101161809D01*
X127984285Y-101199904D01*
X127908095Y-101199904D01*
X127793809Y-101161809D01*
X127717619Y-101085619D01*
X127679523Y-101009428D01*
X127641428Y-100857047D01*
X127641428Y-100742761D01*
X127679523Y-100590380D01*
X127717619Y-100514190D01*
X127793809Y-100438000D01*
X127908095Y-100399904D01*
X127984285Y-100399904D01*
X128098571Y-100438000D01*
X128136666Y-100476095D01*
X128593809Y-100742761D02*
X128517619Y-100704666D01*
X128479523Y-100666571D01*
X128441428Y-100590380D01*
X128441428Y-100552285D01*
X128479523Y-100476095D01*
X128517619Y-100438000D01*
X128593809Y-100399904D01*
X128746190Y-100399904D01*
X128822380Y-100438000D01*
X128860476Y-100476095D01*
X128898571Y-100552285D01*
X128898571Y-100590380D01*
X128860476Y-100666571D01*
X128822380Y-100704666D01*
X128746190Y-100742761D01*
X128593809Y-100742761D01*
X128517619Y-100780857D01*
X128479523Y-100818952D01*
X128441428Y-100895142D01*
X128441428Y-101047523D01*
X128479523Y-101123714D01*
X128517619Y-101161809D01*
X128593809Y-101199904D01*
X128746190Y-101199904D01*
X128822380Y-101161809D01*
X128860476Y-101123714D01*
X128898571Y-101047523D01*
X128898571Y-100895142D01*
X128860476Y-100818952D01*
X128822380Y-100780857D01*
X128746190Y-100742761D01*
%TO.C,C2*%
X138207714Y-106813333D02*
X138245809Y-106851428D01*
X138283904Y-106965714D01*
X138283904Y-107041904D01*
X138245809Y-107156190D01*
X138169619Y-107232380D01*
X138093428Y-107270476D01*
X137941047Y-107308571D01*
X137826761Y-107308571D01*
X137674380Y-107270476D01*
X137598190Y-107232380D01*
X137522000Y-107156190D01*
X137483904Y-107041904D01*
X137483904Y-106965714D01*
X137522000Y-106851428D01*
X137560095Y-106813333D01*
X137560095Y-106508571D02*
X137522000Y-106470476D01*
X137483904Y-106394285D01*
X137483904Y-106203809D01*
X137522000Y-106127619D01*
X137560095Y-106089523D01*
X137636285Y-106051428D01*
X137712476Y-106051428D01*
X137826761Y-106089523D01*
X138283904Y-106546666D01*
X138283904Y-106051428D01*
%TO.C,C3*%
X138296666Y-114077714D02*
X138258571Y-114115809D01*
X138144285Y-114153904D01*
X138068095Y-114153904D01*
X137953809Y-114115809D01*
X137877619Y-114039619D01*
X137839523Y-113963428D01*
X137801428Y-113811047D01*
X137801428Y-113696761D01*
X137839523Y-113544380D01*
X137877619Y-113468190D01*
X137953809Y-113392000D01*
X138068095Y-113353904D01*
X138144285Y-113353904D01*
X138258571Y-113392000D01*
X138296666Y-113430095D01*
X138563333Y-113353904D02*
X139058571Y-113353904D01*
X138791904Y-113658666D01*
X138906190Y-113658666D01*
X138982380Y-113696761D01*
X139020476Y-113734857D01*
X139058571Y-113811047D01*
X139058571Y-114001523D01*
X139020476Y-114077714D01*
X138982380Y-114115809D01*
X138906190Y-114153904D01*
X138677619Y-114153904D01*
X138601428Y-114115809D01*
X138563333Y-114077714D01*
%TO.C,C7*%
X128136166Y-103155714D02*
X128098071Y-103193809D01*
X127983785Y-103231904D01*
X127907595Y-103231904D01*
X127793309Y-103193809D01*
X127717119Y-103117619D01*
X127679023Y-103041428D01*
X127640928Y-102889047D01*
X127640928Y-102774761D01*
X127679023Y-102622380D01*
X127717119Y-102546190D01*
X127793309Y-102470000D01*
X127907595Y-102431904D01*
X127983785Y-102431904D01*
X128098071Y-102470000D01*
X128136166Y-102508095D01*
X128402833Y-102431904D02*
X128936166Y-102431904D01*
X128593309Y-103231904D01*
%TO.C,R9*%
X132441904Y-118878333D02*
X132060952Y-119145000D01*
X132441904Y-119335476D02*
X131641904Y-119335476D01*
X131641904Y-119030714D01*
X131680000Y-118954523D01*
X131718095Y-118916428D01*
X131794285Y-118878333D01*
X131908571Y-118878333D01*
X131984761Y-118916428D01*
X132022857Y-118954523D01*
X132060952Y-119030714D01*
X132060952Y-119335476D01*
X132441904Y-118497380D02*
X132441904Y-118345000D01*
X132403809Y-118268809D01*
X132365714Y-118230714D01*
X132251428Y-118154523D01*
X132099047Y-118116428D01*
X131794285Y-118116428D01*
X131718095Y-118154523D01*
X131680000Y-118192619D01*
X131641904Y-118268809D01*
X131641904Y-118421190D01*
X131680000Y-118497380D01*
X131718095Y-118535476D01*
X131794285Y-118573571D01*
X131984761Y-118573571D01*
X132060952Y-118535476D01*
X132099047Y-118497380D01*
X132137142Y-118421190D01*
X132137142Y-118268809D01*
X132099047Y-118192619D01*
X132060952Y-118154523D01*
X131984761Y-118116428D01*
%TO.C,J11*%
X129908380Y-119957904D02*
X129908380Y-120529333D01*
X129870285Y-120643619D01*
X129794095Y-120719809D01*
X129679809Y-120757904D01*
X129603619Y-120757904D01*
X130708380Y-120757904D02*
X130251238Y-120757904D01*
X130479809Y-120757904D02*
X130479809Y-119957904D01*
X130403619Y-120072190D01*
X130327428Y-120148380D01*
X130251238Y-120186476D01*
X131470285Y-120757904D02*
X131013142Y-120757904D01*
X131241714Y-120757904D02*
X131241714Y-119957904D01*
X131165523Y-120072190D01*
X131089333Y-120148380D01*
X131013142Y-120186476D01*
%TO.C,R11*%
X146805714Y-119741904D02*
X146539047Y-119360952D01*
X146348571Y-119741904D02*
X146348571Y-118941904D01*
X146653333Y-118941904D01*
X146729523Y-118980000D01*
X146767619Y-119018095D01*
X146805714Y-119094285D01*
X146805714Y-119208571D01*
X146767619Y-119284761D01*
X146729523Y-119322857D01*
X146653333Y-119360952D01*
X146348571Y-119360952D01*
X147567619Y-119741904D02*
X147110476Y-119741904D01*
X147339047Y-119741904D02*
X147339047Y-118941904D01*
X147262857Y-119056190D01*
X147186666Y-119132380D01*
X147110476Y-119170476D01*
X148329523Y-119741904D02*
X147872380Y-119741904D01*
X148100952Y-119741904D02*
X148100952Y-118941904D01*
X148024761Y-119056190D01*
X147948571Y-119132380D01*
X147872380Y-119170476D01*
%TO.C,U2*%
X138455476Y-99296904D02*
X138455476Y-99944523D01*
X138493571Y-100020714D01*
X138531666Y-100058809D01*
X138607857Y-100096904D01*
X138760238Y-100096904D01*
X138836428Y-100058809D01*
X138874523Y-100020714D01*
X138912619Y-99944523D01*
X138912619Y-99296904D01*
X139255476Y-99373095D02*
X139293571Y-99335000D01*
X139369761Y-99296904D01*
X139560238Y-99296904D01*
X139636428Y-99335000D01*
X139674523Y-99373095D01*
X139712619Y-99449285D01*
X139712619Y-99525476D01*
X139674523Y-99639761D01*
X139217380Y-100096904D01*
X139712619Y-100096904D01*
%TO.C,R10*%
X134981904Y-119132285D02*
X134600952Y-119398952D01*
X134981904Y-119589428D02*
X134181904Y-119589428D01*
X134181904Y-119284666D01*
X134220000Y-119208476D01*
X134258095Y-119170380D01*
X134334285Y-119132285D01*
X134448571Y-119132285D01*
X134524761Y-119170380D01*
X134562857Y-119208476D01*
X134600952Y-119284666D01*
X134600952Y-119589428D01*
X134981904Y-118370380D02*
X134981904Y-118827523D01*
X134981904Y-118598952D02*
X134181904Y-118598952D01*
X134296190Y-118675142D01*
X134372380Y-118751333D01*
X134410476Y-118827523D01*
X134181904Y-117875142D02*
X134181904Y-117798952D01*
X134220000Y-117722761D01*
X134258095Y-117684666D01*
X134334285Y-117646571D01*
X134486666Y-117608476D01*
X134677142Y-117608476D01*
X134829523Y-117646571D01*
X134905714Y-117684666D01*
X134943809Y-117722761D01*
X134981904Y-117798952D01*
X134981904Y-117875142D01*
X134943809Y-117951333D01*
X134905714Y-117989428D01*
X134829523Y-118027523D01*
X134677142Y-118065619D01*
X134486666Y-118065619D01*
X134334285Y-118027523D01*
X134258095Y-117989428D01*
X134220000Y-117951333D01*
X134181904Y-117875142D01*
%TO.C,C9*%
X117125714Y-104110554D02*
X117163809Y-104148649D01*
X117201904Y-104262935D01*
X117201904Y-104339125D01*
X117163809Y-104453411D01*
X117087619Y-104529601D01*
X117011428Y-104567697D01*
X116859047Y-104605792D01*
X116744761Y-104605792D01*
X116592380Y-104567697D01*
X116516190Y-104529601D01*
X116440000Y-104453411D01*
X116401904Y-104339125D01*
X116401904Y-104262935D01*
X116440000Y-104148649D01*
X116478095Y-104110554D01*
X117201904Y-103729601D02*
X117201904Y-103577221D01*
X117163809Y-103501030D01*
X117125714Y-103462935D01*
X117011428Y-103386744D01*
X116859047Y-103348649D01*
X116554285Y-103348649D01*
X116478095Y-103386744D01*
X116440000Y-103424840D01*
X116401904Y-103501030D01*
X116401904Y-103653411D01*
X116440000Y-103729601D01*
X116478095Y-103767697D01*
X116554285Y-103805792D01*
X116744761Y-103805792D01*
X116820952Y-103767697D01*
X116859047Y-103729601D01*
X116897142Y-103653411D01*
X116897142Y-103501030D01*
X116859047Y-103424840D01*
X116820952Y-103386744D01*
X116744761Y-103348649D01*
%TO.C,R2*%
X137013904Y-106813333D02*
X136632952Y-107080000D01*
X137013904Y-107270476D02*
X136213904Y-107270476D01*
X136213904Y-106965714D01*
X136252000Y-106889523D01*
X136290095Y-106851428D01*
X136366285Y-106813333D01*
X136480571Y-106813333D01*
X136556761Y-106851428D01*
X136594857Y-106889523D01*
X136632952Y-106965714D01*
X136632952Y-107270476D01*
X136290095Y-106508571D02*
X136252000Y-106470476D01*
X136213904Y-106394285D01*
X136213904Y-106203809D01*
X136252000Y-106127619D01*
X136290095Y-106089523D01*
X136366285Y-106051428D01*
X136442476Y-106051428D01*
X136556761Y-106089523D01*
X137013904Y-106546666D01*
X137013904Y-106051428D01*
%TO.C,C6*%
X129914666Y-113950714D02*
X129876571Y-113988809D01*
X129762285Y-114026904D01*
X129686095Y-114026904D01*
X129571809Y-113988809D01*
X129495619Y-113912619D01*
X129457523Y-113836428D01*
X129419428Y-113684047D01*
X129419428Y-113569761D01*
X129457523Y-113417380D01*
X129495619Y-113341190D01*
X129571809Y-113265000D01*
X129686095Y-113226904D01*
X129762285Y-113226904D01*
X129876571Y-113265000D01*
X129914666Y-113303095D01*
X130600380Y-113226904D02*
X130448000Y-113226904D01*
X130371809Y-113265000D01*
X130333714Y-113303095D01*
X130257523Y-113417380D01*
X130219428Y-113569761D01*
X130219428Y-113874523D01*
X130257523Y-113950714D01*
X130295619Y-113988809D01*
X130371809Y-114026904D01*
X130524190Y-114026904D01*
X130600380Y-113988809D01*
X130638476Y-113950714D01*
X130676571Y-113874523D01*
X130676571Y-113684047D01*
X130638476Y-113607857D01*
X130600380Y-113569761D01*
X130524190Y-113531666D01*
X130371809Y-113531666D01*
X130295619Y-113569761D01*
X130257523Y-113607857D01*
X130219428Y-113684047D01*
%TO.C,C4*%
X142741666Y-114077714D02*
X142703571Y-114115809D01*
X142589285Y-114153904D01*
X142513095Y-114153904D01*
X142398809Y-114115809D01*
X142322619Y-114039619D01*
X142284523Y-113963428D01*
X142246428Y-113811047D01*
X142246428Y-113696761D01*
X142284523Y-113544380D01*
X142322619Y-113468190D01*
X142398809Y-113392000D01*
X142513095Y-113353904D01*
X142589285Y-113353904D01*
X142703571Y-113392000D01*
X142741666Y-113430095D01*
X143427380Y-113620571D02*
X143427380Y-114153904D01*
X143236904Y-113315809D02*
X143046428Y-113887238D01*
X143541666Y-113887238D01*
%TO.C,L1*%
X144392166Y-117963904D02*
X144011214Y-117963904D01*
X144011214Y-117163904D01*
X145077880Y-117963904D02*
X144620738Y-117963904D01*
X144849309Y-117963904D02*
X144849309Y-117163904D01*
X144773119Y-117278190D01*
X144696928Y-117354380D01*
X144620738Y-117392476D01*
%TO.C,C10*%
X116965714Y-114814285D02*
X117003809Y-114852380D01*
X117041904Y-114966666D01*
X117041904Y-115042857D01*
X117003809Y-115157142D01*
X116927619Y-115233333D01*
X116851428Y-115271428D01*
X116699047Y-115309523D01*
X116584761Y-115309523D01*
X116432380Y-115271428D01*
X116356190Y-115233333D01*
X116280000Y-115157142D01*
X116241904Y-115042857D01*
X116241904Y-114966666D01*
X116280000Y-114852380D01*
X116318095Y-114814285D01*
X117041904Y-114052380D02*
X117041904Y-114509523D01*
X117041904Y-114280952D02*
X116241904Y-114280952D01*
X116356190Y-114357142D01*
X116432380Y-114433333D01*
X116470476Y-114509523D01*
X116241904Y-113557142D02*
X116241904Y-113480952D01*
X116280000Y-113404761D01*
X116318095Y-113366666D01*
X116394285Y-113328571D01*
X116546666Y-113290476D01*
X116737142Y-113290476D01*
X116889523Y-113328571D01*
X116965714Y-113366666D01*
X117003809Y-113404761D01*
X117041904Y-113480952D01*
X117041904Y-113557142D01*
X117003809Y-113633333D01*
X116965714Y-113671428D01*
X116889523Y-113709523D01*
X116737142Y-113747619D01*
X116546666Y-113747619D01*
X116394285Y-113709523D01*
X116318095Y-113671428D01*
X116280000Y-113633333D01*
X116241904Y-113557142D01*
%TO.C,C1*%
X147605714Y-106813333D02*
X147643809Y-106851428D01*
X147681904Y-106965714D01*
X147681904Y-107041904D01*
X147643809Y-107156190D01*
X147567619Y-107232380D01*
X147491428Y-107270476D01*
X147339047Y-107308571D01*
X147224761Y-107308571D01*
X147072380Y-107270476D01*
X146996190Y-107232380D01*
X146920000Y-107156190D01*
X146881904Y-107041904D01*
X146881904Y-106965714D01*
X146920000Y-106851428D01*
X146958095Y-106813333D01*
X147681904Y-106051428D02*
X147681904Y-106508571D01*
X147681904Y-106280000D02*
X146881904Y-106280000D01*
X146996190Y-106356190D01*
X147072380Y-106432380D01*
X147110476Y-106508571D01*
%TO.C,R3*%
X138296666Y-115423904D02*
X138030000Y-115042952D01*
X137839523Y-115423904D02*
X137839523Y-114623904D01*
X138144285Y-114623904D01*
X138220476Y-114662000D01*
X138258571Y-114700095D01*
X138296666Y-114776285D01*
X138296666Y-114890571D01*
X138258571Y-114966761D01*
X138220476Y-115004857D01*
X138144285Y-115042952D01*
X137839523Y-115042952D01*
X138563333Y-114623904D02*
X139058571Y-114623904D01*
X138791904Y-114928666D01*
X138906190Y-114928666D01*
X138982380Y-114966761D01*
X139020476Y-115004857D01*
X139058571Y-115081047D01*
X139058571Y-115271523D01*
X139020476Y-115347714D01*
X138982380Y-115385809D01*
X138906190Y-115423904D01*
X138677619Y-115423904D01*
X138601428Y-115385809D01*
X138563333Y-115347714D01*
%TO.C,R8*%
X126726904Y-105289333D02*
X126345952Y-105556000D01*
X126726904Y-105746476D02*
X125926904Y-105746476D01*
X125926904Y-105441714D01*
X125965000Y-105365523D01*
X126003095Y-105327428D01*
X126079285Y-105289333D01*
X126193571Y-105289333D01*
X126269761Y-105327428D01*
X126307857Y-105365523D01*
X126345952Y-105441714D01*
X126345952Y-105746476D01*
X126269761Y-104832190D02*
X126231666Y-104908380D01*
X126193571Y-104946476D01*
X126117380Y-104984571D01*
X126079285Y-104984571D01*
X126003095Y-104946476D01*
X125965000Y-104908380D01*
X125926904Y-104832190D01*
X125926904Y-104679809D01*
X125965000Y-104603619D01*
X126003095Y-104565523D01*
X126079285Y-104527428D01*
X126117380Y-104527428D01*
X126193571Y-104565523D01*
X126231666Y-104603619D01*
X126269761Y-104679809D01*
X126269761Y-104832190D01*
X126307857Y-104908380D01*
X126345952Y-104946476D01*
X126422142Y-104984571D01*
X126574523Y-104984571D01*
X126650714Y-104946476D01*
X126688809Y-104908380D01*
X126726904Y-104832190D01*
X126726904Y-104679809D01*
X126688809Y-104603619D01*
X126650714Y-104565523D01*
X126574523Y-104527428D01*
X126422142Y-104527428D01*
X126345952Y-104565523D01*
X126307857Y-104603619D01*
X126269761Y-104679809D01*
%TO.C,C11*%
X134740714Y-101885714D02*
X134702619Y-101923809D01*
X134588333Y-101961904D01*
X134512142Y-101961904D01*
X134397857Y-101923809D01*
X134321666Y-101847619D01*
X134283571Y-101771428D01*
X134245476Y-101619047D01*
X134245476Y-101504761D01*
X134283571Y-101352380D01*
X134321666Y-101276190D01*
X134397857Y-101200000D01*
X134512142Y-101161904D01*
X134588333Y-101161904D01*
X134702619Y-101200000D01*
X134740714Y-101238095D01*
X135502619Y-101961904D02*
X135045476Y-101961904D01*
X135274047Y-101961904D02*
X135274047Y-101161904D01*
X135197857Y-101276190D01*
X135121666Y-101352380D01*
X135045476Y-101390476D01*
X136264523Y-101961904D02*
X135807380Y-101961904D01*
X136035952Y-101961904D02*
X136035952Y-101161904D01*
X135959761Y-101276190D01*
X135883571Y-101352380D01*
X135807380Y-101390476D01*
D12*
%TO.C,U1*%
X130105000Y-105340000D02*
X129380000Y-105340000D01*
X134600000Y-110560000D02*
X134600000Y-109835000D01*
X133875000Y-110560000D02*
X134600000Y-110560000D01*
X129380000Y-110560000D02*
X129380000Y-109835000D01*
X130105000Y-110560000D02*
X129380000Y-110560000D01*
X134600000Y-105340000D02*
X134600000Y-106065000D01*
X133875000Y-105340000D02*
X134600000Y-105340000D01*
%TO.C,R4*%
X142712221Y-111885000D02*
X143037779Y-111885000D01*
X142712221Y-112905000D02*
X143037779Y-112905000D01*
%TO.C,R7*%
X142559221Y-101725000D02*
X142884779Y-101725000D01*
X142559221Y-102745000D02*
X142884779Y-102745000D01*
%TO.C,R1*%
X142238000Y-106842779D02*
X142238000Y-106517221D01*
X143258000Y-106842779D02*
X143258000Y-106517221D01*
%TO.C,R5*%
X127760000Y-118582221D02*
X127760000Y-118907779D01*
X128780000Y-118582221D02*
X128780000Y-118907779D01*
%TO.C,R12*%
X138775221Y-118870000D02*
X139100779Y-118870000D01*
X138775221Y-119890000D02*
X139100779Y-119890000D01*
%TO.C,C5*%
X132679221Y-116080000D02*
X133004779Y-116080000D01*
X132679221Y-115060000D02*
X133004779Y-115060000D01*
%TO.C,L2*%
X142402779Y-116965000D02*
X142077221Y-116965000D01*
X142402779Y-117985000D02*
X142077221Y-117985000D01*
%TO.C,Y1*%
X120005000Y-115920000D02*
X125105000Y-115920000D01*
X125105000Y-115920000D02*
X125105000Y-103320000D01*
X120005000Y-103320000D02*
X120005000Y-115920000D01*
%TO.C,R6*%
X121757221Y-99185000D02*
X122082779Y-99185000D01*
X121757221Y-100205000D02*
X122082779Y-100205000D01*
%TO.C,C8*%
X131155221Y-100328000D02*
X131480779Y-100328000D01*
X131155221Y-101348000D02*
X131480779Y-101348000D01*
%TO.C,C2*%
X140460000Y-106842779D02*
X140460000Y-106517221D01*
X141480000Y-106842779D02*
X141480000Y-106517221D01*
%TO.C,C3*%
X138592779Y-109980000D02*
X138267221Y-109980000D01*
X138592779Y-111000000D02*
X138267221Y-111000000D01*
%TO.C,C7*%
X130883422Y-102160000D02*
X131400578Y-102160000D01*
X130883422Y-103580000D02*
X131400578Y-103580000D01*
%TO.C,R9*%
X133860000Y-118582221D02*
X133860000Y-118907779D01*
X132840000Y-118582221D02*
X132840000Y-118907779D01*
%TO.C,J11*%
X144840000Y-123885000D02*
X144840000Y-121225000D01*
X120650000Y-123885000D02*
X119320000Y-123885000D01*
X121920000Y-123885000D02*
X144840000Y-123885000D01*
X121920000Y-123885000D02*
X121920000Y-121225000D01*
X119320000Y-123885000D02*
X119320000Y-122555000D01*
X121920000Y-121225000D02*
X144840000Y-121225000D01*
%TO.C,R11*%
X142077221Y-118870000D02*
X142402779Y-118870000D01*
X142077221Y-119890000D02*
X142402779Y-119890000D01*
%TO.C,U2*%
X139825000Y-100655000D02*
X139825000Y-101585000D01*
X139825000Y-100655000D02*
X137665000Y-100655000D01*
X139825000Y-103815000D02*
X138365000Y-103815000D01*
X139825000Y-103815000D02*
X139825000Y-102885000D01*
%TO.C,R10*%
X136400000Y-118582221D02*
X136400000Y-118907779D01*
X135380000Y-118582221D02*
X135380000Y-118907779D01*
%TO.C,C9*%
X117600000Y-103977221D02*
X117600000Y-104302779D01*
X118620000Y-103977221D02*
X118620000Y-104302779D01*
%TO.C,R2*%
X138682000Y-106842779D02*
X138682000Y-106517221D01*
X139702000Y-106842779D02*
X139702000Y-106517221D01*
%TO.C,C6*%
X132456422Y-114375000D02*
X132973578Y-114375000D01*
X132456422Y-112955000D02*
X132973578Y-112955000D01*
%TO.C,C4*%
X143037779Y-111000000D02*
X142712221Y-111000000D01*
X143037779Y-109980000D02*
X142712221Y-109980000D01*
%TO.C,L1*%
X138749221Y-117985000D02*
X139074779Y-117985000D01*
X138749221Y-116965000D02*
X139074779Y-116965000D01*
%TO.C,C10*%
X117600000Y-114462779D02*
X117600000Y-114137221D01*
X118620000Y-114462779D02*
X118620000Y-114137221D01*
%TO.C,C1*%
X144016000Y-106842779D02*
X144016000Y-106517221D01*
X145036000Y-106842779D02*
X145036000Y-106517221D01*
%TO.C,R3*%
X138592779Y-111885000D02*
X138267221Y-111885000D01*
X138592779Y-112905000D02*
X138267221Y-112905000D01*
%TO.C,R8*%
X125855000Y-102707221D02*
X125855000Y-103032779D01*
X126875000Y-102707221D02*
X126875000Y-103032779D01*
%TO.C,C11*%
X135417779Y-102360000D02*
X135092221Y-102360000D01*
X135417779Y-103380000D02*
X135092221Y-103380000D01*
%TD*%
M02*
