%TF.GenerationSoftware,KiCad,Pcbnew,(5.99.0-8018-g9a0f685a75)*%
%TF.CreationDate,2021-08-15T15:04:04+09:30*%
%TF.ProjectId,MCP39F521_Breakout,4d435033-3946-4353-9231-5f427265616b,rev?*%
%TF.SameCoordinates,Original*%
%TF.FileFunction,Copper,L2,Bot*%
%TF.FilePolarity,Positive*%
%FSLAX46Y46*%
G04 Gerber Fmt 4.6, Leading zero omitted, Abs format (unit mm)*
G04 Created by KiCad (PCBNEW (5.99.0-8018-g9a0f685a75)) date 2021-08-15 15:04:04*
%MOMM*%
%LPD*%
G01*
G04 APERTURE LIST*
%TA.AperFunction,ComponentPad*%
%ADD10R,1.700000X1.700000*%
%TD*%
%TA.AperFunction,ComponentPad*%
%ADD11O,1.700000X1.700000*%
%TD*%
%TA.AperFunction,SMDPad,CuDef*%
%ADD12R,1.000000X1.500000*%
%TD*%
%TA.AperFunction,SMDPad,CuDef*%
%ADD13R,1.500000X1.500000*%
%TD*%
%TA.AperFunction,ViaPad*%
%ADD14C,0.800000*%
%TD*%
%TA.AperFunction,Conductor*%
%ADD15C,0.250000*%
%TD*%
G04 APERTURE END LIST*
%TO.C,A1*%
G36*
X128535000Y-99995000D02*
G01*
X128035000Y-99995000D01*
X128035000Y-99395000D01*
X128535000Y-99395000D01*
X128535000Y-99995000D01*
G37*
%TO.C,A0*%
G36*
X134855000Y-99995000D02*
G01*
X134355000Y-99995000D01*
X134355000Y-99395000D01*
X134855000Y-99395000D01*
X134855000Y-99995000D01*
G37*
%TD*%
D10*
%TO.P,J11,1,Pin_1*%
%TO.N,+3V3*%
X120650000Y-122555000D03*
D11*
%TO.P,J11,2,Pin_2*%
%TO.N,VP*%
X123190000Y-122555000D03*
%TO.P,J11,3,Pin_3*%
%TO.N,VN*%
X125730000Y-122555000D03*
%TO.P,J11,4,Pin_4*%
%TO.N,~RESET*%
X128270000Y-122555000D03*
%TO.P,J11,5,Pin_5*%
%TO.N,EVENT*%
X130810000Y-122555000D03*
%TO.P,J11,6,Pin_6*%
%TO.N,SCL*%
X133350000Y-122555000D03*
%TO.P,J11,7,Pin_7*%
%TO.N,SDA*%
X135890000Y-122555000D03*
%TO.P,J11,8,Pin_8*%
%TO.N,IP*%
X138430000Y-122555000D03*
%TO.P,J11,9,Pin_9*%
%TO.N,IN*%
X140970000Y-122555000D03*
%TO.P,J11,10,Pin_10*%
%TO.N,GNDD*%
X143510000Y-122555000D03*
%TD*%
D12*
%TO.P,A1,1,A*%
%TO.N,GNDD*%
X128935000Y-99695000D03*
%TO.P,A1,2,C*%
%TO.N,/A1*%
X127635000Y-99695000D03*
%TO.P,A1,3,B*%
%TO.N,+3V3*%
X126335000Y-99695000D03*
%TD*%
D13*
%TO.P,TP3,1,1*%
%TO.N,GNDD*%
X120650000Y-99695000D03*
%TD*%
%TO.P,TP2,1,1*%
%TO.N,GNDA*%
X123190000Y-99695000D03*
%TD*%
%TO.P,TP1,1,1*%
%TO.N,+3.3VA*%
X146812000Y-105410000D03*
%TD*%
%TO.P,J5,1,Pin_1*%
%TO.N,Net-(J5-Pad1)*%
X146812000Y-116840000D03*
%TD*%
%TO.P,J2,1,Pin_1*%
%TO.N,/REF_IN*%
X146812000Y-109220000D03*
%TD*%
D12*
%TO.P,A0,1,A*%
%TO.N,GNDD*%
X133955000Y-99695000D03*
%TO.P,A0,2,C*%
%TO.N,/A0*%
X135255000Y-99695000D03*
%TO.P,A0,3,B*%
%TO.N,+3V3*%
X136555000Y-99695000D03*
%TD*%
D13*
%TO.P,J4,1,Pin_1*%
%TO.N,Net-(J4-Pad1)*%
X146812000Y-113030000D03*
%TD*%
D14*
%TO.N,VN*%
X138450300Y-116044200D03*
%TO.N,VP*%
X136141820Y-107346649D03*
%TO.N,EVENT*%
X127349965Y-108162235D03*
%TO.N,SDA*%
X135890000Y-115301000D03*
%TO.N,Net-(J4-Pad1)*%
X133858000Y-104140000D03*
%TO.N,/REF_IN*%
X135520200Y-104246900D03*
%TO.N,GNDD*%
X132080000Y-97282000D03*
X148844000Y-114554000D03*
X115316000Y-114554000D03*
X131990000Y-107950000D03*
X131064000Y-108966000D03*
X133096000Y-108966000D03*
X115316000Y-102108000D03*
X115316000Y-106172000D03*
X148844000Y-102108000D03*
X131064000Y-106934000D03*
X140462000Y-97282000D03*
X128016000Y-97282000D03*
X127508000Y-105664000D03*
X148844000Y-106172000D03*
X148844000Y-118618000D03*
X133096000Y-106934000D03*
X115316000Y-110236000D03*
X124714000Y-102362000D03*
X144526000Y-97282000D03*
X115316000Y-118618000D03*
X123698000Y-97282000D03*
X136144000Y-97282000D03*
X119634000Y-97282000D03*
X148844000Y-110236000D03*
%TO.N,GNDA*%
X124566800Y-99341100D03*
%TO.N,+3V3*%
X127095900Y-101135100D03*
%TO.N,+3.3VA*%
X131015300Y-115380100D03*
X146812000Y-104057500D03*
%TO.N,/A0*%
X132390395Y-112188391D03*
%TO.N,/A1*%
X136144000Y-109696683D03*
%TO.N,Net-(J5-Pad1)*%
X128349971Y-108165746D03*
%TD*%
D15*
%TO.N,VN*%
X137160000Y-122992000D02*
X137160000Y-117334500D01*
X125730000Y-122555000D02*
X126905300Y-122555000D01*
X127713200Y-123730300D02*
X136421700Y-123730300D01*
X136421700Y-123730300D02*
X137160000Y-122992000D01*
X126905300Y-122922400D02*
X127713200Y-123730300D01*
X126905300Y-122555000D02*
X126905300Y-122922400D01*
X137160000Y-117334500D02*
X138450300Y-116044200D01*
%TO.N,VP*%
X131580981Y-112913392D02*
X134668021Y-112913392D01*
X134668021Y-112913392D02*
X137319012Y-110262401D01*
X127214201Y-107224997D02*
X128837197Y-107224997D01*
X137319012Y-110262401D02*
X137319012Y-108523841D01*
X129089989Y-107477789D02*
X129089989Y-110422400D01*
X128837197Y-107224997D02*
X129089989Y-107477789D01*
X123190000Y-122555000D02*
X123190000Y-111249198D01*
X123190000Y-111249198D02*
X127214201Y-107224997D01*
X129089989Y-110422400D02*
X131580981Y-112913392D01*
X137319012Y-108523841D02*
X136141820Y-107346649D01*
%TO.N,EVENT*%
X127349965Y-119094965D02*
X127349965Y-108162235D01*
X130810000Y-122555000D02*
X127349965Y-119094965D01*
%TO.N,SDA*%
X135890000Y-122555000D02*
X135890000Y-115301000D01*
%TO.N,Net-(J4-Pad1)*%
X136243964Y-106525964D02*
X133858000Y-104140000D01*
X140307964Y-106525964D02*
X136243964Y-106525964D01*
X146812000Y-113030000D02*
X140307964Y-106525964D01*
%TO.N,/REF_IN*%
X146812000Y-109220000D02*
X145736700Y-109220000D01*
X140763600Y-104246900D02*
X135520200Y-104246900D01*
X145736700Y-109220000D02*
X140763600Y-104246900D01*
%TO.N,GNDD*%
X132707000Y-100117700D02*
X133129700Y-99695000D01*
X120650000Y-99695000D02*
X121725300Y-99695000D01*
X129760300Y-99695000D02*
X130183000Y-100117700D01*
X130990000Y-100117700D02*
X132707000Y-100117700D01*
X128935000Y-99695000D02*
X128935000Y-98619700D01*
X128935000Y-99695000D02*
X129760300Y-99695000D01*
X133955000Y-99695000D02*
X133129700Y-99695000D01*
X128931100Y-98615800D02*
X122266800Y-98615800D01*
X128935000Y-98619700D02*
X128931100Y-98615800D01*
X130990000Y-100117700D02*
X130990000Y-106950000D01*
X121725300Y-99157300D02*
X121725300Y-99695000D01*
X122266800Y-98615800D02*
X121725300Y-99157300D01*
X130183000Y-100117700D02*
X130990000Y-100117700D01*
%TO.N,GNDA*%
X124265300Y-99695000D02*
X124265300Y-99642600D01*
X123190000Y-99695000D02*
X124265300Y-99695000D01*
X124265300Y-99642600D02*
X124566800Y-99341100D01*
%TO.N,+3V3*%
X120650000Y-122555000D02*
X120650000Y-105380000D01*
X136100800Y-98165500D02*
X120157000Y-98165500D01*
X126731100Y-100770300D02*
X127095900Y-101135100D01*
X119554200Y-98768300D02*
X119554200Y-100619200D01*
X122121500Y-103186500D02*
X122121500Y-103908500D01*
X120157000Y-98165500D02*
X119554200Y-98768300D01*
X122121500Y-103908500D02*
X120650000Y-105380000D01*
X122121500Y-103186400D02*
X125509700Y-99798200D01*
X122121500Y-103186400D02*
X122121500Y-103186500D01*
X136555000Y-99695000D02*
X136555000Y-98619700D01*
X119554200Y-100619200D02*
X122121500Y-103186400D01*
X126335000Y-99695000D02*
X126335000Y-100770300D01*
X126335000Y-100770300D02*
X126731100Y-100770300D01*
X126335000Y-99695000D02*
X125509700Y-99695000D01*
X125509700Y-99798200D02*
X125509700Y-99695000D01*
X136555000Y-98619700D02*
X136100800Y-98165500D01*
%TO.N,+3.3VA*%
X147767100Y-117915400D02*
X141370200Y-117915400D01*
X141370200Y-117915400D02*
X138030400Y-114575600D01*
X146812000Y-104872300D02*
X146812000Y-104334700D01*
X131819800Y-114575600D02*
X131015300Y-115380100D01*
X146812000Y-104334700D02*
X146812000Y-104057500D01*
X147887400Y-107560700D02*
X147887400Y-117795100D01*
X146812000Y-105410000D02*
X146812000Y-106485300D01*
X147887400Y-117795100D02*
X147767100Y-117915400D01*
X138030400Y-114575600D02*
X131819800Y-114575600D01*
X146812000Y-106485300D02*
X147887400Y-107560700D01*
%TO.N,/A0*%
X133132999Y-105516997D02*
X136869001Y-109252999D01*
X135255000Y-101669998D02*
X133132999Y-103791999D01*
X134756611Y-112188391D02*
X132390395Y-112188391D01*
X136869001Y-110076001D02*
X134756611Y-112188391D01*
X136869001Y-109252999D02*
X136869001Y-110076001D01*
X133132999Y-103791999D02*
X133132999Y-105516997D01*
X135255000Y-99695000D02*
X135255000Y-101669998D01*
%TO.N,/A1*%
X129540000Y-110236000D02*
X130683000Y-111379000D01*
X127635000Y-100556000D02*
X129540000Y-102461000D01*
X130683000Y-111379000D02*
X134461683Y-111379000D01*
X129540000Y-102461000D02*
X129540000Y-110236000D01*
X127635000Y-99695000D02*
X127635000Y-100556000D01*
X134461683Y-111379000D02*
X136144000Y-109696683D01*
%TO.N,Net-(J5-Pad1)*%
X146812000Y-116840000D02*
X143335403Y-113363403D01*
X128349971Y-110318793D02*
X128349971Y-108165746D01*
X143335403Y-113363403D02*
X131394581Y-113363403D01*
X131394581Y-113363403D02*
X128349971Y-110318793D01*
%TD*%
%TA.AperFunction,Conductor*%
%TO.N,GNDD*%
G36*
X147259160Y-97029782D02*
G01*
X147263413Y-97030505D01*
X147327218Y-97061641D01*
X147364061Y-97122329D01*
X147362244Y-97193303D01*
X147322345Y-97252027D01*
X147257031Y-97279858D01*
X147240647Y-97280712D01*
X147215828Y-97280387D01*
X147215825Y-97280387D01*
X147211150Y-97280326D01*
X146949293Y-97315963D01*
X146944807Y-97317271D01*
X146944805Y-97317271D01*
X146909069Y-97327687D01*
X146695580Y-97389913D01*
X146455584Y-97500553D01*
X146451675Y-97503116D01*
X146238491Y-97642885D01*
X146238486Y-97642889D01*
X146234578Y-97645451D01*
X146185156Y-97689562D01*
X146051399Y-97808945D01*
X146037417Y-97821424D01*
X146006090Y-97859091D01*
X145880126Y-98010547D01*
X145868432Y-98024607D01*
X145866009Y-98028600D01*
X145762714Y-98198825D01*
X145731335Y-98250535D01*
X145729526Y-98254849D01*
X145729524Y-98254853D01*
X145690176Y-98348688D01*
X145629139Y-98494246D01*
X145564088Y-98750385D01*
X145537611Y-99013327D01*
X145537835Y-99017993D01*
X145537835Y-99017998D01*
X145542046Y-99105649D01*
X145543832Y-99142836D01*
X145550290Y-99277293D01*
X145601847Y-99536486D01*
X145691148Y-99785211D01*
X145816233Y-100018005D01*
X145819028Y-100021748D01*
X145819030Y-100021751D01*
X145971561Y-100226015D01*
X145971566Y-100226021D01*
X145974353Y-100229753D01*
X145977662Y-100233033D01*
X145977667Y-100233039D01*
X146152957Y-100406806D01*
X146162034Y-100415804D01*
X146165796Y-100418562D01*
X146165799Y-100418565D01*
X146357498Y-100559124D01*
X146375154Y-100572070D01*
X146379297Y-100574250D01*
X146379299Y-100574251D01*
X146604880Y-100692935D01*
X146604885Y-100692937D01*
X146609030Y-100695118D01*
X146613453Y-100696663D01*
X146613454Y-100696663D01*
X146834023Y-100773689D01*
X146858526Y-100782246D01*
X146863119Y-100783118D01*
X147113570Y-100830668D01*
X147113573Y-100830668D01*
X147118159Y-100831539D01*
X147243654Y-100836470D01*
X147377558Y-100841731D01*
X147377563Y-100841731D01*
X147382226Y-100841914D01*
X147484914Y-100830668D01*
X147640273Y-100813654D01*
X147640279Y-100813653D01*
X147644926Y-100813144D01*
X147649450Y-100811953D01*
X147895965Y-100747051D01*
X147895967Y-100747050D01*
X147900488Y-100745860D01*
X147917531Y-100738538D01*
X148139004Y-100643385D01*
X148139006Y-100643384D01*
X148143298Y-100641540D01*
X148332447Y-100524491D01*
X148364038Y-100504942D01*
X148364040Y-100504940D01*
X148368021Y-100502477D01*
X148381050Y-100491447D01*
X148566148Y-100334751D01*
X148566150Y-100334749D01*
X148569721Y-100331726D01*
X148743967Y-100133036D01*
X148760499Y-100107335D01*
X148866869Y-99941964D01*
X148886931Y-99910774D01*
X148995472Y-99669822D01*
X149043683Y-99498879D01*
X149065936Y-99419977D01*
X149065937Y-99419974D01*
X149067206Y-99415473D01*
X149078668Y-99325378D01*
X149100158Y-99156446D01*
X149100158Y-99156440D01*
X149100556Y-99153315D01*
X149100559Y-99153203D01*
X149125506Y-99087313D01*
X149182552Y-99045048D01*
X149253392Y-99040333D01*
X149315535Y-99074666D01*
X149349251Y-99137146D01*
X149352000Y-99163320D01*
X149352000Y-121838043D01*
X149350218Y-121859157D01*
X149348310Y-121870382D01*
X149317176Y-121934188D01*
X149256488Y-121971032D01*
X149185514Y-121969217D01*
X149126789Y-121929319D01*
X149098439Y-121858606D01*
X149083763Y-121661122D01*
X149083761Y-121661105D01*
X149083415Y-121656456D01*
X149025091Y-121398701D01*
X149011141Y-121362828D01*
X148931003Y-121156752D01*
X148931002Y-121156749D01*
X148929310Y-121152399D01*
X148918578Y-121133621D01*
X148866937Y-121043269D01*
X148798174Y-120922959D01*
X148634565Y-120715423D01*
X148442078Y-120534349D01*
X148224941Y-120383715D01*
X148220748Y-120381647D01*
X147992112Y-120268896D01*
X147992109Y-120268895D01*
X147987924Y-120266831D01*
X147941199Y-120251874D01*
X147740678Y-120187687D01*
X147740680Y-120187687D01*
X147736233Y-120186264D01*
X147593236Y-120162976D01*
X147480011Y-120144536D01*
X147480010Y-120144536D01*
X147475399Y-120143785D01*
X147343275Y-120142056D01*
X147215827Y-120140387D01*
X147215824Y-120140387D01*
X147211150Y-120140326D01*
X146949293Y-120175963D01*
X146944807Y-120177271D01*
X146944805Y-120177271D01*
X146909069Y-120187687D01*
X146695580Y-120249913D01*
X146455584Y-120360553D01*
X146451675Y-120363116D01*
X146238491Y-120502885D01*
X146238486Y-120502889D01*
X146234578Y-120505451D01*
X146037417Y-120681424D01*
X145868432Y-120884607D01*
X145731335Y-121110535D01*
X145729526Y-121114849D01*
X145729524Y-121114853D01*
X145675882Y-121242775D01*
X145629139Y-121354246D01*
X145564088Y-121610385D01*
X145537611Y-121873327D01*
X145537835Y-121877993D01*
X145537835Y-121877998D01*
X145541793Y-121960398D01*
X145543832Y-122002836D01*
X145550290Y-122137293D01*
X145601847Y-122396486D01*
X145691148Y-122645211D01*
X145816233Y-122878005D01*
X145819028Y-122881748D01*
X145819030Y-122881751D01*
X145971561Y-123086015D01*
X145971566Y-123086021D01*
X145974353Y-123089753D01*
X145977662Y-123093033D01*
X145977667Y-123093039D01*
X146126792Y-123240868D01*
X146162034Y-123275804D01*
X146165796Y-123278562D01*
X146165799Y-123278565D01*
X146371380Y-123429303D01*
X146375154Y-123432070D01*
X146379297Y-123434250D01*
X146379299Y-123434251D01*
X146604880Y-123552935D01*
X146604885Y-123552937D01*
X146609030Y-123555118D01*
X146613453Y-123556663D01*
X146613454Y-123556663D01*
X146827514Y-123631416D01*
X146858526Y-123642246D01*
X146867354Y-123643922D01*
X147113570Y-123690668D01*
X147113573Y-123690668D01*
X147118159Y-123691539D01*
X147262916Y-123697226D01*
X147330198Y-123719887D01*
X147374549Y-123775326D01*
X147381886Y-123845943D01*
X147349881Y-123909316D01*
X147288694Y-123945325D01*
X147277569Y-123947595D01*
X147259337Y-123950466D01*
X147239737Y-123952000D01*
X144284017Y-123952000D01*
X144215896Y-123931998D01*
X144169403Y-123878342D01*
X144159299Y-123808068D01*
X144188793Y-123743488D01*
X144210759Y-123723485D01*
X144389041Y-123596083D01*
X144397149Y-123589182D01*
X144551893Y-123433082D01*
X144558706Y-123424933D01*
X144684940Y-123244988D01*
X144690295Y-123235787D01*
X144784399Y-123037156D01*
X144788123Y-123027197D01*
X144845968Y-122820718D01*
X144844430Y-122812351D01*
X144832137Y-122809000D01*
X143764002Y-122808999D01*
X143763996Y-122809000D01*
X143382000Y-122808999D01*
X143313879Y-122788997D01*
X143267386Y-122735341D01*
X143256000Y-122682999D01*
X143256000Y-122282885D01*
X143763999Y-122282885D01*
X143768474Y-122298124D01*
X143769864Y-122299329D01*
X143777547Y-122301000D01*
X144829079Y-122301001D01*
X144842610Y-122297028D01*
X144843876Y-122288219D01*
X144796954Y-122107433D01*
X144793419Y-122097395D01*
X144703147Y-121896998D01*
X144697967Y-121887692D01*
X144575218Y-121705366D01*
X144568557Y-121697080D01*
X144416830Y-121538030D01*
X144408873Y-121530990D01*
X144232523Y-121399782D01*
X144223486Y-121394178D01*
X144027550Y-121294559D01*
X144017699Y-121290559D01*
X143807778Y-121225378D01*
X143797396Y-121223095D01*
X143781959Y-121221049D01*
X143767792Y-121223246D01*
X143764000Y-121236430D01*
X143763999Y-122282885D01*
X143256000Y-122282885D01*
X143256001Y-121238716D01*
X143252028Y-121225185D01*
X143241421Y-121223660D01*
X143123555Y-121248391D01*
X143113358Y-121251451D01*
X142908932Y-121332182D01*
X142899396Y-121336916D01*
X142711486Y-121450942D01*
X142702896Y-121457206D01*
X142536884Y-121601264D01*
X142529464Y-121608895D01*
X142390100Y-121778860D01*
X142384079Y-121787622D01*
X142350427Y-121846739D01*
X142299344Y-121896045D01*
X142229714Y-121909906D01*
X142163643Y-121883922D01*
X142136405Y-121854773D01*
X142061526Y-121743552D01*
X142032627Y-121700626D01*
X141986856Y-121652645D01*
X141937507Y-121600915D01*
X141873482Y-121533799D01*
X141688504Y-121396171D01*
X141683753Y-121393755D01*
X141683749Y-121393753D01*
X141487740Y-121294097D01*
X141487739Y-121294097D01*
X141482982Y-121291678D01*
X141372887Y-121257492D01*
X141267895Y-121224891D01*
X141267889Y-121224890D01*
X141262792Y-121223307D01*
X141157798Y-121209391D01*
X141039515Y-121193714D01*
X141039510Y-121193714D01*
X141034230Y-121193014D01*
X141028900Y-121193214D01*
X141028899Y-121193214D01*
X140935320Y-121196727D01*
X140803831Y-121201663D01*
X140759246Y-121211018D01*
X140583411Y-121247912D01*
X140583408Y-121247913D01*
X140578184Y-121249009D01*
X140363740Y-121333697D01*
X140166631Y-121453306D01*
X140162601Y-121456803D01*
X140036406Y-121566309D01*
X139992492Y-121604415D01*
X139989109Y-121608541D01*
X139989105Y-121608545D01*
X139954545Y-121650695D01*
X139846304Y-121782705D01*
X139843667Y-121787338D01*
X139843666Y-121787339D01*
X139810116Y-121846278D01*
X139759033Y-121895584D01*
X139689402Y-121909445D01*
X139623332Y-121883461D01*
X139596094Y-121854312D01*
X139590686Y-121846278D01*
X139533088Y-121760725D01*
X139495607Y-121705052D01*
X139495605Y-121705050D01*
X139492627Y-121700626D01*
X139446856Y-121652645D01*
X139397507Y-121600915D01*
X139333482Y-121533799D01*
X139148504Y-121396171D01*
X139143753Y-121393755D01*
X139143749Y-121393753D01*
X138947740Y-121294097D01*
X138947739Y-121294097D01*
X138942982Y-121291678D01*
X138832887Y-121257492D01*
X138727895Y-121224891D01*
X138727889Y-121224890D01*
X138722792Y-121223307D01*
X138617798Y-121209391D01*
X138499515Y-121193714D01*
X138499510Y-121193714D01*
X138494230Y-121193014D01*
X138488900Y-121193214D01*
X138488899Y-121193214D01*
X138395320Y-121196727D01*
X138263831Y-121201663D01*
X138219246Y-121211018D01*
X138043411Y-121247912D01*
X138043408Y-121247913D01*
X138038184Y-121249009D01*
X138033214Y-121250972D01*
X138033213Y-121250972D01*
X137965781Y-121277602D01*
X137895075Y-121284020D01*
X137832124Y-121251192D01*
X137796914Y-121189542D01*
X137793500Y-121160410D01*
X137793500Y-117649095D01*
X137813502Y-117580974D01*
X137830405Y-117559999D01*
X138400805Y-116989600D01*
X138463117Y-116955575D01*
X138489900Y-116952696D01*
X138545787Y-116952696D01*
X138552239Y-116951324D01*
X138552244Y-116951324D01*
X138639187Y-116932843D01*
X138732587Y-116912990D01*
X138738618Y-116910305D01*
X138901020Y-116837999D01*
X138901022Y-116837998D01*
X138907050Y-116835314D01*
X138912392Y-116831433D01*
X139056207Y-116726946D01*
X139056209Y-116726944D01*
X139061551Y-116723063D01*
X139065973Y-116718152D01*
X139077138Y-116705753D01*
X139137585Y-116668515D01*
X139208568Y-116669868D01*
X139259867Y-116700971D01*
X140866809Y-118307913D01*
X140874169Y-118316001D01*
X140878227Y-118322395D01*
X140884004Y-118327820D01*
X140927078Y-118368269D01*
X140929920Y-118371024D01*
X140950233Y-118391337D01*
X140953644Y-118393982D01*
X140962664Y-118401686D01*
X140994899Y-118431957D01*
X141001844Y-118435775D01*
X141001847Y-118435777D01*
X141012652Y-118441717D01*
X141029179Y-118452573D01*
X141045176Y-118464982D01*
X141085755Y-118482543D01*
X141096387Y-118487751D01*
X141135152Y-118509062D01*
X141142829Y-118511033D01*
X141142834Y-118511035D01*
X141154766Y-118514098D01*
X141173474Y-118520503D01*
X141177813Y-118522380D01*
X141184792Y-118525401D01*
X141184796Y-118525402D01*
X141192063Y-118528547D01*
X141199887Y-118529786D01*
X141199890Y-118529787D01*
X141220701Y-118533083D01*
X141235737Y-118535464D01*
X141247345Y-118537868D01*
X141290175Y-118548865D01*
X141290731Y-118548900D01*
X141310653Y-118548900D01*
X141330362Y-118550451D01*
X141350144Y-118553584D01*
X141358035Y-118552838D01*
X141393779Y-118549459D01*
X141405637Y-118548900D01*
X147688717Y-118548900D01*
X147699621Y-118549414D01*
X147707012Y-118551066D01*
X147714937Y-118550817D01*
X147714938Y-118550817D01*
X147773953Y-118548962D01*
X147777911Y-118548900D01*
X147806678Y-118548900D01*
X147810602Y-118548404D01*
X147810604Y-118548404D01*
X147810952Y-118548360D01*
X147822798Y-118547427D01*
X147866983Y-118546038D01*
X147886439Y-118540386D01*
X147905779Y-118536381D01*
X147925888Y-118533840D01*
X147933258Y-118530922D01*
X147933262Y-118530921D01*
X147967000Y-118517563D01*
X147978230Y-118513718D01*
X148013068Y-118503597D01*
X148013069Y-118503597D01*
X148020678Y-118501386D01*
X148038112Y-118491076D01*
X148055864Y-118482380D01*
X148067325Y-118477842D01*
X148067324Y-118477842D01*
X148074700Y-118474922D01*
X148110475Y-118448930D01*
X148120394Y-118442414D01*
X148121573Y-118441717D01*
X148158441Y-118419913D01*
X148158859Y-118419545D01*
X148172942Y-118405462D01*
X148187967Y-118392628D01*
X148204183Y-118380846D01*
X148232130Y-118347064D01*
X148240119Y-118338285D01*
X148279913Y-118298491D01*
X148288001Y-118291131D01*
X148294395Y-118287073D01*
X148340270Y-118238221D01*
X148343024Y-118235380D01*
X148363338Y-118215066D01*
X148365983Y-118211655D01*
X148373689Y-118202633D01*
X148398529Y-118176181D01*
X148403957Y-118170401D01*
X148413717Y-118152647D01*
X148424567Y-118136129D01*
X148436983Y-118120122D01*
X148454536Y-118079560D01*
X148459758Y-118068900D01*
X148477245Y-118037092D01*
X148477246Y-118037089D01*
X148481062Y-118030148D01*
X148486100Y-118010526D01*
X148492505Y-117991819D01*
X148493613Y-117989259D01*
X148500547Y-117973235D01*
X148507463Y-117929572D01*
X148509870Y-117917951D01*
X148519387Y-117880882D01*
X148519387Y-117880881D01*
X148520865Y-117875125D01*
X148520900Y-117874569D01*
X148520900Y-117854647D01*
X148522451Y-117834936D01*
X148524344Y-117822984D01*
X148525584Y-117815156D01*
X148521459Y-117771517D01*
X148520900Y-117759660D01*
X148520900Y-107639083D01*
X148521414Y-107628179D01*
X148523066Y-107620788D01*
X148520962Y-107553846D01*
X148520900Y-107549889D01*
X148520900Y-107521122D01*
X148520359Y-107516837D01*
X148519426Y-107504996D01*
X148518287Y-107468736D01*
X148518287Y-107468735D01*
X148518038Y-107460816D01*
X148515828Y-107453208D01*
X148515827Y-107453203D01*
X148512387Y-107441361D01*
X148508379Y-107422007D01*
X148506834Y-107409779D01*
X148505840Y-107401912D01*
X148502923Y-107394544D01*
X148502921Y-107394537D01*
X148489563Y-107360799D01*
X148485718Y-107349569D01*
X148475597Y-107314731D01*
X148475596Y-107314730D01*
X148473386Y-107307121D01*
X148463076Y-107289688D01*
X148454382Y-107271941D01*
X148446922Y-107253100D01*
X148420933Y-107217329D01*
X148414417Y-107207410D01*
X148407887Y-107196369D01*
X148391913Y-107169358D01*
X148391545Y-107168940D01*
X148377463Y-107154858D01*
X148364622Y-107139825D01*
X148357503Y-107130027D01*
X148352846Y-107123617D01*
X148319071Y-107095676D01*
X148310292Y-107087687D01*
X147921990Y-106699385D01*
X147887964Y-106637073D01*
X147893029Y-106566258D01*
X147915861Y-106527777D01*
X147943161Y-106496271D01*
X147993984Y-106437619D01*
X148054700Y-106304670D01*
X148065962Y-106226340D01*
X148074861Y-106164448D01*
X148074862Y-106164441D01*
X148075500Y-106160000D01*
X148075500Y-104660000D01*
X148070273Y-104586921D01*
X148029096Y-104446684D01*
X147968003Y-104351622D01*
X147954949Y-104331309D01*
X147954947Y-104331306D01*
X147950077Y-104323729D01*
X147903998Y-104283801D01*
X147846431Y-104233918D01*
X147846428Y-104233916D01*
X147839619Y-104228016D01*
X147796068Y-104208127D01*
X147742412Y-104161635D01*
X147722409Y-104093514D01*
X147723099Y-104080342D01*
X147723261Y-104078807D01*
X147725500Y-104057500D01*
X147718856Y-103994282D01*
X147706228Y-103874137D01*
X147706228Y-103874136D01*
X147705538Y-103867573D01*
X147694786Y-103834480D01*
X147660949Y-103730343D01*
X147646524Y-103685946D01*
X147642956Y-103679765D01*
X147554338Y-103526276D01*
X147551037Y-103520558D01*
X147509312Y-103474217D01*
X147427673Y-103383548D01*
X147427672Y-103383547D01*
X147423251Y-103378637D01*
X147417909Y-103374756D01*
X147417907Y-103374754D01*
X147274092Y-103270267D01*
X147274091Y-103270266D01*
X147268750Y-103266386D01*
X147262722Y-103263702D01*
X147262720Y-103263701D01*
X147100318Y-103191395D01*
X147100317Y-103191395D01*
X147094287Y-103188710D01*
X147000887Y-103168857D01*
X146913944Y-103150376D01*
X146913939Y-103150376D01*
X146907487Y-103149004D01*
X146716513Y-103149004D01*
X146710061Y-103150376D01*
X146710056Y-103150376D01*
X146623113Y-103168857D01*
X146529713Y-103188710D01*
X146523683Y-103191395D01*
X146523682Y-103191395D01*
X146361280Y-103263701D01*
X146361278Y-103263702D01*
X146355250Y-103266386D01*
X146349909Y-103270266D01*
X146349908Y-103270267D01*
X146206093Y-103374754D01*
X146206091Y-103374756D01*
X146200749Y-103378637D01*
X146196328Y-103383547D01*
X146196327Y-103383548D01*
X146114689Y-103474217D01*
X146072963Y-103520558D01*
X146069662Y-103526276D01*
X145981045Y-103679765D01*
X145977476Y-103685946D01*
X145963051Y-103730343D01*
X145929215Y-103834480D01*
X145918462Y-103867573D01*
X145917772Y-103874136D01*
X145917772Y-103874137D01*
X145905144Y-103994282D01*
X145898500Y-104057500D01*
X145899190Y-104064064D01*
X145900565Y-104077146D01*
X145887793Y-104146985D01*
X145843376Y-104196315D01*
X145733309Y-104267051D01*
X145733306Y-104267053D01*
X145725729Y-104271923D01*
X145719828Y-104278733D01*
X145635918Y-104375569D01*
X145635916Y-104375572D01*
X145630016Y-104382381D01*
X145569300Y-104515330D01*
X145568018Y-104524245D01*
X145568018Y-104524246D01*
X145549139Y-104655552D01*
X145549138Y-104655559D01*
X145548500Y-104660000D01*
X145548500Y-106160000D01*
X145553727Y-106233079D01*
X145594904Y-106373316D01*
X145599775Y-106380895D01*
X145669051Y-106488691D01*
X145669053Y-106488694D01*
X145673923Y-106496271D01*
X145680733Y-106502172D01*
X145777569Y-106586082D01*
X145777572Y-106586084D01*
X145784381Y-106591984D01*
X145792579Y-106595728D01*
X145860346Y-106626676D01*
X145917330Y-106652700D01*
X145926245Y-106653982D01*
X145926246Y-106653982D01*
X146057552Y-106672861D01*
X146057559Y-106672862D01*
X146062000Y-106673500D01*
X146116038Y-106673500D01*
X146184159Y-106693502D01*
X146223801Y-106740187D01*
X146226014Y-106738878D01*
X146236327Y-106756317D01*
X146245023Y-106774069D01*
X146252479Y-106792900D01*
X146257141Y-106799316D01*
X146278468Y-106828671D01*
X146284983Y-106838589D01*
X146307487Y-106876641D01*
X146307855Y-106877059D01*
X146321938Y-106891142D01*
X146334779Y-106906175D01*
X146346555Y-106922383D01*
X146352662Y-106927435D01*
X146380330Y-106950324D01*
X146389110Y-106958314D01*
X147172201Y-107741405D01*
X147206227Y-107803717D01*
X147201162Y-107874532D01*
X147158615Y-107931368D01*
X147092095Y-107956179D01*
X147083106Y-107956500D01*
X146062000Y-107956500D01*
X145988921Y-107961727D01*
X145910835Y-107984655D01*
X145857330Y-108000365D01*
X145857328Y-108000366D01*
X145848684Y-108002904D01*
X145841105Y-108007775D01*
X145733309Y-108077051D01*
X145733306Y-108077053D01*
X145725729Y-108081923D01*
X145707020Y-108103514D01*
X145647296Y-108141898D01*
X145576300Y-108141899D01*
X145522701Y-108110097D01*
X141266991Y-103854387D01*
X141259631Y-103846299D01*
X141255573Y-103839905D01*
X141206721Y-103794030D01*
X141203880Y-103791276D01*
X141183566Y-103770962D01*
X141180155Y-103768317D01*
X141171133Y-103760611D01*
X141144677Y-103735767D01*
X141138901Y-103730343D01*
X141131957Y-103726526D01*
X141131955Y-103726524D01*
X141121147Y-103720582D01*
X141104623Y-103709728D01*
X141094886Y-103702175D01*
X141094885Y-103702175D01*
X141088623Y-103697317D01*
X141081350Y-103694170D01*
X141081347Y-103694168D01*
X141055538Y-103683000D01*
X141048058Y-103679763D01*
X141037400Y-103674542D01*
X141005594Y-103657056D01*
X141005590Y-103657054D01*
X140998648Y-103653238D01*
X140990973Y-103651268D01*
X140990972Y-103651267D01*
X140979026Y-103648200D01*
X140960319Y-103641795D01*
X140949010Y-103636901D01*
X140949008Y-103636901D01*
X140941735Y-103633753D01*
X140933907Y-103632513D01*
X140933906Y-103632513D01*
X140898073Y-103626838D01*
X140886448Y-103624430D01*
X140849382Y-103614913D01*
X140849380Y-103614913D01*
X140843625Y-103613435D01*
X140843069Y-103613400D01*
X140823146Y-103613400D01*
X140803437Y-103611849D01*
X140783655Y-103608716D01*
X140775763Y-103609462D01*
X140740018Y-103612841D01*
X140728160Y-103613400D01*
X136228394Y-103613400D01*
X136160273Y-103593398D01*
X136141049Y-103577058D01*
X136140775Y-103577362D01*
X136135872Y-103572947D01*
X136131451Y-103568037D01*
X136126109Y-103564156D01*
X136126107Y-103564154D01*
X135982292Y-103459667D01*
X135982291Y-103459666D01*
X135976950Y-103455786D01*
X135970922Y-103453102D01*
X135970920Y-103453101D01*
X135808518Y-103380795D01*
X135808517Y-103380795D01*
X135802487Y-103378110D01*
X135707506Y-103357921D01*
X135622144Y-103339776D01*
X135622139Y-103339776D01*
X135615687Y-103338404D01*
X135424713Y-103338404D01*
X135418261Y-103339776D01*
X135418256Y-103339776D01*
X135332894Y-103357921D01*
X135237913Y-103378110D01*
X135231883Y-103380795D01*
X135231882Y-103380795D01*
X135069480Y-103453101D01*
X135069478Y-103453102D01*
X135063450Y-103455786D01*
X135058109Y-103459666D01*
X135058108Y-103459667D01*
X134914293Y-103564154D01*
X134914291Y-103564156D01*
X134908949Y-103568037D01*
X134904528Y-103572947D01*
X134904527Y-103572948D01*
X134867686Y-103613864D01*
X134823089Y-103663395D01*
X134822623Y-103663912D01*
X134762177Y-103701152D01*
X134691194Y-103699800D01*
X134632209Y-103660287D01*
X134619868Y-103642603D01*
X134597037Y-103603058D01*
X134581837Y-103586176D01*
X134497384Y-103492382D01*
X134466666Y-103428375D01*
X134475431Y-103357921D01*
X134501925Y-103318977D01*
X135647513Y-102173389D01*
X135655601Y-102166029D01*
X135661995Y-102161971D01*
X135707870Y-102113119D01*
X135710624Y-102110278D01*
X135730938Y-102089964D01*
X135733583Y-102086553D01*
X135741289Y-102077531D01*
X135743871Y-102074782D01*
X135771557Y-102045299D01*
X135775376Y-102038353D01*
X135781318Y-102027545D01*
X135792172Y-102011021D01*
X135799725Y-102001284D01*
X135799725Y-102001283D01*
X135804583Y-101995021D01*
X135822142Y-101954445D01*
X135827363Y-101943788D01*
X135848662Y-101905046D01*
X135850635Y-101897362D01*
X135853699Y-101885430D01*
X135860103Y-101866726D01*
X135864999Y-101855413D01*
X135865001Y-101855406D01*
X135868148Y-101848134D01*
X135874338Y-101809056D01*
X135875065Y-101804463D01*
X135877472Y-101792842D01*
X135886987Y-101755780D01*
X135886987Y-101755779D01*
X135888465Y-101750023D01*
X135888500Y-101749467D01*
X135888500Y-101729546D01*
X135890051Y-101709836D01*
X135891944Y-101697884D01*
X135891944Y-101697883D01*
X135893184Y-101690054D01*
X135889059Y-101646415D01*
X135888500Y-101634558D01*
X135888500Y-101079973D01*
X135908502Y-101011852D01*
X135962158Y-100965359D01*
X136032432Y-100955256D01*
X136050541Y-100957860D01*
X136050556Y-100957861D01*
X136055000Y-100958500D01*
X137055000Y-100958500D01*
X137128079Y-100953273D01*
X137206165Y-100930345D01*
X137259670Y-100914635D01*
X137259672Y-100914634D01*
X137268316Y-100912096D01*
X137317780Y-100880307D01*
X137383691Y-100837949D01*
X137383694Y-100837947D01*
X137391271Y-100833077D01*
X137435317Y-100782246D01*
X137481082Y-100729431D01*
X137481084Y-100729428D01*
X137486984Y-100722619D01*
X137501767Y-100690248D01*
X137543958Y-100597864D01*
X137543958Y-100597863D01*
X137547700Y-100589670D01*
X137549917Y-100574251D01*
X137567861Y-100449448D01*
X137567862Y-100449441D01*
X137568500Y-100445000D01*
X137568500Y-98945000D01*
X137563273Y-98871921D01*
X137526959Y-98748245D01*
X137524635Y-98740330D01*
X137524634Y-98740328D01*
X137522096Y-98731684D01*
X137496637Y-98692070D01*
X137447949Y-98616309D01*
X137447947Y-98616306D01*
X137443077Y-98608729D01*
X137413259Y-98582891D01*
X137339431Y-98518918D01*
X137339428Y-98518916D01*
X137332619Y-98513016D01*
X137213415Y-98458577D01*
X137159760Y-98412085D01*
X137144760Y-98379113D01*
X137140986Y-98366121D01*
X137130676Y-98348688D01*
X137121982Y-98330941D01*
X137114522Y-98312100D01*
X137099444Y-98291347D01*
X137088533Y-98276329D01*
X137082017Y-98266410D01*
X137059513Y-98228358D01*
X137059145Y-98227941D01*
X137045062Y-98213858D01*
X137032228Y-98198833D01*
X137020446Y-98182617D01*
X136986664Y-98154670D01*
X136977885Y-98146681D01*
X136604191Y-97772987D01*
X136596831Y-97764899D01*
X136592773Y-97758505D01*
X136543921Y-97712630D01*
X136541080Y-97709876D01*
X136520766Y-97689562D01*
X136517355Y-97686917D01*
X136508333Y-97679211D01*
X136500315Y-97671681D01*
X136476101Y-97648943D01*
X136469157Y-97645126D01*
X136469155Y-97645124D01*
X136458347Y-97639182D01*
X136441823Y-97628328D01*
X136432086Y-97620775D01*
X136432085Y-97620775D01*
X136425823Y-97615917D01*
X136418550Y-97612770D01*
X136418547Y-97612768D01*
X136396117Y-97603062D01*
X136385258Y-97598363D01*
X136374600Y-97593142D01*
X136342794Y-97575656D01*
X136342790Y-97575654D01*
X136335848Y-97571838D01*
X136328173Y-97569868D01*
X136328172Y-97569867D01*
X136316226Y-97566800D01*
X136297519Y-97560395D01*
X136286210Y-97555501D01*
X136286208Y-97555501D01*
X136278935Y-97552353D01*
X136271107Y-97551113D01*
X136271106Y-97551113D01*
X136235273Y-97545438D01*
X136223648Y-97543030D01*
X136186582Y-97533513D01*
X136186580Y-97533513D01*
X136180825Y-97532035D01*
X136180269Y-97532000D01*
X136160346Y-97532000D01*
X136140637Y-97530449D01*
X136120855Y-97527316D01*
X136112963Y-97528062D01*
X136077218Y-97531441D01*
X136065360Y-97532000D01*
X120235383Y-97532000D01*
X120224479Y-97531486D01*
X120217088Y-97529834D01*
X120209163Y-97530083D01*
X120209162Y-97530083D01*
X120150147Y-97531938D01*
X120146189Y-97532000D01*
X120117422Y-97532000D01*
X120113137Y-97532541D01*
X120101303Y-97533473D01*
X120075286Y-97534291D01*
X120065036Y-97534613D01*
X120065035Y-97534613D01*
X120057116Y-97534862D01*
X120049508Y-97537072D01*
X120049503Y-97537073D01*
X120037661Y-97540513D01*
X120018307Y-97544521D01*
X120006079Y-97546066D01*
X119998212Y-97547060D01*
X119990844Y-97549977D01*
X119990837Y-97549979D01*
X119957099Y-97563337D01*
X119945869Y-97567182D01*
X119911031Y-97577303D01*
X119911030Y-97577304D01*
X119903421Y-97579514D01*
X119885988Y-97589824D01*
X119868241Y-97598518D01*
X119849400Y-97605978D01*
X119835720Y-97615917D01*
X119813629Y-97631967D01*
X119803712Y-97638482D01*
X119765658Y-97660987D01*
X119765240Y-97661355D01*
X119751158Y-97675437D01*
X119736125Y-97688278D01*
X119719917Y-97700054D01*
X119714868Y-97706157D01*
X119714867Y-97706158D01*
X119691970Y-97733836D01*
X119683980Y-97742615D01*
X119161684Y-98264911D01*
X119153601Y-98272268D01*
X119147205Y-98276327D01*
X119141779Y-98282105D01*
X119141778Y-98282106D01*
X119101337Y-98325172D01*
X119098581Y-98328015D01*
X119078262Y-98348334D01*
X119075838Y-98351459D01*
X119075831Y-98351467D01*
X119075611Y-98351751D01*
X119067903Y-98360776D01*
X119037643Y-98393000D01*
X119027887Y-98410746D01*
X119017036Y-98427265D01*
X119009478Y-98437009D01*
X119009475Y-98437014D01*
X119004617Y-98443277D01*
X118998896Y-98456498D01*
X118987061Y-98483847D01*
X118981838Y-98494509D01*
X118971664Y-98513016D01*
X118960538Y-98533253D01*
X118958566Y-98540935D01*
X118958565Y-98540936D01*
X118955498Y-98552878D01*
X118949098Y-98571573D01*
X118941053Y-98590165D01*
X118939813Y-98597994D01*
X118934137Y-98633829D01*
X118931730Y-98645450D01*
X118922213Y-98682519D01*
X118920735Y-98688276D01*
X118920700Y-98688832D01*
X118920700Y-98708754D01*
X118919149Y-98728463D01*
X118916016Y-98748245D01*
X118916762Y-98756137D01*
X118920141Y-98791883D01*
X118920700Y-98803741D01*
X118920701Y-100540803D01*
X118920186Y-100551729D01*
X118918533Y-100559124D01*
X118918782Y-100567045D01*
X118918782Y-100567046D01*
X118920639Y-100626089D01*
X118920701Y-100630050D01*
X118920701Y-100658778D01*
X118921242Y-100663059D01*
X118922174Y-100674890D01*
X118923564Y-100719095D01*
X118925776Y-100726708D01*
X118929213Y-100738538D01*
X118933224Y-100757902D01*
X118935761Y-100777988D01*
X118938678Y-100785355D01*
X118938678Y-100785356D01*
X118952038Y-100819100D01*
X118955882Y-100830328D01*
X118960660Y-100846771D01*
X118968219Y-100872789D01*
X118972254Y-100879612D01*
X118972256Y-100879616D01*
X118978526Y-100890218D01*
X118987224Y-100907973D01*
X118991759Y-100919427D01*
X118991762Y-100919432D01*
X118994679Y-100926800D01*
X119020679Y-100962586D01*
X119027186Y-100972493D01*
X119046661Y-101005422D01*
X119046664Y-101005426D01*
X119049695Y-101010551D01*
X119050063Y-101010968D01*
X119060135Y-101021039D01*
X119064142Y-101025046D01*
X119076984Y-101040081D01*
X119088755Y-101056283D01*
X119122547Y-101084238D01*
X119131316Y-101092218D01*
X119748958Y-101709836D01*
X121422735Y-103383548D01*
X121451094Y-103411906D01*
X121485120Y-103474217D01*
X121488000Y-103501003D01*
X121488000Y-103593905D01*
X121467998Y-103662026D01*
X121451095Y-103683000D01*
X120257478Y-104876618D01*
X120249400Y-104883969D01*
X120243006Y-104888027D01*
X120237579Y-104893806D01*
X120237578Y-104893807D01*
X120197148Y-104936861D01*
X120194393Y-104939703D01*
X120174062Y-104960034D01*
X120171628Y-104963171D01*
X120171626Y-104963174D01*
X120171403Y-104963461D01*
X120163707Y-104972471D01*
X120140251Y-104997450D01*
X120133444Y-105004699D01*
X120129628Y-105011640D01*
X120129626Y-105011643D01*
X120123688Y-105022445D01*
X120112834Y-105038968D01*
X120105444Y-105048496D01*
X120100417Y-105054977D01*
X120097269Y-105062252D01*
X120082859Y-105095551D01*
X120077637Y-105106211D01*
X120056339Y-105144952D01*
X120051301Y-105164572D01*
X120044902Y-105183264D01*
X120036853Y-105201865D01*
X120035613Y-105209692D01*
X120035613Y-105209693D01*
X120029937Y-105245531D01*
X120027530Y-105257154D01*
X120016536Y-105299975D01*
X120016501Y-105300531D01*
X120016501Y-105320447D01*
X120014950Y-105340157D01*
X120011816Y-105359945D01*
X120012562Y-105367837D01*
X120015942Y-105403593D01*
X120016501Y-105415451D01*
X120016500Y-121065500D01*
X119996498Y-121133621D01*
X119942842Y-121180114D01*
X119890500Y-121191500D01*
X119800000Y-121191500D01*
X119726921Y-121196727D01*
X119673884Y-121212300D01*
X119595330Y-121235365D01*
X119595328Y-121235366D01*
X119586684Y-121237904D01*
X119566350Y-121250972D01*
X119471309Y-121312051D01*
X119471306Y-121312053D01*
X119463729Y-121316923D01*
X119457828Y-121323733D01*
X119373918Y-121420569D01*
X119373916Y-121420572D01*
X119368016Y-121427381D01*
X119307300Y-121560330D01*
X119306018Y-121569245D01*
X119306018Y-121569246D01*
X119287139Y-121700552D01*
X119287138Y-121700559D01*
X119286500Y-121705000D01*
X119286500Y-123405000D01*
X119291727Y-123478079D01*
X119299528Y-123504647D01*
X119329247Y-123605860D01*
X119332904Y-123618316D01*
X119349107Y-123643528D01*
X119407051Y-123733691D01*
X119407053Y-123733694D01*
X119411923Y-123741271D01*
X119416234Y-123745006D01*
X119445033Y-123808068D01*
X119434930Y-123878342D01*
X119388437Y-123931998D01*
X119320316Y-123952000D01*
X116926581Y-123952000D01*
X116858460Y-123931998D01*
X116811967Y-123878342D01*
X116801863Y-123808068D01*
X116831357Y-123743488D01*
X116891083Y-123705104D01*
X116912864Y-123700749D01*
X117160273Y-123673654D01*
X117160279Y-123673653D01*
X117164926Y-123673144D01*
X117169450Y-123671953D01*
X117415965Y-123607051D01*
X117415967Y-123607050D01*
X117420488Y-123605860D01*
X117428414Y-123602455D01*
X117659004Y-123503385D01*
X117659006Y-123503384D01*
X117663298Y-123501540D01*
X117888021Y-123362477D01*
X118036443Y-123236829D01*
X118086148Y-123194751D01*
X118086150Y-123194749D01*
X118089721Y-123191726D01*
X118263967Y-122993036D01*
X118279135Y-122969456D01*
X118389741Y-122797499D01*
X118406931Y-122770774D01*
X118515472Y-122529822D01*
X118554368Y-122391909D01*
X118585936Y-122279977D01*
X118585937Y-122279974D01*
X118587206Y-122275473D01*
X118599857Y-122176030D01*
X118620158Y-122016445D01*
X118620158Y-122016441D01*
X118620556Y-122013315D01*
X118620831Y-122002836D01*
X118622917Y-121923160D01*
X118623000Y-121920000D01*
X118621186Y-121895584D01*
X118603761Y-121661108D01*
X118603760Y-121661104D01*
X118603415Y-121656456D01*
X118545091Y-121398701D01*
X118531141Y-121362828D01*
X118451003Y-121156752D01*
X118451002Y-121156749D01*
X118449310Y-121152399D01*
X118438578Y-121133621D01*
X118386937Y-121043269D01*
X118318174Y-120922959D01*
X118154565Y-120715423D01*
X117962078Y-120534349D01*
X117744941Y-120383715D01*
X117740748Y-120381647D01*
X117512112Y-120268896D01*
X117512109Y-120268895D01*
X117507924Y-120266831D01*
X117461199Y-120251874D01*
X117260678Y-120187687D01*
X117260680Y-120187687D01*
X117256233Y-120186264D01*
X117113236Y-120162976D01*
X117000011Y-120144536D01*
X117000010Y-120144536D01*
X116995399Y-120143785D01*
X116863275Y-120142056D01*
X116735827Y-120140387D01*
X116735824Y-120140387D01*
X116731150Y-120140326D01*
X116469293Y-120175963D01*
X116464807Y-120177271D01*
X116464805Y-120177271D01*
X116429069Y-120187687D01*
X116215580Y-120249913D01*
X115975584Y-120360553D01*
X115971675Y-120363116D01*
X115758491Y-120502885D01*
X115758486Y-120502889D01*
X115754578Y-120505451D01*
X115557417Y-120681424D01*
X115388432Y-120884607D01*
X115251335Y-121110535D01*
X115249526Y-121114849D01*
X115249524Y-121114853D01*
X115195882Y-121242775D01*
X115149139Y-121354246D01*
X115084088Y-121610385D01*
X115083619Y-121615043D01*
X115059583Y-121853741D01*
X115032857Y-121919515D01*
X114974813Y-121960398D01*
X114903880Y-121963410D01*
X114842579Y-121927595D01*
X114809746Y-121860690D01*
X114809529Y-121859310D01*
X114808000Y-121839737D01*
X114808000Y-99141957D01*
X114809782Y-99120839D01*
X114812418Y-99105334D01*
X114814274Y-99105649D01*
X114837462Y-99047063D01*
X114895132Y-99005654D01*
X114966034Y-99001998D01*
X115027658Y-99037255D01*
X115060438Y-99100232D01*
X115062664Y-99118515D01*
X115063832Y-99142836D01*
X115070290Y-99277293D01*
X115121847Y-99536486D01*
X115211148Y-99785211D01*
X115336233Y-100018005D01*
X115339028Y-100021748D01*
X115339030Y-100021751D01*
X115491561Y-100226015D01*
X115491566Y-100226021D01*
X115494353Y-100229753D01*
X115497662Y-100233033D01*
X115497667Y-100233039D01*
X115672957Y-100406806D01*
X115682034Y-100415804D01*
X115685796Y-100418562D01*
X115685799Y-100418565D01*
X115877498Y-100559124D01*
X115895154Y-100572070D01*
X115899297Y-100574250D01*
X115899299Y-100574251D01*
X116124880Y-100692935D01*
X116124885Y-100692937D01*
X116129030Y-100695118D01*
X116133453Y-100696663D01*
X116133454Y-100696663D01*
X116354023Y-100773689D01*
X116378526Y-100782246D01*
X116383119Y-100783118D01*
X116633570Y-100830668D01*
X116633573Y-100830668D01*
X116638159Y-100831539D01*
X116763654Y-100836470D01*
X116897558Y-100841731D01*
X116897563Y-100841731D01*
X116902226Y-100841914D01*
X117004914Y-100830668D01*
X117160273Y-100813654D01*
X117160279Y-100813653D01*
X117164926Y-100813144D01*
X117169450Y-100811953D01*
X117415965Y-100747051D01*
X117415967Y-100747050D01*
X117420488Y-100745860D01*
X117437531Y-100738538D01*
X117659004Y-100643385D01*
X117659006Y-100643384D01*
X117663298Y-100641540D01*
X117852447Y-100524491D01*
X117884038Y-100504942D01*
X117884040Y-100504940D01*
X117888021Y-100502477D01*
X117901050Y-100491447D01*
X118086148Y-100334751D01*
X118086150Y-100334749D01*
X118089721Y-100331726D01*
X118263967Y-100133036D01*
X118280499Y-100107335D01*
X118386869Y-99941964D01*
X118406931Y-99910774D01*
X118515472Y-99669822D01*
X118563683Y-99498879D01*
X118585936Y-99419977D01*
X118585937Y-99419974D01*
X118587206Y-99415473D01*
X118598668Y-99325378D01*
X118620158Y-99156445D01*
X118620158Y-99156441D01*
X118620556Y-99153315D01*
X118620700Y-99147842D01*
X118622285Y-99087313D01*
X118623000Y-99060000D01*
X118617753Y-98989391D01*
X118603761Y-98801108D01*
X118603760Y-98801104D01*
X118603415Y-98796456D01*
X118545091Y-98538701D01*
X118543398Y-98534347D01*
X118451003Y-98296752D01*
X118451002Y-98296749D01*
X118449310Y-98292399D01*
X118437379Y-98271523D01*
X118368324Y-98150704D01*
X118318174Y-98062959D01*
X118154565Y-97855423D01*
X117962078Y-97674349D01*
X117777160Y-97546066D01*
X117748783Y-97526380D01*
X117748780Y-97526378D01*
X117744941Y-97523715D01*
X117712675Y-97507803D01*
X117512112Y-97408896D01*
X117512109Y-97408895D01*
X117507924Y-97406831D01*
X117461199Y-97391874D01*
X117260678Y-97327687D01*
X117260680Y-97327687D01*
X117256233Y-97326264D01*
X117113236Y-97302976D01*
X117000011Y-97284536D01*
X117000010Y-97284536D01*
X116995399Y-97283785D01*
X116902243Y-97282566D01*
X116834391Y-97261675D01*
X116788604Y-97207415D01*
X116779421Y-97137015D01*
X116809756Y-97072826D01*
X116869980Y-97035227D01*
X116884291Y-97032111D01*
X116900661Y-97029534D01*
X116920257Y-97028000D01*
X147238043Y-97028000D01*
X147259160Y-97029782D01*
G37*
%TD.AperFunction*%
%TA.AperFunction,Conductor*%
G36*
X125484032Y-100823938D02*
G01*
X125522514Y-100846771D01*
X125550569Y-100871082D01*
X125550572Y-100871084D01*
X125557381Y-100876984D01*
X125678700Y-100932389D01*
X125732355Y-100978881D01*
X125746190Y-101008065D01*
X125757268Y-101042160D01*
X125761511Y-101048847D01*
X125761513Y-101048850D01*
X125761683Y-101049117D01*
X125772449Y-101070248D01*
X125772559Y-101070527D01*
X125772562Y-101070532D01*
X125775479Y-101077900D01*
X125780137Y-101084311D01*
X125780138Y-101084313D01*
X125808479Y-101123320D01*
X125812928Y-101129868D01*
X125838777Y-101170599D01*
X125838780Y-101170602D01*
X125843027Y-101177295D01*
X125848803Y-101182719D01*
X125848807Y-101182724D01*
X125849038Y-101182941D01*
X125864716Y-101200724D01*
X125864894Y-101200969D01*
X125864897Y-101200973D01*
X125869555Y-101207383D01*
X125875659Y-101212433D01*
X125875663Y-101212437D01*
X125912810Y-101243168D01*
X125918744Y-101248399D01*
X125950800Y-101278500D01*
X125959699Y-101286857D01*
X125966640Y-101290673D01*
X125966644Y-101290676D01*
X125966928Y-101290832D01*
X125986530Y-101304154D01*
X125986745Y-101304331D01*
X125992876Y-101309403D01*
X126043597Y-101333271D01*
X126043678Y-101333309D01*
X126050730Y-101336902D01*
X126093008Y-101360145D01*
X126093011Y-101360146D01*
X126099952Y-101363962D01*
X126107625Y-101365932D01*
X126107630Y-101365934D01*
X126107931Y-101366011D01*
X126130240Y-101374043D01*
X126130515Y-101374173D01*
X126130523Y-101374176D01*
X126137694Y-101377550D01*
X126151629Y-101380208D01*
X126214794Y-101412616D01*
X126247855Y-101465039D01*
X126261376Y-101506654D01*
X126356863Y-101672042D01*
X126361281Y-101676949D01*
X126361282Y-101676950D01*
X126476095Y-101804463D01*
X126484649Y-101813963D01*
X126489991Y-101817844D01*
X126489993Y-101817846D01*
X126619576Y-101911993D01*
X126639150Y-101926214D01*
X126645178Y-101928898D01*
X126645180Y-101928899D01*
X126807582Y-102001205D01*
X126813613Y-102003890D01*
X126907013Y-102023743D01*
X126993956Y-102042224D01*
X126993961Y-102042224D01*
X127000413Y-102043596D01*
X127191387Y-102043596D01*
X127197839Y-102042224D01*
X127197844Y-102042224D01*
X127284787Y-102023743D01*
X127378187Y-102003890D01*
X127384218Y-102001205D01*
X127546620Y-101928899D01*
X127546622Y-101928898D01*
X127552650Y-101926214D01*
X127572224Y-101911993D01*
X127701807Y-101817846D01*
X127701809Y-101817844D01*
X127707151Y-101813963D01*
X127755666Y-101760082D01*
X127816110Y-101722844D01*
X127887094Y-101724196D01*
X127938393Y-101755297D01*
X128869597Y-102686502D01*
X128903621Y-102748812D01*
X128906500Y-102775595D01*
X128906501Y-104655552D01*
X128906501Y-106465497D01*
X128886499Y-106533618D01*
X128832843Y-106580111D01*
X128780501Y-106591497D01*
X127292584Y-106591497D01*
X127281680Y-106590983D01*
X127274289Y-106589331D01*
X127266363Y-106589580D01*
X127266362Y-106589580D01*
X127207335Y-106591435D01*
X127203377Y-106591497D01*
X127174623Y-106591497D01*
X127170356Y-106592036D01*
X127158514Y-106592969D01*
X127126866Y-106593964D01*
X127122241Y-106594109D01*
X127114318Y-106594358D01*
X127094868Y-106600009D01*
X127075506Y-106604019D01*
X127055413Y-106606557D01*
X127021550Y-106619964D01*
X127014309Y-106622831D01*
X127003079Y-106626676D01*
X126968235Y-106636799D01*
X126968233Y-106636800D01*
X126960622Y-106639011D01*
X126945268Y-106648091D01*
X126943190Y-106649320D01*
X126925437Y-106658017D01*
X126906601Y-106665475D01*
X126885600Y-106680733D01*
X126870827Y-106691466D01*
X126860908Y-106697981D01*
X126827959Y-106717468D01*
X126827956Y-106717470D01*
X126822860Y-106720484D01*
X126822442Y-106720852D01*
X126808359Y-106734935D01*
X126793334Y-106747769D01*
X126777118Y-106759551D01*
X126749529Y-106792900D01*
X126749172Y-106793332D01*
X126741182Y-106802112D01*
X122797478Y-110745816D01*
X122789400Y-110753167D01*
X122783006Y-110757225D01*
X122777579Y-110763004D01*
X122777578Y-110763005D01*
X122737148Y-110806059D01*
X122734393Y-110808901D01*
X122714062Y-110829232D01*
X122711628Y-110832369D01*
X122711626Y-110832372D01*
X122711403Y-110832659D01*
X122703707Y-110841669D01*
X122697583Y-110848191D01*
X122673444Y-110873897D01*
X122669628Y-110880838D01*
X122669626Y-110880841D01*
X122663688Y-110891643D01*
X122652834Y-110908166D01*
X122645278Y-110917908D01*
X122640417Y-110924175D01*
X122637269Y-110931450D01*
X122622859Y-110964749D01*
X122617637Y-110975409D01*
X122596339Y-111014150D01*
X122591301Y-111033770D01*
X122584902Y-111052462D01*
X122576853Y-111071063D01*
X122575613Y-111078890D01*
X122575613Y-111078891D01*
X122569937Y-111114729D01*
X122567530Y-111126352D01*
X122556536Y-111169173D01*
X122556501Y-111169729D01*
X122556501Y-111189645D01*
X122554950Y-111209355D01*
X122551816Y-111229143D01*
X122552562Y-111237035D01*
X122555942Y-111272791D01*
X122556501Y-111284649D01*
X122556500Y-121279302D01*
X122536498Y-121347423D01*
X122495867Y-121387020D01*
X122386631Y-121453306D01*
X122382601Y-121456803D01*
X122256406Y-121566309D01*
X122212492Y-121604415D01*
X122207339Y-121610700D01*
X122206364Y-121611365D01*
X122205390Y-121612366D01*
X122205186Y-121612168D01*
X122148681Y-121650695D01*
X122077710Y-121652628D01*
X122016961Y-121615885D01*
X121989008Y-121566309D01*
X121969634Y-121500329D01*
X121967096Y-121491684D01*
X121904541Y-121394347D01*
X121892949Y-121376309D01*
X121892947Y-121376306D01*
X121888077Y-121368729D01*
X121845384Y-121331735D01*
X121784431Y-121278918D01*
X121784428Y-121278916D01*
X121777619Y-121273016D01*
X121769421Y-121269272D01*
X121652864Y-121216042D01*
X121652863Y-121216042D01*
X121644670Y-121212300D01*
X121635755Y-121211018D01*
X121635754Y-121211018D01*
X121504448Y-121192139D01*
X121504441Y-121192138D01*
X121500000Y-121191500D01*
X121409500Y-121191500D01*
X121341379Y-121171498D01*
X121294886Y-121117842D01*
X121283500Y-121065500D01*
X121283500Y-105694594D01*
X121303502Y-105626473D01*
X121320405Y-105605499D01*
X122514013Y-104411891D01*
X122522101Y-104404531D01*
X122528495Y-104400473D01*
X122545485Y-104382381D01*
X122574369Y-104351622D01*
X122577124Y-104348780D01*
X122597437Y-104328467D01*
X122600081Y-104325059D01*
X122607786Y-104316037D01*
X122632634Y-104289577D01*
X122632637Y-104289573D01*
X122638057Y-104283801D01*
X122641873Y-104276861D01*
X122641876Y-104276856D01*
X122647819Y-104266046D01*
X122658671Y-104249526D01*
X122666221Y-104239792D01*
X122671083Y-104233524D01*
X122688639Y-104192954D01*
X122693862Y-104182292D01*
X122711343Y-104150495D01*
X122711343Y-104150494D01*
X122715162Y-104143548D01*
X122717135Y-104135865D01*
X122720202Y-104123923D01*
X122726603Y-104105225D01*
X122731499Y-104093910D01*
X122734647Y-104086636D01*
X122741563Y-104042972D01*
X122743970Y-104031351D01*
X122753487Y-103994282D01*
X122753487Y-103994281D01*
X122754965Y-103988525D01*
X122755000Y-103987969D01*
X122755000Y-103968047D01*
X122756551Y-103948336D01*
X122758444Y-103936384D01*
X122759684Y-103928556D01*
X122755559Y-103884917D01*
X122755000Y-103873060D01*
X122755000Y-103500994D01*
X122775002Y-103432873D01*
X122791905Y-103411899D01*
X125350905Y-100852899D01*
X125413217Y-100818873D01*
X125484032Y-100823938D01*
G37*
%TD.AperFunction*%
%TA.AperFunction,Conductor*%
G36*
X132885700Y-98819002D02*
G01*
X132932193Y-98872658D01*
X132941295Y-98935934D01*
X132942961Y-98936053D01*
X132942000Y-98949495D01*
X132942000Y-99422885D01*
X132946475Y-99438124D01*
X132947865Y-99439329D01*
X132955548Y-99441000D01*
X133721000Y-99441000D01*
X133789121Y-99461002D01*
X133835614Y-99514658D01*
X133847000Y-99567000D01*
X133847001Y-99720189D01*
X133847001Y-99827351D01*
X133826999Y-99895471D01*
X133773344Y-99941964D01*
X133703070Y-99952069D01*
X133694217Y-99950471D01*
X133687455Y-99949000D01*
X132960115Y-99949000D01*
X132944876Y-99953475D01*
X132943671Y-99954865D01*
X132942000Y-99962548D01*
X132942000Y-100442743D01*
X132942161Y-100447250D01*
X132946740Y-100511269D01*
X132949126Y-100524491D01*
X132985819Y-100649458D01*
X132993233Y-100665692D01*
X133062426Y-100773360D01*
X133074112Y-100786847D01*
X133170840Y-100870662D01*
X133185848Y-100880307D01*
X133302275Y-100933477D01*
X133319388Y-100938502D01*
X133450554Y-100957361D01*
X133459495Y-100958000D01*
X133682885Y-100958000D01*
X133698124Y-100953525D01*
X133699329Y-100952135D01*
X133701000Y-100944452D01*
X133701000Y-100353058D01*
X133721002Y-100284937D01*
X133774658Y-100238444D01*
X133844932Y-100228340D01*
X133909512Y-100257834D01*
X133921907Y-100272175D01*
X133922821Y-100271387D01*
X133939543Y-100290793D01*
X133950653Y-100305807D01*
X133964331Y-100327486D01*
X133971056Y-100333425D01*
X133971061Y-100333431D01*
X133986455Y-100347025D01*
X133998501Y-100359218D01*
X134017767Y-100381578D01*
X134025295Y-100386457D01*
X134025298Y-100386460D01*
X134039270Y-100395516D01*
X134054144Y-100406806D01*
X134073351Y-100423769D01*
X134081474Y-100427583D01*
X134081479Y-100427586D01*
X134100071Y-100436315D01*
X134115052Y-100444636D01*
X134132289Y-100455808D01*
X134132292Y-100455810D01*
X134138784Y-100460017D01*
X134138785Y-100460018D01*
X134139821Y-100460690D01*
X134139724Y-100460840D01*
X134189301Y-100504186D01*
X134209000Y-100571834D01*
X134209000Y-100939885D01*
X134213475Y-100955124D01*
X134214865Y-100956329D01*
X134222548Y-100958000D01*
X134452743Y-100958000D01*
X134457248Y-100957839D01*
X134486511Y-100955746D01*
X134555886Y-100970837D01*
X134606088Y-101021039D01*
X134621501Y-101081425D01*
X134621501Y-101355403D01*
X134601499Y-101423524D01*
X134584596Y-101444498D01*
X132740485Y-103288609D01*
X132732398Y-103295968D01*
X132726004Y-103300026D01*
X132720579Y-103305803D01*
X132720578Y-103305804D01*
X132680136Y-103348871D01*
X132677380Y-103351714D01*
X132657061Y-103372033D01*
X132654637Y-103375158D01*
X132654630Y-103375166D01*
X132654410Y-103375450D01*
X132646702Y-103384475D01*
X132616442Y-103416699D01*
X132610023Y-103428375D01*
X132606686Y-103434445D01*
X132595835Y-103450964D01*
X132588277Y-103460708D01*
X132588274Y-103460713D01*
X132583416Y-103466976D01*
X132580267Y-103474254D01*
X132565860Y-103507546D01*
X132560637Y-103518207D01*
X132539337Y-103556952D01*
X132537365Y-103564634D01*
X132537364Y-103564635D01*
X132534297Y-103576577D01*
X132527897Y-103595272D01*
X132519852Y-103613864D01*
X132518612Y-103621693D01*
X132512936Y-103657528D01*
X132510529Y-103669149D01*
X132501013Y-103706212D01*
X132501012Y-103706219D01*
X132499534Y-103711975D01*
X132499499Y-103712531D01*
X132499499Y-103732453D01*
X132497948Y-103752162D01*
X132494815Y-103771944D01*
X132495561Y-103779836D01*
X132498940Y-103815582D01*
X132499499Y-103827440D01*
X132499500Y-105438602D01*
X132498986Y-105449516D01*
X132497333Y-105456909D01*
X132497582Y-105464834D01*
X132497582Y-105464835D01*
X132499438Y-105523881D01*
X132499500Y-105527839D01*
X132499500Y-105556575D01*
X132499995Y-105560492D01*
X132500039Y-105560841D01*
X132500971Y-105572675D01*
X132502361Y-105616880D01*
X132504574Y-105624496D01*
X132504574Y-105624498D01*
X132508013Y-105636336D01*
X132512022Y-105655695D01*
X132514560Y-105675785D01*
X132517480Y-105683160D01*
X132530832Y-105716886D01*
X132534677Y-105728115D01*
X132547013Y-105770575D01*
X132551048Y-105777398D01*
X132557326Y-105788014D01*
X132566022Y-105805766D01*
X132573478Y-105824597D01*
X132578140Y-105831013D01*
X132599467Y-105860368D01*
X132605982Y-105870286D01*
X132628486Y-105908338D01*
X132628854Y-105908756D01*
X132642937Y-105922839D01*
X132655778Y-105937872D01*
X132667554Y-105954080D01*
X132673661Y-105959132D01*
X132701329Y-105982021D01*
X132710109Y-105990011D01*
X135547311Y-108827214D01*
X135581337Y-108889526D01*
X135576272Y-108960342D01*
X135542528Y-109009944D01*
X135538093Y-109013937D01*
X135532749Y-109017820D01*
X135404963Y-109159741D01*
X135309476Y-109325129D01*
X135250462Y-109506756D01*
X135249772Y-109513319D01*
X135249772Y-109513320D01*
X135233097Y-109671973D01*
X135206084Y-109737629D01*
X135196882Y-109747897D01*
X134236184Y-110708595D01*
X134173872Y-110742621D01*
X134147089Y-110745500D01*
X130997596Y-110745500D01*
X130929475Y-110725498D01*
X130908501Y-110708596D01*
X130210405Y-110010501D01*
X130176380Y-109948188D01*
X130173500Y-109921405D01*
X130173500Y-102539383D01*
X130174014Y-102528479D01*
X130175666Y-102521088D01*
X130173562Y-102454146D01*
X130173500Y-102450189D01*
X130173500Y-102421422D01*
X130172960Y-102417148D01*
X130172026Y-102405296D01*
X130170887Y-102369043D01*
X130170638Y-102361117D01*
X130164986Y-102341661D01*
X130160981Y-102322321D01*
X130158440Y-102302212D01*
X130155521Y-102294840D01*
X130155520Y-102294835D01*
X130142164Y-102261101D01*
X130138319Y-102249872D01*
X130128197Y-102215031D01*
X130128197Y-102215030D01*
X130125986Y-102207421D01*
X130115676Y-102189988D01*
X130106982Y-102172241D01*
X130099522Y-102153400D01*
X130073533Y-102117629D01*
X130067017Y-102107710D01*
X130054673Y-102086838D01*
X130044513Y-102069658D01*
X130044145Y-102069241D01*
X130030062Y-102055158D01*
X130017228Y-102040133D01*
X130005446Y-102023917D01*
X129971665Y-101995971D01*
X129962886Y-101987982D01*
X129147999Y-101173095D01*
X129113973Y-101110783D01*
X129119038Y-101039968D01*
X129161585Y-100983132D01*
X129228105Y-100958321D01*
X129237094Y-100958000D01*
X129432743Y-100958000D01*
X129437250Y-100957839D01*
X129501269Y-100953260D01*
X129514491Y-100950874D01*
X129639458Y-100914181D01*
X129655692Y-100906767D01*
X129763360Y-100837574D01*
X129776847Y-100825888D01*
X129860662Y-100729160D01*
X129870307Y-100714152D01*
X129923477Y-100597725D01*
X129928502Y-100580612D01*
X129947361Y-100449446D01*
X129948000Y-100440503D01*
X129948000Y-99967115D01*
X129943525Y-99951876D01*
X129942135Y-99950671D01*
X129934452Y-99949000D01*
X129169000Y-99948999D01*
X129100879Y-99928997D01*
X129054386Y-99875341D01*
X129043000Y-99822999D01*
X129043000Y-99567000D01*
X129063002Y-99498879D01*
X129116658Y-99452386D01*
X129169000Y-99441000D01*
X129929885Y-99441001D01*
X129945124Y-99436526D01*
X129946329Y-99435136D01*
X129948000Y-99427453D01*
X129948000Y-98947257D01*
X129947840Y-98942762D01*
X129947212Y-98933994D01*
X129962301Y-98864619D01*
X130012501Y-98814415D01*
X130072891Y-98799000D01*
X132817579Y-98799000D01*
X132885700Y-98819002D01*
G37*
%TD.AperFunction*%
%TD*%
M02*
